<svg width="28" height="27" viewBox="0 0 28 27" fill="none" xmlns="http://www.w3.org/2000/svg">
<path d="M27.9984 20.13V25.434C27.9986 25.8138 27.8494 26.1795 27.5809 26.4573C27.3125 26.7351 26.9447 26.9044 26.5519 26.931C25.8726 26.977 25.3179 27 24.8875 27C11.1418 27 0 16.2555 0 3C0 2.586 0.0238505 2.051 0.0715516 1.395C0.0991182 1.01617 0.274667 0.661516 0.562774 0.402613C0.850882 0.14371 1.2301 -0.00017165 1.62391 3.84869e-07H7.12405C7.31699 -0.000188002 7.50311 0.0687886 7.64626 0.193531C7.78942 0.318273 7.87938 0.489874 7.89867 0.675C7.93393 1.019 7.96711 1.295 7.99822 1.503C8.30732 3.58339 8.94082 5.60676 9.87723 7.5045C10.025 7.8045 9.92856 8.163 9.64857 8.355L6.29187 10.668C8.34464 15.2794 12.1556 18.9544 16.9375 20.934L19.3329 17.703C19.4304 17.5705 19.5733 17.4755 19.7363 17.4346C19.8994 17.3937 20.0721 17.4096 20.2242 17.4795C22.1919 18.3808 24.2895 18.9902 26.4461 19.287C26.6618 19.317 26.9469 19.349 27.3016 19.383C27.4933 19.402 27.6709 19.4889 27.7999 19.6269C27.9289 19.7649 27.9987 19.9442 27.9984 20.13Z" fill="#32B5FD"/>
</svg>
