<svg width="33" height="33" viewBox="0 0 33 33" fill="none" xmlns="http://www.w3.org/2000/svg">
<path d="M16.4998 2.06266C13.4924 2.0662 10.6091 3.26248 8.48255 5.38906C6.35597 7.51564 5.1597 10.3989 5.15615 13.4063C5.15338 15.8639 5.95609 18.2546 7.44138 20.2125C7.44138 20.2125 7.75076 20.6199 7.80129 20.6787L16.4998 30.9375L25.2025 20.6735C25.2479 20.6188 25.5583 20.2125 25.5583 20.2125L25.5593 20.2094C27.0436 18.2522 27.8459 15.8627 27.8435 13.4063C27.8399 10.3989 26.6437 7.51564 24.5171 5.38906C22.3905 3.26248 19.5073 2.0662 16.4998 2.06266ZM16.4998 17.5313C15.684 17.5313 14.8865 17.2894 14.2081 16.8361C13.5298 16.3829 13.0011 15.7386 12.6888 14.9849C12.3766 14.2311 12.2949 13.4018 12.4541 12.6016C12.6133 11.8014 13.0061 11.0664 13.583 10.4895C14.1599 9.91265 14.8949 9.51978 15.6951 9.36062C16.4952 9.20146 17.3246 9.28314 18.0784 9.59535C18.8321 9.90756 19.4764 10.4363 19.9296 11.1146C20.3829 11.793 20.6248 12.5905 20.6248 13.4063C20.6234 14.4999 20.1884 15.5483 19.4151 16.3216C18.6418 17.0949 17.5934 17.5299 16.4998 17.5313Z" fill="#32B5FD"/>
</svg>
