<svg width="53" height="53" viewBox="0 0 53 53" fill="none" xmlns="http://www.w3.org/2000/svg">
<g clip-path="url(#clip0_1_2492)">
<mask id="mask0_1_2492" style="mask-type:luminance" maskUnits="userSpaceOnUse" x="0" y="0" width="53" height="53">
<path d="M0 0.000152588H52.9998V53H0V0.000152588Z" fill="white"/>
</mask>
<g mask="url(#mask0_1_2492)">
<path d="M26.9841 15.9854L31.0069 18.1003C31.7704 18.5017 32.6627 17.8534 32.5169 17.0032L31.7486 12.5238C31.7201 12.3575 31.7325 12.1868 31.7846 12.0263C31.8367 11.8658 31.9271 11.7204 32.0479 11.6026L35.3024 8.4303C35.9201 7.82816 35.5793 6.77913 34.7257 6.65512L30.228 6.00163C30.061 5.97736 29.9024 5.91286 29.7659 5.81368C29.6295 5.71449 29.5191 5.5836 29.4445 5.43229L27.4331 1.35679C27.0513 0.583221 25.9483 0.583221 25.5667 1.35679L23.5552 5.43229C23.4805 5.58362 23.3702 5.71451 23.2337 5.8137C23.0972 5.91288 22.9386 5.97738 22.7717 6.00163L18.274 6.65512C17.4204 6.77913 17.0796 7.82816 17.6972 8.4303L20.9518 11.6026C21.0726 11.7204 21.163 11.8658 21.2151 12.0263C21.2673 12.1868 21.2796 12.3575 21.2511 12.5238L20.4827 17.0032C20.337 17.8534 21.2293 18.5017 21.9927 18.1003L26.0156 15.9854C26.165 15.9068 26.3312 15.8658 26.4999 15.8658C26.6686 15.8658 26.8348 15.9068 26.9841 15.9854Z" stroke="#32B5FD" stroke-width="1.5" stroke-miterlimit="10" stroke-linecap="round" stroke-linejoin="round"/>
<path d="M13.502 47.4272V43.1751C13.502 42.987 13.5767 42.8065 13.7098 42.6734C13.8428 42.5404 14.0233 42.4656 14.2114 42.4655H38.7872C38.9754 42.4656 39.1559 42.5404 39.2889 42.6734C39.422 42.8065 39.4967 42.987 39.4967 43.1751V47.4272" stroke="#32B5FD" stroke-width="1.5" stroke-miterlimit="10" stroke-linecap="round" stroke-linejoin="round"/>
<path d="M31.4381 47.4273H11.7913C11.6291 47.4273 11.4718 47.4828 11.3456 47.5847C11.2195 47.6866 11.132 47.8286 11.0977 47.9871L10.3688 51.3646C10.2734 51.8066 10.6102 52.2238 11.0623 52.2238H41.9368C42.389 52.2238 42.7257 51.8066 42.6304 51.3646L41.9014 47.9871C41.8672 47.8286 41.7797 47.6866 41.6535 47.5847C41.5273 47.4828 41.37 47.4273 41.2078 47.4273H35.1406" stroke="#32B5FD" stroke-width="1.5" stroke-miterlimit="10" stroke-linecap="round" stroke-linejoin="round"/>
<path d="M34.3167 9.39127L36.9688 8.05789C37.8135 7.63358 38.7989 8.28366 38.741 9.22658L36.6976 42.4655H16.3009L14.2824 21.1765C14.2363 20.6946 14.337 20.2101 14.5713 19.7865C14.8055 19.3629 15.1624 19.0201 15.5949 18.8029L16.9147 18.1395" stroke="#32B5FD" stroke-width="1.5" stroke-miterlimit="10" stroke-linecap="round" stroke-linejoin="round"/>
<path d="M26.5 21.8521V29.2021" stroke="#32B5FD" stroke-miterlimit="10" stroke-linecap="round" stroke-linejoin="round"/>
<path d="M22.4424 24.0492V29.8608" stroke="#32B5FD" stroke-miterlimit="10" stroke-linecap="round" stroke-linejoin="round"/>
<path d="M26.5 21.8521V32.349" stroke="#32B5FD" stroke-miterlimit="10" stroke-linecap="round" stroke-linejoin="round"/>
<path d="M30.5566 24.0492V29.8608" stroke="#32B5FD" stroke-miterlimit="10" stroke-linecap="round" stroke-linejoin="round"/>
<path d="M30.5855 39.1798H22.8102C21.8881 39.1798 21.1406 38.4322 21.1406 37.5102C21.1406 36.5882 21.8881 35.8406 22.8102 35.8406H30.5855C31.5075 35.8406 32.255 36.5882 32.255 37.5102C32.255 38.4322 31.5075 39.1798 30.5855 39.1798Z" stroke="#32B5FD" stroke-width="1.5" stroke-miterlimit="10" stroke-linecap="round" stroke-linejoin="round"/>
</g>
</g>
<defs>
<clipPath id="clip0_1_2492">
<rect width="53" height="53" fill="white"/>
</clipPath>
</defs>
</svg>
