<svg width="273" height="230" viewBox="0 0 273 230" fill="none" xmlns="http://www.w3.org/2000/svg">
<g opacity="0.3">
<path d="M0.933866 227.554C21.5021 174.01 107.827 185.688 73.1892 111.335C55.7612 69.8875 59.1513 57.3648 72.6109 41.1997C89.1771 13.7529 119.738 -12.1397 180.57 19.5393C208.897 46.1103 176.174 43.5778 220.671 78.1449C331.168 191.517 226.687 182.419 236.838 229.791" stroke="#818181" stroke-width="2"/>
<path d="M28.9048 227.555C45.5029 174.004 82.4508 192.682 54.535 118.342C40.4901 76.8998 82.8298 46.4171 93.6873 30.2475C121.598 8.55191 149.146 -17.2775 173.81 19.4793C196.647 46.0408 170.259 43.5192 206.134 78.0713C303.882 172.215 243.04 180.186 251.215 227.555" stroke="#818181" stroke-width="2"/>
</g>
</svg>
