<svg width="28" height="27" viewBox="0 0 28 27" fill="none" xmlns="http://www.w3.org/2000/svg">
<path d="M28.0004 19.8027V25.0205C28.0006 25.3941 27.8514 25.7538 27.5829 26.0272C27.3144 26.3005 26.9466 26.467 26.5537 26.4932C25.8744 26.5384 25.3196 26.561 24.8892 26.561C11.1426 26.561 0 15.9912 0 2.95123C0 2.54396 0.0238522 2.01766 0.0715566 1.37232C0.0991251 0.999645 0.274686 0.650761 0.562813 0.396068C0.850941 0.141374 1.23019 -0.000168859 1.62402 3.78612e-07H7.12455C7.3175 -0.000184945 7.50363 0.0676702 7.6468 0.190384C7.78996 0.313098 7.87993 0.48191 7.89922 0.664027C7.93448 1.00243 7.96767 1.27395 7.99878 1.47856C8.3079 3.52513 8.94144 5.5156 9.87792 7.38249C10.0257 7.67762 9.92925 8.03029 9.64925 8.21917L6.29231 10.4946C8.34523 15.031 12.1564 18.6463 16.9387 20.5937L19.3343 17.4152C19.4318 17.2849 19.5747 17.1914 19.7377 17.1511C19.9008 17.1109 20.0735 17.1266 20.2256 17.1953C22.1935 18.082 24.2912 18.6815 26.4479 18.9734C26.6636 19.0029 26.9488 19.0344 27.3035 19.0679C27.4952 19.0865 27.6728 19.172 27.8018 19.3078C27.9309 19.4436 28.0006 19.6199 28.0004 19.8027Z" fill="#32B5FD"/>
</svg>
