<svg width="12" height="14" viewBox="0 0 12 14" fill="none" xmlns="http://www.w3.org/2000/svg">
<path d="M2.41333 6.05889C3.37333 8.26 4.92 10.0567 6.80667 11.1844L8.27333 9.47333C8.45333 9.26333 8.72 9.19333 8.95333 9.28667C9.7 9.57444 10.5067 9.73 11.3333 9.73C11.7 9.73 12 10.08 12 10.5078V13.2222C12 13.65 11.7 14 11.3333 14C5.07333 14 0 8.08111 0 0.777778C0 0.35 0.3 0 0.666667 0H3C3.36667 0 3.66667 0.35 3.66667 0.777778C3.66667 1.75 3.8 2.68333 4.04667 3.55444C4.12 3.82667 4.06667 4.13 3.88 4.34778L2.41333 6.05889Z" fill="#22A8FF"/>
</svg>
