<svg width="28" height="25" viewBox="0 0 28 25" fill="none" xmlns="http://www.w3.org/2000/svg">
<path d="M28.0004 18.1266V22.9028C28.0006 23.2447 27.8514 23.574 27.5829 23.8242C27.3144 24.0744 26.9466 24.2268 26.5537 24.2508C25.8744 24.2922 25.3196 24.3129 24.8892 24.3129C11.1426 24.3129 0 14.6377 0 2.70143C0 2.32864 0.0238522 1.84688 0.0715566 1.25617C0.0991251 0.915035 0.274686 0.595681 0.562813 0.362544C0.850941 0.129408 1.23019 -0.000154567 1.62402 3.46566e-07H7.12455C7.3175 -0.000169291 7.50363 0.0619426 7.6468 0.17427C7.78996 0.286598 7.87993 0.441121 7.89922 0.607823C7.93448 0.917588 7.96767 1.16612 7.99878 1.35342C8.3079 3.22676 8.94144 5.04876 9.87792 6.75764C10.0257 7.02778 9.92925 7.3506 9.64925 7.52349L6.29231 9.6063C8.34523 13.7588 12.1564 17.068 16.9387 18.8506L19.3343 15.9412C19.4318 15.8219 19.5747 15.7363 19.7377 15.6995C19.9008 15.6627 20.0735 15.677 20.2256 15.7399C22.1935 16.5515 24.2912 17.1003 26.4479 17.3675C26.6636 17.3945 26.9488 17.4233 27.3035 17.454C27.4952 17.471 27.6728 17.5493 27.8018 17.6736C27.9309 17.7978 28.0006 17.9593 28.0004 18.1266Z" fill="#32B5FD"/>
</svg>
