<svg width="30" height="30" viewBox="0 0 30 30" fill="none" xmlns="http://www.w3.org/2000/svg">
<path d="M15.0002 1.87492C12.2661 1.87815 9.64499 2.96568 7.71171 4.89896C5.77844 6.83223 4.69091 9.45339 4.68768 12.1875C4.68517 14.4216 5.41491 16.595 6.76519 18.375C6.76519 18.375 7.04644 18.7453 7.09238 18.7987L15.0002 28.125L22.9118 18.794C22.953 18.7443 23.2352 18.375 23.2352 18.375L23.2362 18.3722C24.5855 16.5929 25.3149 14.4205 25.3127 12.1875C25.3095 9.45339 24.222 6.83223 22.2887 4.89896C20.3554 2.96568 17.7343 1.87815 15.0002 1.87492ZM15.0002 15.9375C14.2585 15.9375 13.5335 15.7175 12.9168 15.3055C12.3001 14.8934 11.8195 14.3077 11.5357 13.6225C11.2518 12.9373 11.1776 12.1833 11.3223 11.4559C11.4669 10.7284 11.8241 10.0602 12.3486 9.53579C12.873 9.01134 13.5412 8.65419 14.2686 8.5095C14.996 8.3648 15.7501 8.43906 16.4353 8.72289C17.1205 9.00672 17.7062 9.48737 18.1182 10.1041C18.5303 10.7207 18.7502 11.4458 18.7502 12.1875C18.749 13.1816 18.3535 14.1347 17.6505 14.8377C16.9475 15.5407 15.9944 15.9362 15.0002 15.9375Z" fill="#32B5FD"/>
</svg>
