<svg width="99" height="85" viewBox="0 0 99 85" fill="none" xmlns="http://www.w3.org/2000/svg">
<path d="M18.5017 0.25046H0.468634C10.2907 14.9251 19.7529 20.5153 41.8518 28.5587C61.9269 35.31 69.1314 42.9393 79.6139 58.858C72.6353 44.7562 70.0022 36.6744 44.9555 25.0817C30.9431 17.34 25.5199 12.2814 18.5017 0.25046Z" fill="#D61F26" stroke="#D61F26" stroke-width="0.5"/>
<path d="M98.1479 63.8672V84.9058C84.656 51.6726 75.3644 39.638 57.5734 27.801C74.4335 35.7034 83.2929 40.2172 98.1479 63.8672Z" fill="#D61F26" stroke="#D61F26" stroke-width="0.5"/>
<path d="M63.0684 26.551C79.5735 33.242 86.659 39.8603 97.647 53.8488V17.7826C97.647 8.76609 88.6304 0.751379 80.1148 0.25046H29.522C37.7736 14.2328 45.6011 19.3166 63.0684 26.551Z" fill="#33B5FF" stroke="#33B5FF" stroke-width="0.5"/>
</svg>
