<svg width="50" height="50" viewBox="0 0 50 50" fill="none" xmlns="http://www.w3.org/2000/svg">
<path d="M48.9211 27.2953C47.8875 25.9125 46.2313 25.1281 44.1297 25.0242C43.731 25.008 43.3317 25.0134 42.9336 25.0406C42.3234 25.0867 41.3734 25.6117 41.1703 26.6383C41.0266 27.368 40.807 28.2133 40.5945 29.0312C40.3984 29.7844 40.1961 30.5633 40.0484 31.2687C39.8289 32.3125 40.2773 32.8695 40.7453 33.2766C40.7648 33.293 40.7867 33.3102 40.8078 33.3258L41.8266 34.0438C41.5188 35.3516 40.7664 36.5766 40.0516 37.6211C39.3617 38.6297 38.4438 39.8539 37.3102 40.6656C37.3102 40.6656 36.2078 39.9781 36.1813 39.9656C35.3914 39.5883 34.7555 39.6328 34.0578 40.1133C33.6039 40.4258 33.1203 40.7805 32.6273 41.1414C31.7859 41.7578 30.9164 42.3953 30.1438 42.8602C29.2203 43.418 29.0945 44.5156 29.2984 45.1117C29.443 45.5469 29.5781 45.893 29.7203 46.1906C30.8281 48.6125 32.7531 50 35 50C36.318 50 37.6781 49.5195 38.9367 48.6086C42.2094 46.225 43.6719 44.4828 45.7094 41.4773C46.0898 40.9148 46.4383 40.4 46.7555 39.8937C48.2359 37.5469 49.0234 35.6406 49.7672 32.6063C50.2594 30.5688 49.9594 28.6836 48.9211 27.2953ZM48.2492 32.2359C47.4578 35.4648 46.6172 37.1828 45.4336 39.0602L45.432 39.0625C45.1234 39.5547 44.7859 40.0555 44.4164 40.6008C42.4461 43.5063 41.1211 45.0844 38.0195 47.3445C37.0297 48.0594 35.9867 48.4375 35 48.4375C33.3664 48.4375 31.9953 47.4094 31.1359 45.5312C30.9995 45.2365 30.8813 44.9335 30.782 44.6242C30.7813 44.6219 30.7398 44.3266 30.95 44.2C31.782 43.6984 32.6813 43.0406 33.5508 42.4031C34.0313 42.0508 34.5023 41.7047 34.943 41.4016C35.0633 41.3188 35.35 41.3031 35.4688 41.3578L36.9063 42.2555C37.1555 42.4117 37.4711 42.4133 37.7234 42.2633C39.2977 41.3164 40.4836 39.7563 41.3406 38.5031C42.2398 37.1891 43.1953 35.6039 43.4609 33.8086C43.4822 33.6655 43.4632 33.5193 43.4063 33.3863C43.3493 33.2534 43.2565 33.1388 43.1383 33.0555L41.7422 32.0711C41.5242 31.8789 41.5242 31.8453 41.5781 31.5891C41.7383 30.8635 41.9149 30.1417 42.1078 29.4242C42.3266 28.5844 42.5523 27.7148 42.7055 26.9398C42.7484 26.7234 43.0008 26.6078 43.0422 26.5984C43.4242 26.5758 43.7555 26.5695 44.0578 26.5836C45.6758 26.6633 46.9258 27.232 47.6719 28.2297C48.4242 29.2398 48.6297 30.6625 48.2492 32.2359ZM26.8008 20.532C26.7758 20.5555 26.1867 21.0938 25 21.0938C23.8133 21.0938 23.2242 20.5555 23.2086 20.5414C23.1361 20.4689 23.05 20.4113 22.9552 20.3721C22.8604 20.3328 22.7588 20.3126 22.6563 20.3126C22.5537 20.3126 22.4521 20.3328 22.3573 20.3721C22.2626 20.4113 22.1764 20.4689 22.1039 20.5414C22.0314 20.6139 21.9738 20.7001 21.9346 20.7948C21.8953 20.8896 21.8751 20.9912 21.8751 21.0938C21.8751 21.1963 21.8953 21.2979 21.9346 21.3927C21.9738 21.4874 22.0314 21.5736 22.1039 21.6461C22.207 21.75 23.1664 22.6562 25 22.6562C26.8336 22.6562 27.793 21.75 27.8961 21.6461C28.0402 21.5015 28.1216 21.3059 28.1224 21.1017C28.1233 20.8976 28.0437 20.7013 27.9008 20.5555C27.757 20.4084 27.5612 20.3235 27.3556 20.3192C27.1499 20.3148 26.9507 20.3912 26.8008 20.532ZM25 19.4922C25.2072 19.4922 25.4059 19.4099 25.5524 19.2634C25.6989 19.1169 25.7813 18.9181 25.7813 18.7109V16.4062C25.7813 16.199 25.6989 16.0003 25.5524 15.8538C25.4059 15.7073 25.2072 15.625 25 15.625C24.7928 15.625 24.5941 15.7073 24.4476 15.8538C24.3011 16.0003 24.2188 16.199 24.2188 16.4062V18.7109C24.2188 18.9181 24.3011 19.1169 24.4476 19.2634C24.5941 19.4099 24.7928 19.4922 25 19.4922ZM46.0938 43.75C45.8866 43.75 45.6878 43.8323 45.5413 43.9788C45.3948 44.1253 45.3125 44.324 45.3125 44.5312V48.4375H42.1875C41.9803 48.4375 41.7816 48.5198 41.6351 48.6663C41.4886 48.8128 41.4063 49.0116 41.4063 49.2188C41.4063 49.4259 41.4886 49.6247 41.6351 49.7712C41.7816 49.9177 41.9803 50 42.1875 50H46.0938C46.301 50 46.4997 49.9177 46.6462 49.7712C46.7927 49.6247 46.875 49.4259 46.875 49.2188V44.5312C46.875 44.324 46.7927 44.1253 46.6462 43.9788C46.4997 43.8323 46.301 43.75 46.0938 43.75Z" fill="#33B6FF"/>
<path d="M27.1344 40.2219C28.2625 40.7867 29.5672 40.8047 30.7125 40.2687C31.8578 39.7328 32.6813 38.7219 32.9719 37.4914L34.468 31.1352L37.2414 32.107C37.4347 32.1675 37.6439 32.1505 37.825 32.0597C38.006 31.9688 38.1447 31.8112 38.2117 31.6201C38.2788 31.429 38.2691 31.2193 38.1845 31.0353C38.1 30.8512 37.9473 30.7072 37.7586 30.6336L31.25 28.3516V24.9562C31.268 24.9398 32.8516 23.7328 33.5086 21.875C33.5086 21.875 35.2836 21.8672 35.3453 21.8516C35.4977 21.8141 39.0625 20.8625 39.0625 15.625C39.0625 10.3875 35.4977 9.43594 35.3453 9.39844C35.2836 9.38281 35.0195 9.375 35.0195 9.375C34.5938 6.46797 32.7695 0 25 0C17.2313 0 15.4063 6.46719 14.9805 9.375C14.9805 9.375 14.7164 9.38281 14.6547 9.39844C14.5024 9.43594 10.9375 10.3875 10.9375 15.625C10.9375 19.3078 12.6969 20.8672 13.7961 21.4844C13.4797 22.2844 13.1422 23.5742 13.5641 24.8273C13.9367 25.932 14.7945 26.7602 16.1164 27.2883C16.3089 27.3652 16.5241 27.3624 16.7145 27.2807C16.905 27.1989 17.0552 27.0448 17.132 26.8523C17.2089 26.6599 17.2062 26.4447 17.1244 26.2542C17.0427 26.0638 16.8886 25.9136 16.6961 25.8367C15.8102 25.4828 15.2703 24.9906 15.0469 24.3336C14.7391 23.4297 15.0883 22.4117 15.3281 21.875H16.4945C17.0278 23.0401 17.7956 24.0826 18.75 24.9375V28.3516L10.2828 31.3172C9.16879 31.7028 8.12844 32.275 7.20627 33.0094L7.18986 33.0234L7.18517 33.0258L7.18205 33.0297C5.91526 34.0272 4.89178 35.2996 4.18894 36.7508C3.4861 38.2019 3.1223 39.7939 3.12502 41.4062V49.2188C3.12502 49.4259 3.20733 49.6247 3.35384 49.7712C3.50035 49.9177 3.69906 50 3.90627 50H28.125C28.3322 50 28.5309 49.9177 28.6774 49.7712C28.824 49.6247 28.9063 49.4259 28.9063 49.2188C28.9063 49.0116 28.824 48.8128 28.6774 48.6663C28.5309 48.5198 28.3322 48.4375 28.125 48.4375H25.7813V39.5453L27.1344 40.2219ZM20.3125 26.0852C21.7381 26.9074 23.3543 27.3413 25 27.3438C26.6477 27.3438 28.2649 26.9031 29.6875 26.0844V28.6945L25 36.7313L20.3125 28.6945V26.0852ZM32.9844 30.6156L31.4508 37.1328C31.3636 37.5071 31.1921 37.8566 30.9495 38.1547C30.7069 38.4528 30.3996 38.6917 30.0508 38.8531C29.7032 39.0165 29.323 39.0989 28.9389 39.0938C28.5548 39.0888 28.1769 38.9966 27.8336 38.8242L26.0953 37.9547L30.8195 29.8562L32.9844 30.6156ZM37.4625 14.8438H36.7188C36.5116 14.8438 36.3129 14.9261 36.1663 15.0726C36.0198 15.2191 35.9375 15.4178 35.9375 15.625C35.9375 15.8322 36.0198 16.0309 36.1663 16.1774C36.3129 16.3239 36.5116 16.4062 36.7188 16.4062H37.4625C37.1945 19.3867 35.4289 20.175 35.0399 20.3125H34.0813C34.2031 19.8438 34.2922 19.3625 34.3399 18.8695L34.6367 16.0258L34.6375 16.025L35.1531 11.0172L35.1547 10.9828C35.7016 11.2148 37.2156 12.1008 37.4625 14.8438ZM25 1.5625C31.9711 1.5625 33.3024 7.62422 33.5508 10.2297C33.5836 10.5789 33.5914 10.8156 33.593 10.9023L33.2695 14.0258C32.6352 13.082 32.0313 11.768 32.0313 10.1562C32.0313 9.94905 31.949 9.75034 31.8024 9.60382C31.6559 9.45731 31.4572 9.375 31.25 9.375C31.2016 9.375 26.4149 9.3375 25.7656 6.09687C25.7298 5.92027 25.634 5.76149 25.4944 5.64744C25.3549 5.53339 25.1802 5.47109 25 5.47109C24.8198 5.47109 24.6451 5.53339 24.5056 5.64744C24.3661 5.76149 24.2703 5.92027 24.2344 6.09687C23.5883 9.32266 18.7977 9.375 18.7485 9.375C18.5416 9.37562 18.3434 9.45818 18.1973 9.6046C18.0511 9.75103 17.969 9.94938 17.9688 10.1562C17.9688 11.768 17.3649 13.082 16.7297 14.0258L16.407 10.9023C16.4086 10.8156 16.4164 10.5789 16.4492 10.2305C16.6977 7.62422 18.0289 1.5625 25 1.5625ZM12.5375 16.4062H13.2813C13.4885 16.4062 13.6872 16.3239 13.8337 16.1774C13.9802 16.0309 14.0625 15.8322 14.0625 15.625C14.0625 15.4178 13.9802 15.2191 13.8337 15.0726C13.6872 14.9261 13.4885 14.8438 13.2813 14.8438H12.5375C12.7852 12.093 14.3063 11.2094 14.8461 10.9828L14.8477 11.018L15.6602 18.8648C15.7085 19.3537 15.7953 19.838 15.9195 20.3133H14.9625C14.5594 20.1695 12.8055 19.3758 12.5375 16.4062ZM17.7172 20.8023C17.4505 20.1317 17.281 19.4264 17.2141 18.7078L16.9578 16.2297C17.8227 15.3281 19.2578 13.4742 19.4969 10.8953C20.8281 10.7688 23.5844 10.2609 25 8.22812C26.4156 10.2617 29.1719 10.7688 30.5031 10.8953C30.7422 13.4742 32.1774 15.3281 33.0422 16.2297L32.7852 18.7133C32.7141 19.4477 32.5008 20.1344 32.2797 20.8117C31.6391 22.768 30.057 23.9266 29.9735 23.9984C28.5727 25.1477 26.807 25.7812 25 25.7812C23.193 25.7812 21.4274 25.1477 20.0289 23.9992C18.996 23.1504 18.1997 22.0492 17.7172 20.8023ZM19.1813 29.857L23.9055 37.9555L22.1672 38.825C21.8241 38.9978 21.4461 39.0901 21.0619 39.0951C20.6778 39.1002 20.2975 39.0177 19.95 38.8539C19.6013 38.6923 19.294 38.4534 19.0514 38.1554C18.8088 37.8573 18.6374 37.5079 18.55 37.1336L17.0156 30.6156L19.1813 29.857ZM4.68752 41.4062C4.68752 39.5023 5.26955 37.6766 6.37189 36.1227C6.72345 35.6258 7.1422 35.1813 7.58986 34.7641C8.85705 36.4648 10.1563 38.9867 10.1563 42.1875V48.4375H4.68752V41.4062ZM18.75 48.4375H11.7188V46.0938H18.75V48.4375ZM20.3125 48.4375V45.3125C20.3125 45.1053 20.2302 44.9066 20.0837 44.7601C19.9372 44.6136 19.7385 44.5312 19.5313 44.5312H11.7188V42.1875C11.7188 38.5336 10.2344 35.6844 8.80314 33.7797C9.42422 33.368 10.0946 33.036 10.7985 32.7914L15.5328 31.1344L17.0289 37.4914C17.1701 38.0954 17.447 38.6594 17.8384 39.1406C18.2299 39.6217 18.7257 40.0075 19.2883 40.2687C19.8331 40.5249 20.4277 40.658 21.0297 40.6586C21.6586 40.6586 22.2852 40.5125 22.8672 40.2219L24.2188 39.5453V48.4375H20.3125Z" fill="#33B6FF"/>
<path d="M22.2656 14.8438C22.9128 14.8438 23.4375 14.3191 23.4375 13.6719C23.4375 13.0247 22.9128 12.5 22.2656 12.5C21.6184 12.5 21.0938 13.0247 21.0938 13.6719C21.0938 14.3191 21.6184 14.8438 22.2656 14.8438Z" fill="#33B6FF"/>
<path d="M27.7344 14.8438C28.3816 14.8438 28.9062 14.3191 28.9062 13.6719C28.9062 13.0247 28.3816 12.5 27.7344 12.5C27.0872 12.5 26.5625 13.0247 26.5625 13.6719C26.5625 14.3191 27.0872 14.8438 27.7344 14.8438Z" fill="#33B6FF"/>
</svg>
