<svg width="48" height="48" viewBox="0 0 48 48" fill="none" xmlns="http://www.w3.org/2000/svg">
<g clip-path="url(#clip0_1_540)">
<path d="M34.677 30.2775H27.4958C26.8463 30.2775 26.6348 30.0593 26.5658 29.988C26.1375 29.547 26.1083 28.4535 26.1405 27.3375L26.2725 22.7468C26.2875 22.2862 26.2091 21.8273 26.042 21.3979C25.875 20.9684 25.6228 20.5772 25.3005 20.2478C24.9806 19.9161 24.5968 19.6526 24.1724 19.4732C23.7479 19.2938 23.2916 19.2021 22.8308 19.2038H20.613V19.9538C20.613 24.159 18.8648 26.8868 17.823 28.1385C17.6128 28.3887 17.3499 28.5895 17.0532 28.7264C16.7564 28.8633 16.4331 28.933 16.1063 28.9305H14.4983C14.4621 28.3617 14.2111 27.828 13.7961 27.4374C13.3811 27.0467 12.8332 26.8285 12.2633 26.8268H9.1665V25.725H1.5V47.3378H9.1665V46.2375H12.264C12.8339 46.2358 13.3819 46.0175 13.7969 45.6269C14.2119 45.2363 14.4628 44.7025 14.499 44.1338H16.656C16.815 44.1338 16.965 44.196 17.0775 44.3085L17.964 45.195C18.283 45.5158 18.6625 45.7702 19.0806 45.9434C19.4986 46.1165 19.9468 46.205 20.3993 46.2038H30.6368C31.9905 46.2038 33.1515 45.1965 33.2805 43.911C33.333 43.386 33.222 42.8633 32.9715 42.411C33.864 42.063 34.5315 41.2605 34.6268 40.305C34.6789 39.7854 34.5716 39.2622 34.3193 38.805C35.211 38.4563 35.8778 37.6538 35.9738 36.6975C36.0249 36.1865 35.9217 35.6718 35.6775 35.22C36.0548 35.0783 36.3975 34.848 36.6735 34.5435C36.9129 34.2778 37.094 33.965 37.2054 33.6252C37.3167 33.2854 37.3557 32.9261 37.32 32.5703C37.1918 31.284 36.0308 30.2775 34.677 30.2775ZM13.0133 43.9875C13.0133 44.4008 12.6765 44.7375 12.2633 44.7375H9.1665V42.9908H7.6665V45.8385H3V27.225H4.58325V33.432H6.08325V27.225H7.6665V41.0183H9.1665V28.3275H12.264C12.6765 28.3275 13.014 28.6643 13.014 29.0775L13.0133 43.9875ZM35.5613 33.537C35.3588 33.7605 35.0813 33.8835 34.7805 33.8835H28.95V35.3835H33.4335C33.7343 35.3835 34.0125 35.5073 34.215 35.7308C34.4175 35.9543 34.5113 36.2445 34.4813 36.5483C34.4288 37.077 33.9225 37.491 33.33 37.491H28.95V38.991H32.0865C32.388 38.991 32.6655 39.114 32.868 39.3375C33.0705 39.561 33.165 39.8513 33.1343 40.155C33.0818 40.683 32.5763 41.097 31.9838 41.097H28.2765V42.597H30.7403C31.0418 42.597 31.3185 42.72 31.521 42.9443C31.7235 43.167 31.818 43.458 31.7873 43.7618C31.7348 44.2898 31.2293 44.7038 30.6375 44.7038H20.3993C19.8795 44.7038 19.3913 44.5013 19.0245 44.1345L18.138 43.2473C17.9438 43.0522 17.7128 42.8975 17.4584 42.7922C17.204 42.6869 16.9313 42.633 16.656 42.6338H14.5125V30.4305H16.1055C16.6522 30.4332 17.1928 30.3152 17.6887 30.0849C18.1845 29.8547 18.6235 29.5179 18.9743 29.0985C20.0828 27.7673 21.9008 24.96 22.095 20.7038H22.83C23.0902 20.7028 23.3478 20.7546 23.5874 20.8559C23.827 20.9572 24.0437 21.106 24.2243 21.2933C24.406 21.4792 24.5483 21.6999 24.6425 21.9422C24.7367 22.1845 24.7809 22.4434 24.7725 22.7033L24.6398 27.2948C24.5993 28.7025 24.6323 30.1508 25.4888 31.0328C25.9688 31.5263 26.6438 31.7768 27.495 31.7768H34.6763C35.2688 31.7768 35.7743 32.1908 35.8268 32.7195C35.8568 33.0233 35.7638 33.3135 35.5613 33.537Z" fill="#33B6FF"/>
<path d="M4.58325 34.3215H6.08325V35.6603H4.58325V34.3215ZM18.8647 16.4647L24 12.7335L29.1352 16.4647L27.1732 10.4288L32.3085 6.6975H25.9612L24 0.661499L22.0387 6.6975H15.6915L20.8267 10.4288L18.8647 16.4647ZM20.3085 8.1975H23.1285L24 5.5155L24.8715 8.1975H27.6915L25.41 9.855L26.2815 12.5377L24 10.8802L21.7185 12.5377L22.59 9.85575L20.3085 8.1975ZM48.0585 12.15H41.7112L39.75 6.11475L37.7887 12.15H31.4415L36.5767 15.8812L34.6147 21.9172L39.75 18.1875L44.8852 21.918L42.9232 15.882L48.0585 12.15ZM39.75 16.3328L37.4685 17.9902L38.34 15.3082L36.0585 13.6508H38.8785L39.75 10.9672L40.6215 13.6493H43.4415L41.16 15.3068L42.0315 17.9895L39.75 16.3328ZM3.11475 21.9172L8.25 18.1875L13.3852 21.918L11.4232 15.882L16.5585 12.1508H10.2112L8.25 6.11475L6.28875 12.15H-0.0585022L5.07675 15.8812L3.11475 21.9172ZM4.5585 13.65H7.3785L8.25 10.968L9.1215 13.65H11.9415L9.66 15.3075L10.5315 17.9902L8.25 16.3328L5.9685 17.9902L6.84 15.3082L4.5585 13.65Z" fill="#33B6FF"/>
</g>
<defs>
<clipPath id="clip0_1_540">
<rect width="48" height="48" fill="white"/>
</clipPath>
</defs>
</svg>
