<svg width="29" height="27" viewBox="0 0 29 27" fill="none" xmlns="http://www.w3.org/2000/svg">
<path d="M28.5785 20.1301V25.4342C28.5787 25.814 28.4264 26.1797 28.1523 26.4575C27.8783 26.7353 27.5029 26.9046 27.1019 26.9312C26.4086 26.9772 25.8423 27.0002 25.4031 27.0002C11.3726 27.0002 0 16.2556 0 3.00002C0 2.58602 0.0243446 2.05102 0.0730339 1.39501C0.101172 1.01617 0.280357 0.661521 0.574433 0.402616C0.868509 0.143711 1.25558 -0.000171651 1.65755 3.84872e-07H7.27163C7.46857 -0.000188003 7.65855 0.0687891 7.80467 0.193532C7.95079 0.318275 8.04261 0.489878 8.0623 0.675005C8.09829 1.01901 8.13216 1.29501 8.16392 1.50301C8.47942 3.58342 9.12604 5.6068 10.0818 7.50456C10.2327 7.80456 10.1342 8.16306 9.84846 8.35506L6.42222 10.6681C8.51752 15.2795 12.4074 18.9546 17.2884 20.9342L19.7334 17.7031C19.833 17.5707 19.9788 17.4756 20.1452 17.4347C20.3116 17.3938 20.488 17.4097 20.6432 17.4796C22.6516 18.381 24.7927 18.9903 26.994 19.2871C27.2141 19.3171 27.5052 19.3491 27.8672 19.3831C28.0628 19.4021 28.2441 19.489 28.3758 19.627C28.5075 19.765 28.5787 19.9443 28.5785 20.1301Z" fill="#32B5FD"/>
</svg>
