<svg width="53" height="53" viewBox="0 0 53 53" fill="none" xmlns="http://www.w3.org/2000/svg">
<g clip-path="url(#clip0_1_550)">
<mask id="mask0_1_550" style="mask-type:luminance" maskUnits="userSpaceOnUse" x="0" y="0" width="53" height="53">
<path d="M0 0.000152588H52.9998V53H0V0.000152588Z" fill="white"/>
</mask>
<g mask="url(#mask0_1_550)">
<path d="M26.9841 15.9854L31.0069 18.1004C31.7704 18.5018 32.6627 17.8535 32.5169 17.0033L31.7486 12.5239C31.7201 12.3576 31.7325 12.1868 31.7846 12.0264C31.8367 11.8659 31.9271 11.7205 32.0479 11.6027L35.3024 8.43036C35.9201 7.82822 35.5793 6.77919 34.7257 6.65518L30.228 6.00169C30.061 5.97742 29.9024 5.91292 29.7659 5.81374C29.6295 5.71455 29.5191 5.58367 29.4445 5.43235L27.4331 1.35685C27.0513 0.583282 25.9483 0.583282 25.5667 1.35685L23.5552 5.43235C23.4805 5.58368 23.3702 5.71457 23.2337 5.81376C23.0972 5.91294 22.9386 5.97744 22.7717 6.00169L18.274 6.65518C17.4204 6.77919 17.0796 7.82822 17.6972 8.43036L20.9518 11.6027C21.0726 11.7205 21.163 11.8659 21.2151 12.0263C21.2673 12.1868 21.2796 12.3576 21.2511 12.5239L20.4827 17.0033C20.337 17.8535 21.2293 18.5018 21.9927 18.1004L26.0156 15.9854C26.165 15.9069 26.3312 15.8659 26.4999 15.8659C26.6686 15.8659 26.8348 15.9069 26.9841 15.9854Z" stroke="#32B5FD" stroke-width="1.5" stroke-miterlimit="10" stroke-linecap="round" stroke-linejoin="round"/>
<path d="M13.5026 47.4272V43.1751C13.5026 42.987 13.5773 42.8065 13.7104 42.6734C13.8434 42.5404 14.0239 42.4656 14.2121 42.4655H38.7878C38.976 42.4656 39.1565 42.5404 39.2895 42.6734C39.4226 42.8065 39.4973 42.987 39.4973 43.1751V47.4272" stroke="#32B5FD" stroke-width="1.5" stroke-miterlimit="10" stroke-linecap="round" stroke-linejoin="round"/>
<path d="M31.4384 47.4273H11.7916C11.6295 47.4273 11.4722 47.4828 11.346 47.5847C11.2198 47.6866 11.1323 47.8286 11.0981 47.9871L10.3691 51.3646C10.2738 51.8066 10.6105 52.2238 11.0627 52.2238H41.9372C42.3893 52.2238 42.7261 51.8066 42.6307 51.3646L41.9018 47.9871C41.8675 47.8286 41.78 47.6866 41.6538 47.5847C41.5277 47.4828 41.3704 47.4273 41.2082 47.4273H35.141" stroke="#32B5FD" stroke-width="1.5" stroke-miterlimit="10" stroke-linecap="round" stroke-linejoin="round"/>
<path d="M34.3175 9.39127L36.9695 8.05789C37.8142 7.63358 38.7997 8.28366 38.7417 9.22658L36.6983 42.4655H16.3016L14.2831 21.1765C14.2371 20.6946 14.3378 20.2101 14.572 19.7865C14.8063 19.3629 15.1631 19.0201 15.5957 18.8029L16.9154 18.1395" stroke="#32B5FD" stroke-width="1.5" stroke-miterlimit="10" stroke-linecap="round" stroke-linejoin="round"/>
<path d="M26.4999 21.8521V29.2021" stroke="#32B5FD" stroke-miterlimit="10" stroke-linecap="round" stroke-linejoin="round"/>
<path d="M22.4425 24.0492V29.8608" stroke="#32B5FD" stroke-miterlimit="10" stroke-linecap="round" stroke-linejoin="round"/>
<path d="M26.4999 21.8521V32.349" stroke="#32B5FD" stroke-miterlimit="10" stroke-linecap="round" stroke-linejoin="round"/>
<path d="M30.5574 24.0492V29.8608" stroke="#32B5FD" stroke-miterlimit="10" stroke-linecap="round" stroke-linejoin="round"/>
<path d="M30.5858 39.1798H22.8106C21.8885 39.1798 21.141 38.4322 21.141 37.5102C21.141 36.5882 21.8885 35.8406 22.8106 35.8406H30.5858C31.5078 35.8406 32.2553 36.5882 32.2553 37.5102C32.2553 38.4322 31.5078 39.1798 30.5858 39.1798Z" stroke="#32B5FD" stroke-width="1.5" stroke-miterlimit="10" stroke-linecap="round" stroke-linejoin="round"/>
</g>
</g>
<defs>
<clipPath id="clip0_1_550">
<rect width="53" height="53" fill="white"/>
</clipPath>
</defs>
</svg>
