<svg width="118" height="118" viewBox="0 0 118 118" fill="none" xmlns="http://www.w3.org/2000/svg">
<path opacity="0.42" d="M97.7833 68.8917C106.372 68.8917 113.335 61.9288 113.335 53.3396C113.335 44.7505 106.372 37.7876 97.7833 37.7876C89.1941 37.7876 82.2313 44.7505 82.2313 53.3396C82.2313 61.9288 89.1941 68.8917 97.7833 68.8917Z" fill="#4DD0E1"/>
<path d="M96.0686 42.5444C96.7231 43.9088 94.6397 45.6419 93.8285 46.7205C91.7174 49.5322 92.8144 51.7171 91.238 54.2799C90.0488 56.2066 86.2783 57.5341 85.5685 52.8233C85.126 49.8733 86.9697 46.5361 88.2235 45.1718C92.3811 40.6546 95.5247 41.4197 96.0686 42.5444Z" fill="white"/>
<path d="M97.7833 70.2652C88.4447 70.2652 80.8484 62.6689 80.8484 53.3304C80.8484 43.9918 88.4447 36.3955 97.7833 36.3955C107.122 36.3955 114.718 43.9918 114.718 53.3304C114.718 62.6689 107.113 70.2652 97.7833 70.2652ZM97.4606 38.7924C89.4403 38.7924 82.9135 45.3193 82.9135 53.3396C82.9135 61.3599 89.4403 67.8868 97.4606 67.8868C105.481 67.8868 112.008 61.3599 112.008 53.3396C112.008 45.3193 105.49 38.7924 97.4606 38.7924Z" fill="#4DC6E1"/>
<path opacity="0.42" d="M82.2957 112.026C93.3186 112.026 102.254 103.09 102.254 92.0675C102.254 81.0447 93.3186 72.1089 82.2957 72.1089C71.2729 72.1089 62.3372 81.0447 62.3372 92.0675C62.3372 103.09 71.2729 112.026 82.2957 112.026Z" fill="#4DD0E1"/>
<path d="M82.2957 113.87C70.2745 113.87 60.4934 104.089 60.4934 92.0675C60.4934 80.0462 70.2745 70.2651 82.2957 70.2651C94.317 70.2651 104.098 80.0462 104.098 92.0675C104.098 104.089 94.317 113.87 82.2957 113.87ZM82.8489 72.9294C72.2289 72.9294 63.5909 81.5673 63.5909 92.1873C63.5909 102.807 72.2289 111.445 82.8489 111.445C93.4689 111.445 102.107 102.807 102.107 92.1873C102.107 81.5673 93.4689 72.9294 82.8489 72.9294Z" fill="#4DC6E1"/>
<path opacity="0.7" d="M77.456 76.8016C81.5122 76.5251 82.9135 79.4197 81.9086 81.7152C80.618 84.6652 77.6127 83.6143 74.9669 86.4813C73.1416 88.4633 69.242 90.6113 68.6981 86.2324C68.2188 82.3605 72.5055 77.1427 77.456 76.8016Z" fill="white"/>
<path d="M89.1638 82.0469C91.6067 82.0377 91.9017 79.2905 90.5927 77.8247C89.0808 75.5661 84.0197 75.8058 85.2182 79.5302C85.7436 81.1711 86.7024 82.0561 89.1638 82.0469Z" fill="white"/>
<path opacity="0.42" d="M39.5945 75.8057C59.1301 75.8057 74.9669 59.969 74.9669 40.4334C74.9669 20.8978 59.1301 5.06104 39.5945 5.06104C20.0589 5.06104 4.22217 20.8978 4.22217 40.4334C4.22217 59.969 20.0589 75.8057 39.5945 75.8057Z" fill="#4DD0E1"/>
<path opacity="0.7" d="M35.5475 13.5793C39.5945 14.9713 40.6639 18.585 39.4194 21.6733C38.2762 24.5127 33.9803 25.7941 31.2884 27.2599C27.1861 29.4816 24.2084 32.3671 21.9867 36.4694C19.8387 40.4335 14.0494 42.0375 13.2566 36.2758C12.6389 31.7678 15.4414 25.3516 18.0687 22.0605C20.3919 19.1566 23.5816 16.5661 26.9187 14.9068C29.2695 13.7452 32.9939 12.7035 35.5475 13.5793Z" fill="white"/>
<path d="M54.3814 15.6167C56.0408 17.018 56.2344 19.59 53.9389 20.392C52.9156 20.6778 51.8462 20.2169 50.7861 20.1431C48.6289 19.9956 47.7347 20.7608 45.8909 19.9772C43.1437 18.7972 42.0098 16.4188 43.3189 14.4644C43.9642 13.5056 45.1903 13.017 46.2781 12.805C49.2281 12.2334 52.3072 13.5333 54.3814 15.6167Z" fill="white"/>
<path d="M40.0555 77.6494C19.7834 77.6494 3.29108 61.1571 3.29108 40.885C3.29108 20.613 19.7834 4.12988 40.0555 4.12988C60.3275 4.12988 76.8198 20.6222 76.8198 40.8943C76.8198 61.1663 60.3183 77.6494 40.0555 77.6494ZM40.627 8.0202C22.1342 8.0202 7.09842 23.056 7.09842 41.5488C7.09842 60.0416 22.1434 75.0774 40.627 75.0774C59.1106 75.0774 74.1556 60.0324 74.1556 41.5488C74.1556 23.0652 59.1106 8.0202 40.627 8.0202Z" fill="#4DC6E1"/>
<path d="M66.4211 46.5549C63.4803 45.6976 63.591 48.8596 60.4935 53.9023C58.4285 57.2579 54.0772 61.6183 46.9972 63.3607C42.8303 64.384 40.9589 65.2597 40.8391 66.7901C40.6271 69.399 44.1763 70.0996 49.3296 68.7537C62.9917 65.2044 72.6622 48.371 66.4211 46.5549ZM97.3777 96.7602C95.1283 95.9951 95.663 99.4613 91.2196 102.586C86.4811 105.924 83.6141 105.122 83.4482 107.011C83.273 109.03 88.205 109.021 93.3399 105.195C97.7925 101.895 99.6547 97.5346 97.3777 96.7602ZM110.053 55.1744C110.588 52.3443 109.915 46.3982 107.048 48.2972C105.896 49.0624 107.712 52.3351 107.159 55.1468C106.421 58.9172 105.02 60.8901 101.72 63.2408C100.964 63.7755 101.369 64.7712 102.798 64.2549C106.569 62.8997 109.132 60.0972 110.053 55.1744Z" fill="white"/>
</svg>
