<svg width="62" height="62" viewBox="0 0 62 62" fill="none" xmlns="http://www.w3.org/2000/svg">
<g clip-path="url(#clip0_1_574)">
<path d="M40.3144 25.0143C40.3144 16.578 33.4508 9.71438 25.0145 9.71438C16.578 9.71438 9.71438 16.578 9.71438 25.0143C9.71438 33.4508 16.578 40.3144 25.0145 40.3144C33.4508 40.3144 40.3144 33.4508 40.3144 25.0143ZM25.0145 38.3769C17.6463 38.3769 11.6519 32.3825 11.6519 25.0143C11.6519 17.6463 17.6463 11.6519 25.0145 11.6519C32.3825 11.6519 38.3769 17.6463 38.3769 25.0143C38.3769 32.3825 32.3825 38.3769 25.0145 38.3769ZM24.0457 14.841V13.604C24.0457 13.3471 24.1478 13.1007 24.3294 12.919C24.5111 12.7373 24.7575 12.6353 25.0145 12.6353C25.2714 12.6353 25.5178 12.7373 25.6995 12.919C25.8811 13.1007 25.9832 13.3471 25.9832 13.604V14.841C25.9832 15.0979 25.8811 15.3443 25.6995 15.526C25.5178 15.7077 25.2714 15.8098 25.0145 15.8098C24.7575 15.8098 24.5111 15.7077 24.3294 15.526C24.1478 15.3443 24.0457 15.0979 24.0457 14.841ZM33.7678 16.261C33.8578 16.3509 33.9292 16.4577 33.9779 16.5752C34.0265 16.6928 34.0516 16.8188 34.0516 16.946C34.0516 17.0732 34.0265 17.1992 33.9779 17.3167C33.9292 17.4343 33.8578 17.5411 33.7678 17.631L32.8932 18.5057C32.704 18.6948 32.4562 18.7894 32.2082 18.7894C31.9602 18.7894 31.7123 18.6948 31.5231 18.5057C31.4332 18.4157 31.3618 18.3089 31.3131 18.1914C31.2644 18.0738 31.2394 17.9479 31.2394 17.8206C31.2394 17.6934 31.2644 17.5674 31.3131 17.4499C31.3618 17.3324 31.4332 17.2256 31.5231 17.1356L32.3978 16.261C32.5795 16.0794 32.8259 15.9773 33.0828 15.9773C33.3397 15.9773 33.5861 16.0794 33.7678 16.261ZM33.7678 32.3977C33.9495 32.5793 34.0516 32.8258 34.0516 33.0827C34.0516 33.3396 33.9495 33.586 33.7678 33.7677C33.5862 33.9494 33.3397 34.0515 33.0828 34.0515C32.8259 34.0515 32.5795 33.9494 32.3978 33.7677L31.5231 32.8931C31.3414 32.7114 31.2394 32.465 31.2394 32.208C31.2394 31.9511 31.3414 31.7047 31.5231 31.523C31.7048 31.3413 31.9512 31.2393 32.2082 31.2393C32.4651 31.2393 32.7115 31.3413 32.8932 31.523L33.7678 32.3977ZM18.5058 31.523C18.5958 31.613 18.6671 31.7198 18.7158 31.8373C18.7645 31.9548 18.7895 32.0808 18.7895 32.208C18.7895 32.3353 18.7645 32.4612 18.7158 32.5788C18.6671 32.6963 18.5958 32.8031 18.5058 32.8931L17.6311 33.7677C17.442 33.9569 17.1941 34.0514 16.9461 34.0514C16.6981 34.0514 16.4502 33.9569 16.2611 33.7677C16.1711 33.6778 16.0997 33.571 16.0511 33.4534C16.0024 33.3359 15.9773 33.2099 15.9773 33.0827C15.9773 32.9555 16.0024 32.8295 16.0511 32.712C16.0997 32.5944 16.1711 32.4876 16.2611 32.3977L17.1357 31.523C17.3175 31.3414 17.5639 31.2394 17.8208 31.2394C18.0777 31.2394 18.3241 31.3414 18.5058 31.523ZM18.5058 17.1356C18.6875 17.3173 18.7895 17.5637 18.7895 17.8206C18.7895 18.0776 18.6875 18.324 18.5058 18.5057C18.3241 18.6873 18.0777 18.7894 17.8208 18.7894C17.5638 18.7894 17.3174 18.6873 17.1357 18.5057L16.2611 17.631C16.0794 17.4493 15.9773 17.2029 15.9773 16.946C15.9773 16.689 16.0794 16.4426 16.2611 16.261C16.4428 16.0793 16.6892 15.9772 16.9461 15.9772C17.203 15.9772 17.4494 16.0793 17.6311 16.261L18.5058 17.1356ZM37.3936 25.0143C37.3936 25.2713 37.2916 25.5177 37.1099 25.6993C36.9282 25.881 36.6818 25.9831 36.4249 25.9831H35.1879C34.931 25.9831 34.6846 25.881 34.5029 25.6993C34.3212 25.5177 34.2192 25.2713 34.2192 25.0143C34.2192 24.7574 34.3212 24.511 34.5029 24.3293C34.6846 24.1476 34.931 24.0456 35.1879 24.0456H36.4249C36.6818 24.0456 36.9282 24.1476 37.1099 24.3293C37.2916 24.511 37.3936 24.7574 37.3936 25.0143ZM25.9832 35.1879V36.4248C25.9832 36.6817 25.8811 36.9281 25.6995 37.1098C25.5178 37.2914 25.2714 37.3935 25.0145 37.3935C24.7575 37.3935 24.5111 37.2914 24.3294 37.1098C24.1478 36.9281 24.0457 36.6817 24.0457 36.4248V35.1879C24.0457 34.931 24.1478 34.6846 24.3294 34.5029C24.5111 34.3212 24.7575 34.2192 25.0145 34.2192C25.2714 34.2192 25.5178 34.3212 25.6995 34.5029C25.8811 34.6846 25.9832 34.931 25.9832 35.1879ZM15.8098 25.0143C15.8098 25.2713 15.7077 25.5177 15.526 25.6993C15.3443 25.881 15.0979 25.9831 14.841 25.9831H13.6042C13.3472 25.9831 13.1008 25.881 12.9191 25.6993C12.7375 25.5177 12.6354 25.2713 12.6354 25.0143C12.6354 24.7574 12.7375 24.511 12.9191 24.3293C13.1008 24.1476 13.3472 24.0456 13.6042 24.0456H14.841C15.0979 24.0456 15.3443 24.1476 15.526 24.3293C15.7077 24.511 15.8098 24.7574 15.8098 25.0143ZM31.1154 26.0175H31.1098L25.009 25.9831C24.753 25.9816 24.508 25.8789 24.3276 25.6974C24.1471 25.5159 24.0457 25.2703 24.0457 25.0143V18.1362C24.0457 17.8793 24.1478 17.6329 24.3294 17.4512C24.5111 17.2695 24.7575 17.1675 25.0145 17.1675C25.2714 17.1675 25.5178 17.2695 25.6995 17.4512C25.8811 17.6329 25.9832 17.8793 25.9832 18.1362V24.051L31.1207 24.08C31.375 24.0846 31.6173 24.1891 31.7953 24.3708C31.9732 24.5526 32.0725 24.797 32.0718 25.0513C32.0712 25.3057 31.9705 25.5496 31.7915 25.7303C31.6126 25.9111 31.3697 26.0142 31.1154 26.0175ZM61.0312 33.223V31.5034C61.0312 29.6777 59.5459 28.1922 57.7202 28.1922H49.056C49.0571 28.1739 49.0603 28.156 49.0603 28.1375V21.8913C49.0603 21.6956 49.001 21.5044 48.8902 21.343C48.7794 21.1816 48.6223 21.0576 48.4396 20.9872L45.0853 19.6961C44.6119 17.9049 43.8992 16.1857 42.9664 14.5849L44.4261 11.298C44.5056 11.1191 44.529 10.9203 44.4932 10.7278C44.4574 10.5354 44.3642 10.3583 44.2257 10.2198L39.8088 5.80318C39.6704 5.66481 39.4933 5.57162 39.3009 5.53586C39.1084 5.50011 38.9096 5.52348 38.7307 5.60289L35.4428 7.06328C33.8424 6.13088 32.1238 5.4183 30.3331 4.94474L29.0417 1.5896C28.9714 1.40686 28.8473 1.24971 28.6859 1.13888C28.5245 1.02805 28.3333 0.968733 28.1375 0.96875H21.8913C21.6956 0.968748 21.5044 1.02806 21.343 1.13887C21.1816 1.24967 21.0576 1.40678 20.9872 1.58948L19.6958 4.94462C17.9052 5.41818 16.1865 6.13076 14.5861 7.06316L11.298 5.60289C11.1191 5.52335 10.9203 5.49992 10.7278 5.5357C10.5353 5.57148 10.3582 5.66478 10.2198 5.8033L5.80318 10.2201C5.66477 10.3585 5.57154 10.5356 5.53579 10.728C5.50003 10.9205 5.52343 11.1193 5.60289 11.2982L7.06304 14.5856C6.13049 16.1861 5.4179 17.905 4.9445 19.6959L1.5896 20.9871C1.40689 21.0575 1.24977 21.1815 1.13895 21.3429C1.02812 21.5043 0.968784 21.6955 0.96875 21.8913V28.1375C0.968748 28.3332 1.02806 28.5244 1.13887 28.6858C1.24967 28.8472 1.40678 28.9712 1.58948 29.0415L4.94377 30.3325C5.41717 32.1238 6.12989 33.8431 7.06267 35.444L5.60277 38.7309C5.52331 38.9098 5.49993 39.1086 5.53571 39.3011C5.57148 39.4935 5.66474 39.6707 5.80318 39.8091L10.2199 44.2257C10.3584 44.3641 10.5355 44.4573 10.7279 44.493C10.9204 44.5288 11.1191 44.5054 11.298 44.426L14.5861 42.9656C16.1865 43.8981 17.9051 44.6106 19.6958 45.0842L20.9872 48.4393C21.0576 48.622 21.1816 48.7791 21.343 48.8899C21.5044 49.0007 21.6956 49.06 21.8913 49.06H28.1375C28.3332 49.06 28.5244 49.0007 28.6858 48.8899C28.8472 48.7791 28.9712 48.622 29.0415 48.4393L30.3327 45.085C31.458 44.7875 32.5561 44.3952 33.6151 43.9122C32.2524 45.7045 31.4421 47.9387 31.4421 50.3589C31.4421 56.2437 36.2297 61.0312 42.1145 61.0312C46.035 61.0312 49.468 58.9059 51.3234 55.7472H57.7201C59.5458 55.7472 61.0311 54.2617 61.0311 52.436V50.7164C61.0311 49.8023 60.6589 48.9738 60.058 48.3741C60.6588 47.7744 61.0311 46.9457 61.0311 46.0317V44.3121C61.0311 43.3981 60.6589 42.5694 60.058 41.9696C60.6589 41.37 61.0311 40.5413 61.0311 39.6273V37.9077C61.0311 36.9937 60.6589 36.165 60.058 35.5652C60.659 34.9657 61.0312 34.1371 61.0312 33.223ZM29.3851 43.3255C29.232 43.362 29.0901 43.4351 28.9717 43.5387C28.8532 43.6423 28.7618 43.7731 28.7053 43.92L27.4724 47.1225H22.5566L21.3234 43.9191C21.2669 43.7723 21.1755 43.6415 21.0571 43.5379C20.9386 43.4343 20.7967 43.3612 20.6437 43.3248C18.7065 42.8637 16.8554 42.0963 15.1603 41.0514C15.0263 40.9689 14.8743 40.9203 14.7173 40.9098C14.5603 40.8992 14.4031 40.9271 14.2593 40.991L11.1196 42.3854L7.64356 38.9095L9.03747 35.771C9.10132 35.6271 9.12918 35.4699 9.11863 35.3129C9.10808 35.1559 9.05944 35.0038 8.97692 34.8698C7.93173 33.1743 7.16417 31.3227 6.70327 29.385C6.66689 29.2319 6.59376 29.09 6.4902 28.9715C6.38664 28.8531 6.25578 28.7617 6.10894 28.7052L2.90625 27.4723V22.5565L6.10942 21.3235C6.25627 21.267 6.38713 21.1756 6.49069 21.0571C6.59424 20.9387 6.66737 20.7968 6.70375 20.6437C7.16468 18.7064 7.93216 16.8551 8.97716 15.16C9.05969 15.026 9.10833 14.8739 9.11887 14.7169C9.12942 14.5598 9.10157 14.4026 9.03771 14.2588L7.64356 11.1197L11.1196 7.64356L14.2592 9.03795C14.403 9.10185 14.5602 9.12974 14.7172 9.11921C14.8742 9.10868 15.0262 9.06005 15.1602 8.97753C16.8554 7.93267 18.7065 7.1652 20.6437 6.70411C20.7967 6.66769 20.9386 6.59454 21.057 6.49099C21.1755 6.38744 21.2669 6.2566 21.3234 6.10979L22.5565 2.90625H27.4723L28.7055 6.10966C28.762 6.25649 28.8534 6.38734 28.9719 6.49089C29.0903 6.59445 29.2322 6.66759 29.3852 6.70399C31.3224 7.1651 33.1735 7.93257 34.8686 8.97741C35.0026 9.05993 35.1546 9.10856 35.3116 9.11909C35.4686 9.12961 35.6258 9.10173 35.7696 9.03783L38.9092 7.64344L42.3854 11.1194L40.9914 14.2578C40.9276 14.4017 40.8997 14.5589 40.9103 14.7159C40.9208 14.8729 40.9695 15.025 41.052 15.159C42.0972 16.8545 42.8647 18.706 43.3256 20.6437C43.362 20.7968 43.4352 20.9387 43.5387 21.0571C43.6423 21.1756 43.7731 21.267 43.92 21.3235L47.1225 22.5564V27.4722L45.2521 28.1921H42.9976C41.1719 28.1921 39.6864 29.6775 39.6864 31.5033V33.2229C39.6864 34.1369 40.0588 34.9656 40.6596 35.5652C40.0588 36.165 39.6864 36.9937 39.6864 37.9077V39.6273C39.6864 39.7396 39.693 39.8507 39.704 39.9609C38.5602 40.2266 37.4685 40.6802 36.4732 41.3033L35.7709 40.9914C35.6271 40.9275 35.4698 40.8996 35.3128 40.9102C35.1558 40.9207 35.0038 40.9693 34.8698 41.0519C33.1744 42.0971 31.3228 42.8647 29.3851 43.3255ZM42.1146 59.0938C37.2982 59.0938 33.3797 55.1754 33.3797 50.3589C33.3797 45.5424 37.2981 41.6239 42.1146 41.6239C46.9311 41.6239 50.8496 45.5424 50.8496 50.3589C50.8496 55.1754 46.9311 59.0938 42.1146 59.0938ZM59.0938 50.7164V52.436C59.0938 53.1935 58.4776 53.8097 57.7202 53.8097H52.2142C52.5944 52.699 52.7879 51.5329 52.7869 50.3589C52.7869 50.0162 52.77 49.6774 52.7383 49.3428H57.7201C58.4776 49.3429 59.0938 49.9589 59.0938 50.7164ZM59.0938 44.3122V46.0319C59.0938 46.7893 58.4776 47.4054 57.7202 47.4054H52.371C51.8804 45.7047 50.9771 44.1772 49.7773 42.9385H57.7202C58.4776 42.9385 59.0938 43.5548 59.0938 44.3122ZM59.0938 37.9078V39.6274C59.0938 40.3849 58.4776 41.001 57.7202 41.001H47.2413C45.7188 40.1635 43.9714 39.6865 42.1146 39.6865C41.9523 39.6867 41.7901 39.6906 41.628 39.698C41.6268 39.6744 41.624 39.6513 41.624 39.6274V37.9078C41.624 37.1504 42.2403 36.5341 42.9977 36.5341H57.7202C58.4776 36.5341 59.0938 37.1504 59.0938 37.9078ZM42.9977 34.5966C42.2403 34.5966 41.624 33.9805 41.624 33.223V31.5034C41.624 30.7459 42.2403 30.1297 42.9977 30.1297H57.7202C58.4776 30.1297 59.0938 30.7459 59.0938 31.5034V33.223C59.0938 33.9805 58.4776 34.5966 57.7202 34.5966H42.9977ZM46.1722 52.5136C46.2751 53.3611 46.0464 54.1363 45.5107 54.7556C44.9587 55.3937 44.0849 55.8403 43.0835 56.0151V56.4992C43.0835 56.7561 42.9814 57.0025 42.7997 57.1842C42.618 57.3659 42.3716 57.4679 42.1147 57.4679C41.8578 57.4679 41.6114 57.3659 41.4297 57.1842C41.248 57.0025 41.146 56.7561 41.146 56.4992V55.9991C39.6047 55.6871 38.4222 54.649 38.0617 53.2034C37.9996 52.9541 38.039 52.6903 38.1713 52.4701C38.3036 52.2499 38.518 52.0912 38.7673 52.029C39.2863 51.9002 39.8122 52.2156 39.9417 52.7346C40.2118 53.8191 41.3419 54.1805 42.2182 54.1582C42.98 54.1402 43.7142 53.8709 44.0453 53.4881C44.2208 53.2851 44.2854 53.0497 44.2489 52.7471C44.1858 52.2281 43.8695 51.5924 41.9666 51.2799C39.0875 50.8071 38.4148 49.3024 38.3577 48.1234C38.2787 46.4985 39.3985 45.1389 41.1458 44.7348V44.2185C41.1458 43.9615 41.2479 43.7151 41.4296 43.5335C41.6113 43.3518 41.8577 43.2497 42.1146 43.2497C42.3715 43.2497 42.6179 43.3518 42.7996 43.5335C42.9813 43.7151 43.0833 43.9615 43.0833 44.2185V44.7261C44.2184 44.9751 45.3003 45.6922 45.8646 47.036C45.9641 47.2729 45.9654 47.5396 45.8683 47.7774C45.7711 48.0153 45.5835 48.2048 45.3466 48.3043C45.1097 48.4038 44.843 48.4051 44.6051 48.308C44.3673 48.2108 44.1777 48.0231 44.0782 47.7863C43.6203 46.6952 42.5002 46.4144 41.5933 46.62C41.3672 46.6712 40.2419 46.9803 40.2929 48.0294C40.3064 48.3087 40.3424 49.0499 42.2806 49.3681C44.6568 49.758 45.9662 50.8165 46.1722 52.5136Z" fill="#33B6FF"/>
</g>
<defs>
<clipPath id="clip0_1_574">
<rect width="62" height="62" fill="white"/>
</clipPath>
</defs>
</svg>
