<svg width="62" height="62" viewBox="0 0 62 62" fill="none" xmlns="http://www.w3.org/2000/svg">
<g clip-path="url(#clip0_1_565)">
<path d="M55.9395 48.2077C57.1642 46.5237 57.8279 44.497 57.8367 42.4148C57.8432 42.2792 57.823 42.1437 57.7771 42.016C57.7313 41.8882 57.6607 41.7708 57.5695 41.6703C57.4782 41.5698 57.3681 41.4883 57.2453 41.4304C57.1225 41.3725 56.9896 41.3394 56.854 41.3329C56.581 41.3227 56.3148 41.4199 56.1126 41.6036C55.9104 41.7873 55.7881 42.0429 55.7721 42.3156C55.7799 43.9659 55.2715 45.5772 54.3182 46.9243C52.3022 49.4704 48.4768 49.5996 47.7297 49.5996C47.4556 49.5996 47.1928 49.7084 46.999 49.9022C46.8052 50.096 46.6963 50.3589 46.6963 50.6329C46.6963 50.907 46.8052 51.1698 46.999 51.3636C47.1928 51.5574 47.4556 51.6662 47.7297 51.6662C48.6431 51.6662 53.3314 51.4999 55.9395 48.2077ZM35.1333 35.1329C35.1333 34.8589 35.0245 34.596 34.8307 34.4022C34.6369 34.2084 34.3741 34.0996 34.1 34.0996C33.8259 34.0996 33.5631 34.2084 33.3693 34.4022C33.1755 34.596 33.0667 34.8589 33.0667 35.1329C33.0667 36.2291 33.5021 37.2805 34.2773 38.0556C35.0524 38.8308 36.1038 39.2662 37.2 39.2662V40.2996C37.2 40.5736 37.3089 40.8365 37.5027 41.0303C37.6964 41.224 37.9593 41.3329 38.2333 41.3329C38.5074 41.3329 38.7702 41.224 38.964 41.0303C39.1578 40.8365 39.2667 40.5736 39.2667 40.2996V39.2662C40.3629 39.2662 41.4142 38.8308 42.1894 38.0556C42.9645 37.2805 43.4 36.2291 43.4 35.1329C43.4 34.0367 42.9645 32.9854 42.1894 32.2102C41.4142 31.4351 40.3629 30.9996 39.2667 30.9996V26.8662C39.8148 26.8662 40.3404 27.084 40.728 27.4716C41.1156 27.8591 41.3333 28.3848 41.3333 28.9329C41.3333 29.207 41.4422 29.4698 41.636 29.6636C41.8298 29.8574 42.0926 29.9662 42.3667 29.9662C42.6407 29.9662 42.9036 29.8574 43.0973 29.6636C43.2911 29.4698 43.4 29.207 43.4 28.9329C43.4 27.8367 42.9645 26.7854 42.1894 26.0102C41.4142 25.2351 40.3629 24.7996 39.2667 24.7996V23.7662C39.2667 23.4922 39.1578 23.2294 38.964 23.0356C38.7702 22.8418 38.5074 22.7329 38.2333 22.7329C37.9593 22.7329 37.6964 22.8418 37.5027 23.0356C37.3089 23.2294 37.2 23.4922 37.2 23.7662V24.7996C36.1038 24.7996 35.0524 25.2351 34.2773 26.0102C33.5021 26.7854 33.0667 27.8367 33.0667 28.9329C33.0667 30.0291 33.5021 31.0805 34.2773 31.8556C35.0524 32.6308 36.1038 33.0662 37.2 33.0662V37.1996C36.6519 37.1996 36.1262 36.9818 35.7386 36.5943C35.3511 36.2067 35.1333 35.681 35.1333 35.1329ZM35.1333 28.9329C35.1333 28.3848 35.3511 27.8591 35.7386 27.4716C36.1262 27.084 36.6519 26.8662 37.2 26.8662V30.9996C36.6519 30.9996 36.1262 30.7818 35.7386 30.3943C35.3511 30.0067 35.1333 29.481 35.1333 28.9329ZM39.2667 33.0662C39.8148 33.0662 40.3404 33.284 40.728 33.6716C41.1156 34.0591 41.3333 34.5848 41.3333 35.1329C41.3333 35.681 41.1156 36.2067 40.728 36.5943C40.3404 36.9818 39.8148 37.1996 39.2667 37.1996V33.0662Z" fill="#33B6FF"/>
<path d="M61.1361 34.8965C58.59 24.0765 52.9294 17.8072 48.8415 14.5326C53.9679 14.9191 55.6181 17.0519 55.6667 17.1159C55.8223 17.338 56.059 17.4901 56.3257 17.5393C56.5924 17.5884 56.8677 17.5308 57.0923 17.3788C57.3169 17.2267 57.4727 16.9925 57.5261 16.7267C57.5796 16.4608 57.5263 16.1845 57.3779 15.9576C57.3035 15.846 55.8682 13.7958 51.6946 12.8576C52.2219 12.424 52.6494 11.8817 52.9478 11.2676C53.2462 10.6536 53.4084 9.98233 53.4233 9.2998C53.356 8.18344 52.9376 7.11692 52.228 6.25251C51.5183 5.38811 50.5537 4.77003 49.4719 4.48653C49.5628 3.74046 49.6093 2.98819 49.6103 2.23696C49.6098 1.89589 49.5248 1.56026 49.3631 1.26C49.2013 0.959746 48.9677 0.704193 48.6832 0.516137C48.3986 0.328082 48.072 0.213371 47.7323 0.182235C47.3927 0.151099 47.0506 0.204507 46.7366 0.337694C46.2148 0.574327 45.7302 0.885361 45.2982 1.26046C45.0473 1.51835 44.7467 1.72273 44.4146 1.86125C44.0825 1.99978 43.7257 2.06959 43.3659 2.06646C43.0066 2.06899 42.6505 1.9989 42.319 1.86039C41.9875 1.72189 41.6874 1.51783 41.4367 1.26046C40.5585 0.449419 39.407 -0.000976562 38.2116 -0.000976562C37.0163 -0.000976562 35.8648 0.449419 34.9866 1.26046C34.7356 1.5189 34.4347 1.72361 34.1022 1.86217C33.7697 2.00072 33.4124 2.07023 33.0522 2.06646C32.693 2.06945 32.3369 1.99956 32.0055 1.86102C31.6741 1.72249 31.3742 1.51818 31.124 1.26046C30.693 0.88554 30.2098 0.575069 29.6897 0.338727C29.3759 0.206427 29.0343 0.153716 28.6953 0.185284C28.3562 0.216852 28.0302 0.331719 27.7462 0.519672C27.4622 0.707625 27.2291 0.962838 27.0675 1.26262C26.906 1.5624 26.821 1.89745 26.8202 2.23799C26.8202 4.80893 27.3286 9.39486 30.5474 12.4742C28.8558 13.5028 27.2759 14.7049 25.8333 16.0609V8.26646C25.8333 5.91046 22.5008 4.13313 18.0833 4.13313C13.6658 4.13313 10.3333 5.91046 10.3333 8.26646V18.6773C6.70943 19.039 4.13333 20.6665 4.13333 22.7331V49.016C1.6368 49.6866 0 51.0465 0 52.6998V57.8665C0 60.2225 3.3325 61.9998 7.75 61.9998C11.7004 61.9998 14.7767 60.5769 15.3832 58.5898C17.1669 59.5342 19.1661 59.9972 21.1833 59.9331C25.6008 59.9331 28.9333 58.1558 28.9333 55.7998V42.3665C28.9333 40.0105 25.6008 38.2331 21.1833 38.2331C20.6667 38.2331 20.1479 38.259 19.6333 38.3106V22.7331C19.6333 20.4701 16.5571 18.7465 12.4 18.6132V11.1278C14.1579 12.0213 16.1122 12.4587 18.0833 12.3998C20.0544 12.4587 22.0087 12.0213 23.7667 11.1278V18.1751C23.0465 18.9786 22.3658 19.8166 21.7269 20.6861C21.5782 20.9075 21.5208 21.1779 21.5669 21.4406C21.613 21.7034 21.7589 21.9381 21.974 22.0957C22.1892 22.2534 22.457 22.3217 22.7214 22.2864C22.9858 22.2512 23.2263 22.115 23.3926 21.9065C24.056 21.0075 24.7669 20.1457 25.5233 19.3231L25.5471 19.2963C27.5197 17.104 29.8361 15.2476 32.4053 13.8C32.9117 14.0438 33.448 14.2226 33.9998 14.3301L31.3358 16.8163C31.1355 17.0034 31.0177 17.2625 31.0084 17.5366C30.9991 17.8106 31.0991 18.0771 31.2862 18.2774C31.4734 18.4777 31.7325 18.5955 32.0065 18.6048C32.2805 18.6141 32.547 18.5142 32.7474 18.327L36.8807 14.4716H37.2103V17.5716C37.2103 17.8457 37.3192 18.1085 37.513 18.3023C37.7068 18.4961 37.9696 18.605 38.2437 18.605C38.5177 18.605 38.7806 18.4961 38.9743 18.3023C39.1681 18.1085 39.277 17.8457 39.277 17.5716V14.4665H39.6066L43.74 18.3218C43.8392 18.4145 43.9556 18.4867 44.0828 18.5344C44.2099 18.5821 44.3451 18.6042 44.4808 18.5996C44.6165 18.595 44.7499 18.5637 44.8735 18.5076C44.9971 18.4514 45.1084 18.3714 45.2011 18.2722C45.2938 18.173 45.366 18.0566 45.4137 17.9294C45.4614 17.8023 45.4835 17.6671 45.4789 17.5314C45.4743 17.3957 45.443 17.2623 45.3868 17.1387C45.3307 17.0151 45.2507 16.9038 45.1515 16.8111L42.47 14.3146C43.0187 14.206 43.5511 14.0271 44.0541 13.7824C46.7852 15.2601 55.7628 21.0984 59.1253 35.3698C60.5874 41.5822 60.0604 46.3345 57.5598 49.4913C54.3606 53.5265 48.8095 53.7331 47.7297 53.7331H33.0667C32.7926 53.7331 32.5298 53.842 32.336 54.0358C32.1422 54.2296 32.0333 54.4924 32.0333 54.7665C32.0333 55.0405 32.1422 55.3034 32.336 55.4971C32.5298 55.6909 32.7926 55.7998 33.0667 55.7998H47.7297C49.4863 55.7998 55.4848 55.4371 59.179 50.7747C62.0909 47.0971 62.7502 41.7547 61.1361 34.8965ZM7.75 50.6331C11.1672 50.6331 13.4333 51.8731 13.4333 52.6998C13.4333 53.5265 11.1672 54.7665 7.75 54.7665C4.33277 54.7665 2.06667 53.5265 2.06667 52.6998C2.06667 51.8731 4.33277 50.6331 7.75 50.6331ZM7.75 59.9331C4.33277 59.9331 2.06667 58.6931 2.06667 57.8665V55.5611C3.8246 56.4546 5.7789 56.892 7.75 56.8331C9.7211 56.892 11.6754 56.4546 13.4333 55.5611V57.8665C13.4333 58.6931 11.1672 59.9331 7.75 59.9331ZM21.1833 57.8665C17.7661 57.8665 15.5 56.6265 15.5 55.7998V45.2278C17.2579 46.1213 19.2122 46.5587 21.1833 46.4998C23.1544 46.5587 25.1087 46.1213 26.8667 45.2278V55.7998C26.8667 56.6265 24.6006 57.8665 21.1833 57.8665ZM26.8667 42.3665C26.8667 43.1931 24.6006 44.4331 21.1833 44.4331C17.7661 44.4331 15.5 43.1931 15.5 42.3665C15.5 41.5398 17.7661 40.2998 21.1833 40.2998C24.6006 40.2998 26.8667 41.5398 26.8667 42.3665ZM13.4333 42.3665V49.8385C11.6754 48.945 9.7211 48.5076 7.75 48.5665C7.23333 48.5665 6.7146 48.5923 6.2 48.644V25.5944C7.95794 26.4879 9.91223 26.9253 11.8833 26.8665C13.8544 26.9253 15.8087 26.4879 17.5667 25.5944V38.6826C15.0701 39.3533 13.4333 40.7131 13.4333 42.3665ZM17.5667 22.7331C17.5667 23.5598 15.3006 24.7998 11.8833 24.7998C8.4661 24.7998 6.2 23.5598 6.2 22.7331C6.2 21.9065 8.4661 20.6665 11.8833 20.6665C15.3006 20.6665 17.5667 21.9065 17.5667 22.7331ZM18.0833 10.3331C14.6661 10.3331 12.4 9.09313 12.4 8.26646C12.4 7.43979 14.6661 6.19979 18.0833 6.19979C21.5006 6.19979 23.7667 7.43979 23.7667 8.26646C23.7667 9.09313 21.5006 10.3331 18.0833 10.3331ZM51.3567 9.2998C51.3567 10.9934 49.5225 12.3833 47.2233 12.3998C46.8388 12.3974 46.4556 12.3534 46.0805 12.2686C47.5802 10.6685 48.6227 8.69496 49.0988 6.55423C49.7067 6.73334 50.2469 7.09076 50.6494 7.58025C51.052 8.06973 51.2983 8.66875 51.3567 9.2998ZM29.8303 2.87246C30.7029 3.69018 31.8563 4.14147 33.0522 4.13313C34.2488 4.14211 35.4031 3.69076 36.2762 2.87246C36.5291 2.61715 36.8301 2.41448 37.1617 2.27616C37.4934 2.13785 37.8492 2.06663 38.2085 2.06663C38.5679 2.06663 38.9237 2.13785 39.2553 2.27616C39.587 2.41448 39.888 2.61715 40.1409 2.87246C41.014 3.69137 42.1689 4.1428 43.3659 4.13313C44.5629 4.14238 45.7176 3.69101 46.5909 2.87246C46.8772 2.61929 47.1954 2.40539 47.5385 2.23593C47.5385 4.15483 47.182 8.89886 43.8526 11.4998C43.1036 12.0623 42.1956 12.3731 41.2589 12.3874C42.1535 10.8509 42.8615 9.21325 43.368 7.50903C43.4414 7.24484 43.4069 6.96229 43.272 6.72354C43.1372 6.4848 42.913 6.30941 42.6488 6.23596C42.3846 6.16251 42.102 6.19702 41.8633 6.3319C41.6245 6.46678 41.4492 6.69097 41.3757 6.95516C40.8034 8.89758 39.9236 10.7358 38.7696 12.3998H37.7074C36.5557 10.7343 35.6758 8.89655 35.1003 6.95516C35.0267 6.69111 34.8512 6.4671 34.6125 6.33242C34.3737 6.19773 34.0913 6.16341 33.8272 6.23699C33.5631 6.31058 33.3391 6.48604 33.2045 6.72479C33.0698 6.96354 33.0355 7.24601 33.109 7.51006C33.616 9.21575 34.3247 10.8548 35.2201 12.3926C34.2647 12.3877 33.3364 12.0749 32.5727 11.5008C29.2433 8.90093 28.8868 4.15689 28.8868 2.24419C29.2289 2.40849 29.5471 2.61929 29.8303 2.87246Z" fill="#33B6FF"/>
<path d="M55.9395 48.2079C57.1642 46.524 57.8279 44.4973 57.8367 42.4151C57.8432 42.2795 57.823 42.144 57.7772 42.0162C57.7313 41.8885 57.6607 41.771 57.5695 41.6706C57.4782 41.5701 57.3681 41.4886 57.2453 41.4307C57.1225 41.3728 56.9896 41.3397 56.854 41.3332C56.5811 41.3235 56.3153 41.4209 56.1131 41.6044C55.911 41.788 55.7886 42.0433 55.7721 42.3159C55.7799 43.9661 55.2715 45.5775 54.3182 46.9245C52.3022 49.4707 48.4768 49.5998 47.7297 49.5998C47.4556 49.5998 47.1928 49.7087 46.999 49.9025C46.8052 50.0963 46.6963 50.3591 46.6963 50.6332C46.6963 50.9072 46.8052 51.1701 46.999 51.3639C47.1928 51.5576 47.4556 51.6665 47.7297 51.6665C48.6431 51.6665 53.3314 51.5001 55.9395 48.2079Z" fill="#33B6FF"/>
</g>
<defs>
<clipPath id="clip0_1_565">
<rect width="62" height="62" fill="white"/>
</clipPath>
</defs>
</svg>
