<svg width="62" height="62" viewBox="0 0 62 62" fill="none" xmlns="http://www.w3.org/2000/svg">
<path d="M14.1062 12.9336L14.0626 22.6211C14.0618 22.8011 14.0109 22.9772 13.9156 23.1299C13.8203 23.2825 13.6843 23.4056 13.523 23.4853C13.3617 23.565 13.1813 23.5982 13.0022 23.5812C12.823 23.5641 12.6522 23.4975 12.5087 23.3888L11.5942 22.6958C10.1902 25.9855 9.64396 29.5777 10.0068 33.136C10.3697 36.6944 11.6297 40.1024 13.6689 43.0409L12.0781 44.1467C9.72696 40.7596 8.32665 36.8041 8.02295 32.6921C7.71926 28.5801 8.52328 24.4619 10.3513 20.7661C10.4147 20.6383 10.5054 20.5261 10.6171 20.4375C10.7288 20.3488 10.8587 20.2859 10.9975 20.2533C11.1363 20.2206 11.2806 20.219 11.4201 20.2486C11.5596 20.2781 11.6908 20.3381 11.8045 20.4242L12.134 20.6738L12.163 14.2166L5.95648 15.9967L6.93491 16.737C7.12021 16.8773 7.24893 17.0794 7.29759 17.3067C7.34625 17.5339 7.31161 17.771 7.19999 17.9749C6.55401 19.1553 5.99713 20.3824 5.53398 21.6458L3.71479 20.9798C4.11492 19.8883 4.5804 18.8218 5.1087 17.7862L3.24192 16.3732C3.09845 16.2646 2.98806 16.1182 2.92311 15.9504C2.85816 15.7826 2.84121 15.6001 2.87418 15.4232C2.90714 15.2463 2.98871 15.0821 3.10974 14.949C3.23077 14.8159 3.38648 14.7191 3.55943 14.6695L12.8703 11.998C13.0149 11.9566 13.1671 11.9493 13.315 11.9769C13.4628 12.0044 13.6023 12.0661 13.7222 12.1568C13.8421 12.2476 13.9392 12.3651 14.0059 12.4999C14.0725 12.6347 14.1069 12.7832 14.1062 12.9336ZM5.02127 44.0289L6.75291 43.1587C4.27142 38.2325 3.3606 32.6637 4.14334 27.2037C4.29944 26.1 4.52246 25.0068 4.81117 23.9301L2.93991 23.4276C2.63093 24.5804 2.39234 25.7509 2.22546 26.9326C1.38652 32.7832 2.36234 38.7504 5.02127 44.0289ZM26.3556 22.3788C25.7391 22.6787 25.1529 23.0372 24.605 23.4494L25.77 24.9976C26.2183 24.6602 26.6981 24.3668 27.2026 24.1213L26.3556 22.3788ZM20.3437 32.9376H22.2812V31.9688C22.2805 29.8087 23.084 27.7256 24.535 26.1254L23.0985 24.8256C21.3248 26.7818 20.3427 29.3282 20.3437 31.9688V32.9376ZM57.1562 59.0938V50.3751H55.2187V58.1251H45.5312V46.5001H46.5V44.5626H44.811C42.6129 43.3564 40.1467 42.7226 37.6395 42.7195C35.1322 42.7165 32.6644 43.3442 30.4634 44.545L30.4309 44.5626H23.25C22.6548 44.5632 22.0677 44.7009 21.5341 44.9648C21.0006 45.2287 20.535 45.6118 20.1732 46.0845C19.8115 46.5572 19.5633 47.1068 19.448 47.6908C19.3327 48.2747 19.3533 48.8774 19.5082 49.4521L15.7353 47.7231C15.813 47.5869 15.9084 47.4616 16.0191 47.3505L18.1225 45.2471C18.3041 45.0655 18.4061 44.8193 18.4062 44.5626V31.9688C18.4112 29.2171 19.3149 26.5423 20.9798 24.3514C22.6447 22.1604 24.9797 20.5733 27.6296 19.8315C27.7729 19.7918 27.9052 19.7196 28.0161 19.6205C28.127 19.5215 28.2137 19.3982 28.2693 19.2603C28.3249 19.1224 28.348 18.9735 28.3369 18.8252C28.3257 18.6769 28.2806 18.5331 28.2049 18.4051L25.9164 14.5313H36.0836L33.795 18.4051C33.7193 18.5331 33.6742 18.6769 33.663 18.8252C33.6518 18.9735 33.675 19.1224 33.7306 19.2603C33.7862 19.3982 33.8728 19.5215 33.9838 19.6205C34.0947 19.7196 34.227 19.7918 34.3703 19.8315C37.0201 20.5733 39.3552 22.1604 41.0201 24.3513C42.685 26.5423 43.5888 29.2171 43.5937 31.9688V42.6251H45.5312V31.9688C45.5253 29.0073 44.6175 26.1179 42.9287 23.685C41.24 21.2522 38.8503 19.3915 36.0778 18.3504L38.6153 14.0553C38.7022 13.9082 38.7487 13.7407 38.75 13.5698C38.7513 13.399 38.7073 13.2308 38.6226 13.0824C38.5379 12.934 38.4155 12.8106 38.2677 12.7248C38.12 12.639 37.9521 12.5938 37.7812 12.5938H24.2187C24.0479 12.5938 23.88 12.639 23.7323 12.7248C23.5845 12.8106 23.4621 12.934 23.3774 13.0824C23.2927 13.2308 23.2487 13.399 23.25 13.5698C23.2513 13.7407 23.2977 13.9082 23.3847 14.0553L25.9222 18.3504C23.1497 19.3915 20.76 21.2522 19.0712 23.685C17.3825 26.1179 16.4747 29.0073 16.4687 31.9688V44.1614L14.6491 45.9809C14.375 46.2547 14.1457 46.5698 13.9695 46.9147L10.7 45.4173C9.74389 44.9915 8.66291 44.9398 7.67056 45.2723C6.67822 45.6049 5.84668 46.2975 5.34023 47.2134C4.22617 49.2869 5.01776 52.0288 7.12903 53.0865L18.4249 58.7343C20.1744 59.6057 22.1019 60.0603 24.0565 60.0626H37.7812V58.1251H24.0565C22.4026 58.123 20.7717 57.7382 19.2913 57.0007L7.99594 51.3531C6.88115 50.7961 6.46144 49.2155 7.04608 48.132C7.31496 47.6452 7.75687 47.2771 8.28429 47.1005C8.81171 46.924 9.38619 46.952 9.89396 47.1789L20.909 52.2245C21.0356 52.2825 21.1732 52.3126 21.3125 52.3126H31.9687V50.3751H23.25C22.7361 50.3751 22.2433 50.1709 21.88 49.8076C21.5166 49.4442 21.3125 48.9514 21.3125 48.4376C21.3125 47.9237 21.5166 47.4309 21.88 47.0675C22.2433 46.7042 22.7361 46.5001 23.25 46.5001H30.6767C30.8378 46.5001 30.9965 46.4599 31.1382 46.3831L31.3888 46.2473C33.2567 45.2281 35.3461 44.6823 37.4738 44.6579C39.6016 44.6335 41.7029 45.1311 43.5937 46.1072V58.1251H39.7187V60.0626H56.1875C56.4444 60.0626 56.6908 59.9605 56.8725 59.7788C57.0542 59.5972 57.1562 59.3507 57.1562 59.0938ZM51.3437 54.2501C51.3437 53.8669 51.2301 53.4923 51.0172 53.1736C50.8043 52.855 50.5017 52.6067 50.1477 52.4601C49.7937 52.3134 49.4041 52.275 49.0283 52.3498C48.6524 52.4246 48.3072 52.6091 48.0362 52.88C47.7653 53.151 47.5807 53.4962 47.506 53.8721C47.4312 54.2479 47.4696 54.6375 47.6162 54.9915C47.7629 55.3455 48.0112 55.6481 48.3298 55.861C48.6484 56.0739 49.023 56.1876 49.4062 56.1876C49.9199 56.187 50.4124 55.9826 50.7756 55.6194C51.1388 55.2562 51.3431 54.7637 51.3437 54.2501ZM31.9687 28.0938V31.9688C32.9965 31.9688 33.9821 32.3771 34.7088 33.1038C35.4355 33.8305 35.8437 34.8161 35.8437 35.8438C35.8437 36.8715 35.4355 37.8572 34.7088 38.5839C33.9821 39.3106 32.9965 39.7188 31.9687 39.7188V41.6563H30.0312V39.7188C29.0039 39.7177 28.0189 39.309 27.2925 38.5826C26.566 37.8561 26.1574 36.8712 26.1562 35.8438H28.0937C28.0944 36.3575 28.2987 36.8499 28.6619 37.2132C29.0251 37.5764 29.5176 37.7807 30.0312 37.7813V33.9063C29.0035 33.9063 28.0179 33.4981 27.2912 32.7714C26.5645 32.0447 26.1562 31.059 26.1562 30.0313C26.1562 29.0036 26.5645 28.018 27.2912 27.2913C28.0179 26.5646 29.0035 26.1563 30.0312 26.1563V24.2188H31.9687V26.1563C32.9961 26.1575 33.9811 26.5661 34.7075 27.2926C35.434 28.019 35.8426 29.004 35.8437 30.0313H33.9062C33.9056 29.5176 33.7013 29.0252 33.3381 28.662C32.9749 28.2988 32.4824 28.0944 31.9687 28.0938ZM30.0312 28.0938C29.5174 28.0938 29.0246 28.2979 28.6612 28.6613C28.2979 29.0247 28.0937 29.5175 28.0937 30.0313C28.0937 30.5452 28.2979 31.038 28.6612 31.4013C29.0246 31.7647 29.5174 31.9688 30.0312 31.9688V28.0938ZM31.9687 33.9063V37.7813C32.4826 37.7813 32.9754 37.5772 33.3388 37.2138C33.7021 36.8505 33.9062 36.3577 33.9062 35.8438C33.9062 35.33 33.7021 34.8372 33.3388 34.4738C32.9754 34.1104 32.4826 33.9063 31.9687 33.9063ZM34.794 4.14341C40.4684 4.94545 45.7431 7.52344 49.8622 11.5078C53.9812 15.4922 56.733 20.6785 57.7231 26.3231L59.6316 25.9896C58.7899 21.1863 56.7533 16.6719 53.7093 12.8622C50.6652 9.0525 46.7117 6.06984 42.2126 4.18886C37.7134 2.30789 32.8134 1.58905 27.9636 2.09855C23.1138 2.60804 18.4702 4.32949 14.4602 7.1044C14.2544 7.24694 14.1117 7.46362 14.0622 7.70901C14.0126 7.95441 14.06 8.20945 14.1944 8.42069L17.4282 13.5052C17.4986 13.6159 17.5908 13.7112 17.6992 13.7853C17.8076 13.8593 17.93 13.9106 18.0588 13.9359C18.1876 13.9612 18.3202 13.9601 18.4486 13.9326C18.5769 13.9051 18.6984 13.8518 18.8055 13.7759C23.1973 10.6561 28.6193 9.34159 33.9523 10.1039C45.4738 11.7319 53.5234 22.4301 51.895 33.9519C51.6355 35.7981 51.1327 37.602 50.3998 39.3163L49.4617 38.6061C49.3183 38.4975 49.1474 38.431 48.9683 38.4141C48.7893 38.3971 48.609 38.4304 48.4477 38.5101C48.2865 38.5898 48.1506 38.7129 48.0553 38.8655C47.96 39.0181 47.9091 39.1942 47.9083 39.3741L47.865 49.0607C47.8643 49.2111 47.8987 49.3596 47.9653 49.4944C48.032 49.6293 48.1292 49.7467 48.2491 49.8375C48.369 49.9282 48.5084 49.9898 48.6563 50.0174C48.8042 50.0449 48.9564 50.0377 49.101 49.9962L58.4121 47.3254C58.585 47.2758 58.7407 47.179 58.8617 47.0459C58.9827 46.9128 59.0643 46.7486 59.0972 46.5718C59.1302 46.3949 59.1133 46.2124 59.0483 46.0446C58.9834 45.8769 58.873 45.7305 58.7296 45.6219L56.8835 44.2245C59.2751 39.5222 60.3505 34.2606 59.9957 28.9971L58.0626 29.1287C58.19 31.0193 58.1203 32.9181 57.8547 34.7943C57.4016 38.0341 56.364 41.1647 54.7924 44.0338C54.6807 44.2376 54.646 44.4747 54.6946 44.702C54.7432 44.9292 54.8719 45.1314 55.0572 45.2717L56.0154 45.9972L49.8083 47.7772L49.8372 41.3199L50.19 41.5863C50.3036 41.6723 50.4348 41.7322 50.5742 41.7616C50.7136 41.7911 50.8578 41.7895 50.9966 41.7568C51.1353 41.7241 51.2651 41.6613 51.3767 41.5727C51.4883 41.4841 51.579 41.372 51.6424 41.2444C52.7375 39.035 53.4705 36.664 53.8133 34.222C55.5907 21.6433 46.8027 9.96294 34.2233 8.18601C28.7481 7.4027 23.1743 8.62403 18.5284 11.6251L16.3376 8.18032C21.804 4.65876 28.3566 3.22554 34.794 4.14341Z" fill="#33B6FF"/>
</svg>
