<svg width="50" height="46" viewBox="0 0 50 46" fill="none" xmlns="http://www.w3.org/2000/svg">
<path d="M10.4439 8.70103L10.4065 16.3679C10.4058 16.5104 10.3621 16.6498 10.2804 16.7706C10.1986 16.8914 10.082 16.9888 9.94355 17.0519C9.80513 17.115 9.6504 17.1412 9.49671 17.1278C9.34301 17.1143 9.19643 17.0616 9.07338 16.9755L8.2888 16.4271C7.08418 19.0306 6.61558 21.8736 6.92689 24.6897C7.23821 27.5058 8.31924 30.203 10.0688 32.5286L8.70394 33.4038C6.68679 30.7232 5.48541 27.5927 5.22486 24.3384C4.9643 21.0841 5.65411 17.8248 7.22246 14.8998C7.27679 14.7987 7.35464 14.7099 7.45047 14.6398C7.54629 14.5696 7.65772 14.5198 7.77681 14.494C7.89589 14.4681 8.01969 14.4669 8.13937 14.4903C8.25905 14.5136 8.37165 14.5611 8.46915 14.6293L8.75184 14.8268L8.77677 9.71642L3.45195 11.1252L4.29139 11.7112C4.45036 11.8221 4.56079 11.9821 4.60254 12.162C4.64429 12.3418 4.61457 12.5295 4.5188 12.6908C3.96459 13.625 3.48682 14.5962 3.08947 15.5961L1.52872 15.069C1.87201 14.2051 2.27136 13.3611 2.72461 12.5415L1.12302 11.4232C0.999941 11.3372 0.90523 11.2214 0.849506 11.0886C0.793781 10.9558 0.779244 10.8113 0.807525 10.6714C0.835805 10.5314 0.905785 10.4014 1.00962 10.2961C1.11346 10.1907 1.24705 10.1141 1.39543 10.0748L9.3836 7.9606C9.50763 7.92777 9.63825 7.92204 9.7651 7.94386C9.89195 7.96567 10.0116 8.01443 10.1144 8.08627C10.2173 8.15812 10.3007 8.25107 10.3578 8.35778C10.415 8.46448 10.4445 8.582 10.4439 8.70103ZM2.6496 33.3106L4.13524 32.6219C2.00627 28.7232 1.22485 24.3159 1.89639 19.9947C2.03031 19.1212 2.22165 18.256 2.46935 17.4039L0.86392 17.0062C0.598833 17.9186 0.394136 18.8449 0.250964 19.7802C-0.468796 24.4105 0.368402 29.133 2.6496 33.3106ZM20.9531 16.1762C20.4242 16.4135 19.9213 16.6973 19.4513 17.0235L20.4507 18.2487C20.8353 17.9817 21.2469 17.7495 21.6798 17.5553L20.9531 16.1762ZM15.7953 24.5326H17.4576V23.7659C17.457 22.0564 18.1463 20.4078 19.3912 19.1414L18.1587 18.1126C16.637 19.6608 15.7945 21.6761 15.7953 23.7659V24.5326ZM47.3782 45.2333V38.3331H45.7159V44.4666H37.4046V35.2663H38.2358V33.7329H36.7867C34.9009 32.7783 32.785 32.2767 30.634 32.2743C28.4829 32.2719 26.3657 32.7687 24.4774 33.719L24.4494 33.7329H18.2887C17.778 33.7335 17.2743 33.8424 16.8166 34.0512C16.3589 34.2601 15.9594 34.5633 15.649 34.9374C15.3387 35.3115 15.1258 35.7465 15.0269 36.2086C14.9279 36.6708 14.9456 37.1478 15.0785 37.6026L11.8416 36.2343C11.9082 36.1265 11.9901 36.0273 12.0851 35.9394L13.8897 34.2747C14.0454 34.131 14.133 33.9361 14.1331 33.7329V23.7659C14.1374 21.5882 14.9127 19.4713 16.3411 17.7373C17.7694 16.0034 19.7727 14.7473 22.0461 14.1602C22.1691 14.1287 22.2826 14.0716 22.3777 13.9932C22.4729 13.9148 22.5472 13.8173 22.595 13.7081C22.6427 13.599 22.6625 13.4811 22.6529 13.3638C22.6434 13.2464 22.6046 13.1326 22.5397 13.0313L20.5763 9.9655H29.2992L27.3356 13.0313C27.2707 13.1326 27.232 13.2464 27.2224 13.3638C27.2128 13.4811 27.2327 13.599 27.2804 13.7081C27.3281 13.8173 27.4025 13.9148 27.4976 13.9932C27.5928 14.0716 27.7063 14.1287 27.8292 14.1602C30.1027 14.7473 32.106 16.0033 33.5344 17.7373C34.9628 19.4712 35.7381 21.5881 35.7424 23.7659V32.1995H37.4046V23.7659C37.3995 21.4221 36.6207 19.1354 35.1719 17.21C33.723 15.2846 31.6728 13.8119 29.2942 12.988L31.4712 9.58876C31.5458 9.47233 31.5856 9.33978 31.5867 9.20455C31.5878 9.06932 31.5501 8.93623 31.4775 8.81878C31.4048 8.70133 31.2998 8.60369 31.173 8.53579C31.0462 8.46788 30.9022 8.43211 30.7556 8.43211H19.1198C18.9732 8.43211 18.8293 8.46788 18.7025 8.53579C18.5757 8.60369 18.4707 8.70133 18.398 8.81878C18.3253 8.93623 18.2876 9.06932 18.2887 9.20455C18.2898 9.33978 18.3297 9.47233 18.4042 9.58876L20.5813 12.988C18.2027 13.8119 16.1525 15.2846 14.7036 17.21C13.2547 19.1354 12.4759 21.4221 12.4708 23.7659V33.4154L10.9097 34.8555C10.6746 35.0721 10.4778 35.3215 10.3266 35.5945L7.52156 34.4093C6.70131 34.0724 5.7739 34.0315 4.92253 34.2947C4.07116 34.5579 3.35775 35.106 2.92325 35.8309C1.96745 37.4719 2.64658 39.6419 4.45792 40.4789L14.1491 44.9488C15.6501 45.6384 17.3037 45.9982 18.9806 46H30.7556V44.4666H18.9806C17.5617 44.465 16.1625 44.1604 14.8924 43.5768L5.20168 39.1071C4.24526 38.6663 3.88517 37.4153 4.38676 36.5579C4.61744 36.1726 4.99657 35.8812 5.44907 35.7415C5.90156 35.6018 6.39443 35.624 6.83007 35.8036L16.2803 39.7968C16.3889 39.8427 16.507 39.8665 16.6265 39.8665H25.7689V38.3331H18.2887C17.8479 38.3331 17.4251 38.1715 17.1133 37.884C16.8016 37.5964 16.6265 37.2064 16.6265 36.7997C16.6265 36.393 16.8016 36.003 17.1133 35.7154C17.4251 35.4279 17.8479 35.2663 18.2887 35.2663H24.6603C24.7986 35.2663 24.9347 35.2345 25.0563 35.1737L25.2713 35.0663C26.8739 34.2596 28.6664 33.8277 30.4919 33.8084C32.3174 33.789 34.1202 34.1829 35.7424 34.9554V44.4666H32.4179V46H46.547C46.7675 46 46.9789 45.9192 47.1347 45.7754C47.2906 45.6316 47.3782 45.4366 47.3782 45.2333ZM42.3914 41.3998C42.3914 41.0966 42.2939 40.8001 42.1113 40.5479C41.9286 40.2958 41.669 40.0992 41.3653 39.9832C41.0615 39.8671 40.7273 39.8368 40.4049 39.8959C40.0824 39.9551 39.7862 40.1011 39.5538 40.3156C39.3213 40.53 39.163 40.8032 39.0988 41.1007C39.0347 41.3981 39.0676 41.7065 39.1934 41.9866C39.3192 42.2668 39.5323 42.5063 39.8057 42.6748C40.079 42.8433 40.4004 42.9332 40.7292 42.9332C41.1699 42.9327 41.5924 42.771 41.904 42.4836C42.2156 42.1961 42.3909 41.8064 42.3914 41.3998ZM25.7689 20.6992V23.7659C26.6506 23.7659 27.4962 24.089 28.1196 24.6642C28.7431 25.2393 29.0934 26.0193 29.0934 26.8327C29.0934 27.6461 28.7431 28.4261 28.1196 29.0012C27.4962 29.5764 26.6506 29.8995 25.7689 29.8995V31.4329H24.1066V29.8995C23.2252 29.8986 22.3802 29.5752 21.7569 29.0002C21.1337 28.4253 20.7831 27.6458 20.7821 26.8327H22.4444C22.4449 27.2392 22.6202 27.629 22.9318 27.9164C23.2434 28.2039 23.6659 28.3656 24.1066 28.3661V25.2993C23.2249 25.2993 22.3793 24.9762 21.7558 24.4011C21.1324 23.826 20.7821 23.0459 20.7821 22.2326C20.7821 21.4192 21.1324 20.6392 21.7558 20.064C22.3793 19.4889 23.2249 19.1658 24.1066 19.1658V17.6324H25.7689V19.1658C26.6503 19.1667 27.4953 19.4901 28.1186 20.065C28.7418 20.64 29.0924 21.4195 29.0934 22.2326H27.4311C27.4306 21.826 27.2553 21.4363 26.9437 21.1488C26.6321 20.8614 26.2096 20.6997 25.7689 20.6992ZM24.1066 20.6992C23.6657 20.6992 23.2429 20.8607 22.9312 21.1483C22.6195 21.4359 22.4444 21.8259 22.4444 22.2326C22.4444 22.6392 22.6195 23.0293 22.9312 23.3168C23.2429 23.6044 23.6657 23.7659 24.1066 23.7659V20.6992ZM25.7689 25.2993V28.3661C26.2097 28.3661 26.6325 28.2045 26.9443 27.917C27.256 27.6294 27.4311 27.2394 27.4311 26.8327C27.4311 26.426 27.256 26.036 26.9443 25.7484C26.6325 25.4609 26.2097 25.2993 25.7689 25.2993ZM28.1927 1.74427C33.061 2.37901 37.5864 4.4193 41.1203 7.57264C44.6542 10.726 47.015 14.8305 47.8645 19.2978L49.5019 19.0338C48.7798 15.2324 47.0325 11.6596 44.4209 8.64454C41.8093 5.62943 38.4174 3.26888 34.5574 1.78023C30.6975 0.291586 26.4935 -0.277316 22.3327 0.125912C18.1719 0.529139 14.1879 1.89153 10.7476 4.08766C10.571 4.20047 10.4487 4.37196 10.4061 4.56617C10.3636 4.76037 10.4043 4.96222 10.5195 5.1294L13.294 9.15338C13.3544 9.24105 13.4335 9.31647 13.5265 9.37507C13.6195 9.43367 13.7245 9.47423 13.835 9.49427C13.9455 9.51431 14.0592 9.51342 14.1694 9.49166C14.2795 9.46989 14.3837 9.42771 14.4756 9.36767C18.2435 6.89853 22.8953 5.85822 27.4706 6.46153C37.3554 7.74995 44.2614 16.2168 42.8643 25.3354C42.6417 26.7966 42.2104 28.2241 41.5816 29.5809L40.7767 29.0188C40.6537 28.9329 40.5071 28.8803 40.3535 28.8669C40.1998 28.8535 40.0452 28.8798 39.9068 28.9429C39.7685 29.006 39.6519 29.1034 39.5701 29.2241C39.4884 29.3449 39.4447 29.4843 39.444 29.6266L39.4068 37.2929C39.4063 37.4119 39.4357 37.5294 39.4929 37.6361C39.5501 37.7428 39.6335 37.8358 39.7364 37.9076C39.8393 37.9794 39.9589 38.0282 40.0857 38.05C40.2126 38.0718 40.3432 38.066 40.4672 38.0332L48.4556 35.9195C48.604 35.8803 48.7375 35.8037 48.8414 35.6983C48.9452 35.593 49.0151 35.463 49.0434 35.3231C49.0717 35.1831 49.0572 35.0386 49.0015 34.9059C48.9458 34.7731 48.8511 34.6572 48.728 34.5713L47.1442 33.4654C49.1961 29.7439 50.1186 25.5797 49.8142 21.414L48.1558 21.5182C48.2651 23.0145 48.2053 24.5172 47.9774 26.0021C47.5887 28.5661 46.6985 31.0438 45.3501 33.3144C45.2543 33.4757 45.2245 33.6634 45.2662 33.8433C45.308 34.0231 45.4184 34.1831 45.5773 34.2941L46.3994 34.8683L41.0741 36.2771L41.0989 31.1666L41.4015 31.3775C41.499 31.4455 41.6116 31.4929 41.7312 31.5162C41.8508 31.5395 41.9745 31.5382 42.0935 31.5124C42.2125 31.4865 42.3239 31.4368 42.4197 31.3667C42.5154 31.2966 42.5933 31.2078 42.6476 31.1068C43.5872 29.3583 44.2161 27.4818 44.5102 25.5492C46.0351 15.5941 38.4955 6.34997 27.7031 4.94367C23.0058 4.32374 18.2238 5.29033 14.2379 7.66542L12.3583 4.93916C17.0481 2.15212 22.6698 1.01784 28.1927 1.74427Z" fill="#32B5FD"/>
</svg>
