<svg width="76" height="27" viewBox="0 0 76 27" fill="none" xmlns="http://www.w3.org/2000/svg">
<path d="M0.583611 26.9932C0.309524 27.0378 0.0511858 26.8518 0.00659396 26.5777C-0.0379978 26.3036 0.148042 26.0453 0.422126 26.0007L0.583611 26.9932ZM75.3444 3.15661C75.5508 3.34239 75.5675 3.6603 75.3817 3.8667L72.3543 7.23002C72.1685 7.43641 71.8506 7.45312 71.6442 7.26734C71.4378 7.08156 71.4211 6.76364 71.6069 6.55725L74.2979 3.56763L71.3083 0.87655C71.1019 0.69077 71.0852 0.372855 71.271 0.166463C71.4568 -0.0399247 71.7747 -0.0566347 71.9811 0.129146L75.3444 3.15661ZM0.502869 26.497L0.422126 26.0007C12.99 23.9559 21.7577 22.1609 27.7094 20.5748C30.6855 19.7817 32.9477 19.0434 34.6245 18.3561C36.31 17.6651 37.3677 17.04 37.9665 16.4892C38.5572 15.9458 38.6286 15.5511 38.558 15.2627C38.473 14.9155 38.1387 14.5074 37.4816 14.0563C36.1842 13.1656 34.0321 12.3721 31.9105 11.632C30.8652 11.2674 29.8315 10.9167 28.9519 10.5813C28.0826 10.2498 27.3111 9.91441 26.8102 9.56856C26.5657 9.39975 26.3218 9.18628 26.1937 8.9146C26.125 8.76898 26.087 8.60081 26.1077 8.41976C26.1283 8.23963 26.203 8.08231 26.3035 7.95074C26.4928 7.70291 26.7971 7.51517 27.1464 7.35923C27.508 7.19782 27.9778 7.04479 28.5608 6.89623C30.8824 6.30469 35.2694 5.71916 42.66 5.09128C50.0631 4.46234 60.5124 3.78863 74.9816 3.0282L75.008 3.53031L75.0344 4.03242C60.5687 4.79266 50.132 5.4657 42.7451 6.09327C35.3458 6.72189 31.0387 7.3026 28.8091 7.87069C28.2544 8.01204 27.8453 8.1485 27.5564 8.27748C27.2552 8.41193 27.1375 8.51547 27.1027 8.56112C27.0911 8.57629 27.1031 8.56626 27.1068 8.53414C27.1106 8.50109 27.1013 8.48164 27.1032 8.48562C27.1162 8.51312 27.1807 8.60236 27.3816 8.74106C27.7714 9.01024 28.438 9.30912 29.3102 9.64166C30.172 9.97027 31.1831 10.3133 32.2417 10.6825C34.3278 11.4102 36.6202 12.2452 38.0508 13.2272C38.7576 13.7125 39.3582 14.3019 39.5348 15.0237C39.7258 15.8043 39.3856 16.5502 38.6473 17.2293C37.917 17.9011 36.7284 18.5804 35.0059 19.2865C33.2747 19.9962 30.9675 20.7473 27.9684 21.5465C21.9697 23.1451 13.1645 24.9464 0.583611 26.9932L0.502869 26.497Z" fill="white"/>
</svg>
