<svg width="74" height="74" viewBox="0 0 74 74" fill="none" xmlns="http://www.w3.org/2000/svg">
<path d="M36.9938 6.16675C27.7192 6.16675 21.7067 12.392 14.5965 14.6613C11.7043 15.5863 10.2583 16.0457 9.67243 16.6963C9.08659 17.3438 8.91701 18.2966 8.57476 20.1959C4.90559 40.5336 12.9223 59.3357 32.0389 66.6556C34.0893 67.4418 35.1161 67.8334 37.0031 67.8334C38.8901 67.8334 39.9199 67.4387 41.9734 66.6525C61.087 59.3357 69.0944 40.5336 65.4253 20.1959C65.083 18.2966 64.9103 17.3438 64.3245 16.6932C63.7387 16.0427 62.2957 15.5832 59.4035 14.6613C52.2903 12.392 46.2685 6.16675 36.9938 6.16675Z" stroke="white" stroke-width="1.8" stroke-linecap="round" stroke-linejoin="round"/>
<path d="M31.6042 30.707C31.6042 30.522 31.6289 29.4551 31.635 28.117C31.635 26.8898 31.5302 25.712 32.116 24.6328C34.3052 20.273 40.5952 20.717 42.1492 25.157C42.4175 25.8877 42.436 27.044 42.4267 28.117C42.4175 29.4829 42.4452 30.707 42.4452 30.707M31.8725 32.005C28.5425 32.005 26.8775 34.41 26.5075 35.89C26.1375 37.37 26.1375 42.735 26.3595 44.955C27.0995 47.73 28.9495 48.877 30.7625 49.247C32.4275 49.395 39.4575 49.3395 41.4925 49.3395C44.4525 49.395 46.6725 48.285 47.5975 44.955C47.7825 43.845 47.9675 37.74 47.505 35.89C46.5245 32.93 44.0825 32.005 42.2325 32.005H31.8725Z" stroke="white" stroke-width="1.8" stroke-linecap="round" stroke-linejoin="round"/>
</svg>
