<svg width="59" height="59" viewBox="0 0 59 59" fill="none" xmlns="http://www.w3.org/2000/svg">
<path d="M2.60294 31.5824V54.6618C2.60294 56.1368 3.73088 57.2648 5.20588 57.2648H22.9926C24.4676 57.2648 25.5956 56.1368 25.5956 54.6618V53.9677H39.3912C41.2132 56.1368 43.7294 57.2648 46.3323 57.2648C51.2779 57.2648 55.3559 53.1868 55.3559 48.2412C55.3559 43.4692 51.7118 39.6515 47.2 39.2177V12.5809H55.5294C56.05 12.5809 56.3971 12.2339 56.3971 11.7133V7.20153C56.3971 4.16476 53.9676 1.73535 50.9309 1.73535H12.5809C9.54411 1.73535 7.1147 4.16476 7.1147 7.20153V25.5089C7.1147 26.0295 7.46176 26.3765 7.98235 26.3765C8.50294 26.3765 8.84999 26.0295 8.84999 25.5089V7.20153C8.84999 5.11918 10.4985 3.47065 12.5809 3.47065H47.0265C46.1588 4.42506 45.5515 5.72653 45.5515 7.20153V39.2177C40.9529 39.6515 37.3956 43.5559 37.3956 48.2412C37.3956 49.6295 37.7426 51.0177 38.35 52.2324H25.5956V31.5824C25.5956 30.1074 24.4676 28.9795 22.9926 28.9795H5.20588C3.73088 28.9795 2.60294 30.1074 2.60294 31.5824ZM47.2868 7.20153C47.2868 2.3427 54.6618 2.25594 54.6618 7.20153V10.9324H47.2868V7.20153ZM46.4191 40.953C50.4103 40.953 53.7073 44.1633 53.7073 48.2412C53.7073 54.8354 45.5515 58.0456 41.0397 53.1868C39.7382 51.7986 39.0441 50.0633 39.0441 48.2412C39.1309 44.1633 42.3412 40.953 46.4191 40.953ZM23.8603 31.5824V54.6618C23.8603 55.1824 23.5132 55.5295 22.9926 55.5295H5.20588C4.68529 55.5295 4.33823 55.1824 4.33823 54.6618V31.5824C4.33823 31.0618 4.68529 30.7148 5.20588 30.7148H22.9926C23.4265 30.7148 23.8603 31.0618 23.8603 31.5824Z" fill="white"/>
<path d="M6.94116 38.6103H21.2573C21.7779 38.6103 22.125 38.2633 22.125 37.7427V33.3177C22.125 32.7971 21.7779 32.45 21.2573 32.45H6.94116C6.42058 32.45 6.07352 32.7971 6.07352 33.3177V37.7427C6.07352 38.1765 6.42058 38.6103 6.94116 38.6103ZM7.80881 34.1853H20.3897V36.875H7.80881V34.1853ZM6.94116 42.9486H9.02352C9.54411 42.9486 9.89116 42.6015 9.89116 42.0809C9.89116 41.5603 9.54411 41.2133 9.02352 41.2133H6.94116C6.42058 41.2133 6.07352 41.5603 6.07352 42.0809C6.07352 42.6015 6.42058 42.9486 6.94116 42.9486ZM15.1838 41.2133H13.0147C12.4941 41.2133 12.147 41.5603 12.147 42.0809C12.147 42.6015 12.4941 42.9486 13.0147 42.9486H15.097C15.6176 42.9486 15.9647 42.6015 15.9647 42.0809C15.9647 41.5603 15.6176 41.2133 15.1838 41.2133ZM21.2573 41.2133H19.175C18.6544 41.2133 18.3073 41.5603 18.3073 42.0809C18.3073 42.6015 18.6544 42.9486 19.175 42.9486H21.2573C21.7779 42.9486 22.125 42.6015 22.125 42.0809C22.125 41.5603 21.6912 41.2133 21.2573 41.2133ZM6.94116 47.2868H9.02352C9.54411 47.2868 9.89116 46.9397 9.89116 46.4192C9.89116 45.8986 9.54411 45.5515 9.02352 45.5515H6.94116C6.42058 45.5515 6.07352 45.8986 6.07352 46.4192C6.07352 46.9397 6.42058 47.2868 6.94116 47.2868ZM15.1838 45.5515H13.0147C12.4941 45.5515 12.147 45.8986 12.147 46.4192C12.147 46.9397 12.4941 47.2868 13.0147 47.2868H15.097C15.6176 47.2868 15.9647 46.9397 15.9647 46.4192C15.9647 45.8986 15.6176 45.5515 15.1838 45.5515ZM6.94116 52.4927H9.02352C9.54411 52.4927 9.89116 52.1456 9.89116 51.625C9.89116 51.1045 9.54411 50.7574 9.02352 50.7574H6.94116C6.42058 50.7574 6.07352 51.1045 6.07352 51.625C6.07352 52.1456 6.42058 52.4927 6.94116 52.4927ZM15.1838 50.7574H13.0147C12.4941 50.7574 12.147 51.1045 12.147 51.625C12.147 52.1456 12.4941 52.4927 13.0147 52.4927H15.097C15.6176 52.4927 15.9647 52.1456 15.9647 51.625C15.9647 51.1045 15.6176 50.7574 15.1838 50.7574ZM20.2162 45.5515C19.6956 45.5515 19.3485 45.8986 19.3485 46.4192V51.625C19.3485 52.1456 19.6956 52.4927 20.2162 52.4927C20.7368 52.4927 21.0838 52.1456 21.0838 51.625V46.4192C21.0838 45.8986 20.65 45.5515 20.2162 45.5515ZM12.147 20.8236C12.147 21.3442 12.4941 21.6912 13.0147 21.6912H23.6C24.1206 21.6912 24.4676 21.3442 24.4676 20.8236C24.4676 20.303 24.1206 19.9559 23.6 19.9559H13.0147C12.5809 19.9559 12.147 20.3897 12.147 20.8236ZM27.4176 24.4677H13.1882C12.6676 24.4677 12.3206 24.8147 12.3206 25.3353C12.3206 25.8559 12.6676 26.203 13.1882 26.203H27.4176C27.9382 26.203 28.2853 25.8559 28.2853 25.3353C28.2853 24.8147 27.9382 24.4677 27.4176 24.4677ZM42.3412 36.7015C42.3412 36.1809 41.9941 35.8339 41.4735 35.8339H28.8926C28.372 35.8339 28.025 36.1809 28.025 36.7015C28.025 37.2221 28.372 37.5692 28.8926 37.5692H41.4735C41.9941 37.5692 42.3412 37.2221 42.3412 36.7015ZM37.1353 42.0809C37.1353 41.5603 36.7882 41.2133 36.2676 41.2133H28.8926C28.372 41.2133 28.025 41.5603 28.025 42.0809C28.025 42.6015 28.372 42.9486 28.8926 42.9486H36.2676C36.7882 42.9486 37.1353 42.5147 37.1353 42.0809ZM28.8926 46.5059C28.372 46.5059 28.025 46.853 28.025 47.3736C28.025 47.8942 28.372 48.2412 28.8926 48.2412H33.8382C34.3588 48.2412 34.7059 47.8942 34.7059 47.3736C34.7059 46.853 34.3588 46.5059 33.8382 46.5059H28.8926ZM39.825 20.2162C39.3912 19.9559 38.8706 20.1295 38.6103 20.4765L33.0573 29.6736C32.797 30.1074 32.9706 30.628 33.3176 30.8883C33.7515 31.1486 34.272 30.975 34.5323 30.628L40.0853 21.4309C40.3456 20.9971 40.1721 20.4765 39.825 20.2162ZM30.3676 22.5589C30.3676 24.0339 31.4956 25.1618 32.9706 25.1618C34.4456 25.1618 35.5735 24.0339 35.5735 22.5589C35.5735 21.0839 34.4456 19.9559 32.9706 19.9559C31.4956 19.9559 30.3676 21.1706 30.3676 22.5589ZM32.9706 21.6912C33.4912 21.6912 33.8382 22.0383 33.8382 22.5589C33.8382 23.0795 33.4912 23.4265 32.9706 23.4265C32.45 23.4265 32.1029 23.0795 32.1029 22.5589C32.1029 22.125 32.45 21.6912 32.9706 21.6912ZM40.2588 25.9427C38.7838 25.9427 37.6559 27.0706 37.6559 28.5456C37.6559 30.0206 38.7838 31.1486 40.2588 31.1486C41.7338 31.1486 42.8618 30.0206 42.8618 28.5456C42.8618 27.0706 41.647 25.9427 40.2588 25.9427ZM40.2588 29.4133C39.7382 29.4133 39.3912 29.0662 39.3912 28.5456C39.3912 28.025 39.7382 27.678 40.2588 27.678C40.7794 27.678 41.1265 28.025 41.1265 28.5456C41.1265 29.0662 40.6926 29.4133 40.2588 29.4133ZM18.4809 16.3986C19.0015 16.3986 19.3485 16.0515 19.3485 15.5309V8.85004H21.6912C22.2118 8.85004 22.5588 8.50298 22.5588 7.98239C22.5588 7.4618 22.2118 7.11475 21.6912 7.11475H15.2706C14.75 7.11475 14.4029 7.4618 14.4029 7.98239C14.4029 8.50298 14.75 8.85004 15.2706 8.85004H17.6132V15.5309C17.6132 15.9647 18.047 16.3986 18.4809 16.3986ZM27.6779 7.54857C27.3309 7.02798 26.55 7.02798 26.2029 7.54857C26.0294 7.80886 25.3353 9.45739 22.8191 15.1839C22.6456 15.6177 22.8191 16.1383 23.2529 16.3118C23.6868 16.4853 24.2073 16.3118 24.3809 15.878L25.1618 14.1427H28.7191L29.5 15.878C29.6735 16.3118 30.1941 16.4853 30.6279 16.3118C31.0618 16.1383 31.2353 15.6177 31.0618 15.1839C30.1941 13.1015 27.8515 7.80886 27.6779 7.54857ZM25.9426 12.3206L26.897 10.0647L27.8515 12.3206H25.9426ZM32.8838 16.225C33.2309 16.4853 33.8382 16.3986 34.0985 16.0515L36.2676 13.1883L38.4368 16.0515C38.697 16.3986 39.3044 16.4853 39.6515 16.225C39.9985 15.9647 40.0853 15.3574 39.825 15.0103L37.3088 11.7133L39.7382 8.50298C39.9985 8.15592 39.9118 7.54857 39.5647 7.28828C39.2176 7.02798 38.6103 7.11475 38.35 7.46181L36.1809 10.325L34.0118 7.46181C33.7515 7.11475 33.1441 7.02798 32.797 7.28828C32.45 7.54857 32.3632 8.15592 32.6235 8.50298L35.0529 11.7133L32.6235 14.9236C32.45 15.3574 32.5368 15.878 32.8838 16.225ZM46.4191 51.1912C45.725 51.1912 45.1176 50.7574 45.1176 50.15C45.1176 49.6295 44.7706 49.2824 44.25 49.2824C43.7294 49.2824 43.3823 49.6295 43.3823 50.15C43.3823 51.3647 44.25 52.4059 45.5515 52.753V53.4471C45.5515 53.9677 45.8985 54.3147 46.4191 54.3147C46.9397 54.3147 47.2868 53.9677 47.2868 53.4471V52.753C48.5015 52.4059 49.4559 51.3647 49.4559 50.15C49.4559 48.2412 47.4603 47.6339 46.7662 47.4603C45.725 47.1133 45.2044 46.7662 45.2044 46.4192C45.2044 45.8118 45.8118 45.378 46.5059 45.378C47.2 45.378 47.8073 45.8118 47.8073 46.4192C47.8073 46.9397 48.1544 47.2868 48.675 47.2868C50.15 47.2868 49.7162 44.4236 47.3735 43.8162V43.1221C47.3735 42.6015 47.0265 42.2545 46.5059 42.2545C45.9853 42.2545 45.6382 42.6015 45.6382 43.1221V43.8162C44.4235 44.1633 43.4691 45.2045 43.4691 46.4192C43.4691 48.2412 45.3779 48.8486 46.1588 49.1089C46.2456 49.1956 47.6338 49.4559 47.6338 50.15C47.6338 50.6706 47.1132 51.1912 46.4191 51.1912Z" fill="white"/>
</svg>
