<svg width="48" height="45" viewBox="0 0 48 45" fill="none" xmlns="http://www.w3.org/2000/svg">
<path fill-rule="evenodd" clip-rule="evenodd" d="M7.05733 14.11C3.11754 13.8252 0 10.7714 0 7.06579C0 3.17331 3.44001 0 7.65973 0C11.8778 0 15.3194 3.17331 15.3194 7.06579C15.3194 10.6622 12.3815 13.6447 8.60767 14.0777V19.6608H14.1104L14.1273 19.6548C14.3423 18.9535 14.6461 18.278 15.0324 17.6422L14.411 16.3531C14.3473 16.221 14.3286 16.0743 14.3572 15.9321C14.3858 15.79 14.4604 15.6592 14.5712 15.557L16.6461 13.643C16.7569 13.5408 16.8987 13.472 17.0527 13.4456C17.2068 13.4192 17.3659 13.4365 17.5091 13.4953L18.9066 14.0685C19.5948 13.7124 20.3264 13.4328 21.0859 13.2354L21.6374 11.9173C21.6937 11.7826 21.793 11.6667 21.922 11.585C22.0511 11.5034 22.204 11.4596 22.3605 11.4596H25.2955C25.6163 11.4596 25.904 11.642 26.019 11.9183L26.5677 13.2355C27.3271 13.4329 28.0584 13.7125 28.7465 14.0685L30.144 13.4953C30.2872 13.4365 30.4463 13.4192 30.6004 13.4456C30.7544 13.472 30.8962 13.5408 31.007 13.643L33.0819 15.557C33.1926 15.6591 33.2671 15.7897 33.2958 15.9317C33.3245 16.0736 33.3059 16.2202 33.2424 16.3522L32.6233 17.6417C33.0098 18.2775 33.3132 18.9534 33.5269 19.6552L33.5427 19.6608H39.3897V14.0774C35.616 13.6435 32.6806 10.6615 32.6806 7.06579C32.6806 3.17331 36.1206 0 40.3403 0C44.5584 0 48 3.17331 48 7.06579C48 10.7722 44.8798 13.8264 40.9401 14.1101V20.3164C40.9489 20.415 40.9355 20.5142 40.9007 20.6077C40.8659 20.7013 40.8105 20.7871 40.7379 20.8599C40.6653 20.9327 40.5771 20.9908 40.4789 21.0306C40.3808 21.0703 40.2747 21.0909 40.1675 21.0909H35.4488V22.1762H40.1675C40.2747 22.1763 40.3808 22.1968 40.479 22.2366C40.5771 22.2764 40.6653 22.3345 40.7379 22.4073C40.8105 22.4801 40.8659 22.5659 40.9007 22.6595C40.9355 22.7531 40.9489 22.8523 40.9401 22.9508V28.9015L47.0783 31.3287C47.2178 31.3838 47.3366 31.4755 47.4201 31.5923C47.5036 31.7091 47.5481 31.846 47.5481 31.9859V36.7841C47.5481 40.4691 44.641 43.6535 40.7082 44.2859L40.4738 44.3237C40.3855 44.338 40.2951 44.338 40.2068 44.3237L39.9727 44.286C36.0396 43.6535 33.1326 40.4691 33.1326 36.7841V31.9859C33.1326 31.846 33.1771 31.7091 33.2606 31.5923C33.3441 31.4755 33.4629 31.3838 33.6023 31.3287L39.3897 29.0403V23.6064H35.445C35.4308 23.7382 35.3772 23.8638 35.2902 23.9692C35.2031 24.0746 35.086 24.1556 34.952 24.2032L33.5264 24.7093C33.3115 25.4095 33.0082 26.0841 32.6229 26.7191L33.2424 28.0093C33.3059 28.1413 33.3245 28.288 33.2958 28.4299C33.2672 28.5719 33.1926 28.7025 33.0819 28.8046L31.007 30.7186C30.8964 30.8207 30.7548 30.8895 30.6009 30.9159C30.447 30.9424 30.2881 30.9252 30.145 30.8668L28.7476 30.2958C28.0592 30.6521 27.3274 30.9317 26.5675 31.1288L26.0189 32.4438C25.9627 32.5786 25.8634 32.6946 25.7343 32.7764C25.6051 32.8582 25.4522 32.9019 25.2955 32.9019H22.3605C22.2039 32.9019 22.0509 32.8582 21.9218 32.7764C21.7926 32.6946 21.6934 32.5786 21.6371 32.4438L21.0887 31.129C20.3284 30.9311 19.5961 30.6512 18.9069 30.2952L17.5081 30.8668C17.365 30.9252 17.206 30.9423 17.0522 30.9159C16.8983 30.8894 16.7567 30.8206 16.6461 30.7186L14.5712 28.8046C14.4604 28.7024 14.3858 28.5716 14.3572 28.4295C14.3286 28.2873 14.3473 28.1405 14.411 28.0084L15.0322 26.7198C14.6462 26.0848 14.3426 25.4101 14.1275 24.7096L12.701 24.2032C12.567 24.1556 12.4499 24.0746 12.3629 23.9692C12.2758 23.8638 12.2222 23.7382 12.208 23.6064H8.60767V29.5189C12.3821 29.952 15.3194 32.9351 15.3194 36.5308C15.3194 40.4226 11.8786 43.5967 7.65973 43.5967C3.44088 43.5967 0 40.4226 0 36.5308C0 32.826 3.11821 29.7716 7.05733 29.4867V22.8913C7.05733 22.4967 7.4047 22.1762 7.8325 22.1762H12.2043V21.0909H7.8325C7.4047 21.0909 7.05733 20.7705 7.05733 20.3759V14.11ZM33.1074 21.0386L32.5982 20.8578C32.4805 20.8161 32.3757 20.7485 32.2928 20.6609C32.2099 20.5733 32.1514 20.4684 32.1223 20.3553C31.9144 19.5453 31.5671 18.7713 31.0935 18.0627C31.0275 17.9639 30.9885 17.8517 30.98 17.7359C30.9716 17.6201 30.9938 17.5042 31.0447 17.398L31.6096 16.2215L30.2873 15.0017L29.0123 15.5245C28.8972 15.5718 28.7713 15.5924 28.6456 15.5846C28.5198 15.5769 28.398 15.5409 28.2908 15.4799C27.5233 15.0435 26.6851 14.7231 25.8079 14.5308C25.6853 14.5039 25.5716 14.4499 25.4768 14.3734C25.3819 14.2968 25.3087 14.2001 25.2635 14.0916L24.7629 12.8898H22.8923L22.3892 14.0925C22.3439 14.2008 22.2707 14.2973 22.1759 14.3737C22.0812 14.45 21.9677 14.504 21.8452 14.5308C20.968 14.723 20.1298 15.0435 19.3624 15.4799C19.2551 15.5409 19.1333 15.5769 19.0076 15.5846C18.8818 15.5924 18.7559 15.5718 18.6408 15.5245L17.3658 15.0017L16.044 16.2209L16.6109 17.3971C16.6621 17.5033 16.6844 17.6194 16.676 17.7354C16.6676 17.8514 16.6286 17.9637 16.5625 18.0627C16.0888 18.7723 15.7404 19.5468 15.5302 20.3574C15.5009 20.4701 15.4423 20.5745 15.3595 20.6617C15.2767 20.7489 15.1722 20.8162 15.0549 20.8578L14.5458 21.0386C14.5368 21.0419 14.5279 21.0451 14.5189 21.0481L13.7546 21.3195V23.0449L15.0549 23.5065C15.1721 23.5481 15.2766 23.6153 15.3594 23.7024C15.4421 23.7895 15.5007 23.8939 15.5301 24.0065C15.7414 24.8161 16.0879 25.5908 16.5619 26.2979C16.6282 26.3969 16.6674 26.5094 16.676 26.6256C16.6845 26.7418 16.6622 26.8581 16.6109 26.9645L16.044 28.1406L17.3663 29.3605L18.6417 28.8394C18.7565 28.7925 18.8818 28.772 19.0071 28.7797C19.1323 28.7873 19.2536 28.8229 19.3606 28.8834C20.1301 29.3183 20.9672 29.6409 21.8476 29.8334C21.9703 29.8602 22.084 29.9142 22.1789 29.9907C22.2738 30.0672 22.3471 30.1639 22.3924 30.2724L22.8928 31.4718H24.7632L25.2636 30.2724C25.3089 30.1639 25.3821 30.0673 25.4769 29.9909C25.5718 29.9144 25.6854 29.8604 25.8079 29.8336C26.6848 29.6419 27.5228 29.3216 28.2897 28.8849C28.3969 28.8238 28.5186 28.7877 28.6444 28.7798C28.7701 28.7718 28.896 28.7923 29.0113 28.8394L30.2867 29.3605L31.6096 28.1402L31.0447 26.9636C30.9939 26.8578 30.9717 26.7421 30.98 26.6266C30.9883 26.5111 31.0269 26.3991 31.0925 26.3004C31.5639 25.5906 31.9138 24.8183 32.1224 24.0085C32.1515 23.8955 32.2101 23.7907 32.293 23.7032C32.3759 23.6158 32.4806 23.5482 32.5982 23.5065L33.8984 23.0449V21.3195L33.1342 21.0481C33.1252 21.0451 33.1163 21.0419 33.1074 21.0386ZM7.65973 12.7015C11.0241 12.7015 13.769 10.1705 13.769 7.06579C13.769 3.96114 11.0241 1.43014 7.65973 1.43014C4.29414 1.43014 1.55034 3.96114 1.55034 7.06579C1.55034 10.1705 4.29414 12.7015 7.65973 12.7015ZM6.88418 3.55069V3.33447C6.88418 2.93984 7.23155 2.61939 7.65935 2.61939C8.08724 2.61939 8.43451 2.93984 8.43451 3.33447V3.54336C9.19631 3.72561 9.88989 4.19479 10.2559 4.99718C10.4217 5.36098 10.2362 5.78054 9.84183 5.93357C9.44747 6.08659 8.99264 5.91551 8.82675 5.55172C8.52598 4.89216 7.72136 4.76559 7.1457 4.97457C6.8366 5.08675 6.57866 5.30976 6.5963 5.64468C6.60948 5.89782 6.79629 6.03574 7.00801 6.1312C7.24909 6.2398 7.52815 6.2996 7.79112 6.33982C8.99351 6.52109 10.2933 7.04309 10.4684 8.359L10.4687 8.36088C10.6325 9.61976 9.58302 10.3735 8.43451 10.603V10.7972C8.43451 11.1918 8.08724 11.5123 7.65935 11.5123C7.23155 11.5123 6.88418 11.1918 6.88418 10.7972V10.5921C5.92578 10.3794 5.11427 9.776 4.8573 8.82451C4.75382 8.44159 5.00691 8.05322 5.42211 7.95776C5.62159 7.91203 5.83259 7.94122 6.00875 8.03891C6.18491 8.1366 6.31183 8.29481 6.36162 8.47878C6.51229 9.03662 7.1333 9.26035 7.72514 9.24748C7.99577 9.24158 8.29004 9.18947 8.53848 9.0772C8.76842 8.97334 8.96483 8.80753 8.92946 8.53223C8.88935 8.23404 8.66086 8.07601 8.40457 7.96866C8.13433 7.8555 7.82727 7.79427 7.53968 7.75101L7.53784 7.75074C6.35774 7.57046 5.11534 7.00707 5.04771 5.71369C4.99538 4.71518 5.65621 3.9783 6.57808 3.64373C6.67814 3.60746 6.78034 3.57639 6.88418 3.55069ZM40.3403 12.7015C43.7047 12.7015 46.4497 10.1705 46.4497 7.06579C46.4497 3.96114 43.7047 1.43014 40.3403 1.43014C36.9747 1.43014 34.231 3.96114 34.231 7.06579C34.231 10.1705 36.9747 12.7015 40.3403 12.7015ZM39.5651 3.55069V3.33447C39.5651 2.93984 39.9125 2.61939 40.3403 2.61939C40.7682 2.61939 41.1154 2.93984 41.1154 3.33447V3.54336C41.8772 3.72561 42.5709 4.19479 42.9368 4.99718C43.0164 5.17201 43.0175 5.36884 42.9399 5.54443C42.8622 5.72001 42.7122 5.85997 42.5228 5.93357C42.3332 6.007 42.1199 6.00804 41.9295 5.93644C41.7392 5.86484 41.5875 5.72647 41.5077 5.55172C41.207 4.89216 40.4023 4.76559 39.8267 4.97457C39.5175 5.08675 39.2597 5.30976 39.2772 5.64468C39.2904 5.89782 39.4772 6.03574 39.6889 6.1312C39.93 6.2398 40.2092 6.2996 40.472 6.33982C41.6744 6.52109 42.9742 7.04309 43.1493 8.359L43.1496 8.36088C43.3134 9.61976 42.2639 10.3735 41.1154 10.603V10.7972C41.1154 11.1918 40.7682 11.5123 40.3403 11.5123C39.9125 11.5123 39.5651 11.1918 39.5651 10.7972V10.5921C38.6067 10.3794 37.7952 9.776 37.5382 8.82451C37.4887 8.64049 37.5203 8.44584 37.6262 8.28332C37.7321 8.1208 37.9036 8.00371 38.103 7.95776C38.3025 7.91203 38.5135 7.94121 38.6897 8.0389C38.8659 8.1366 38.9928 8.29481 39.0426 8.47878C39.1932 9.03662 39.8142 9.26035 40.4061 9.24748C40.6767 9.24158 40.971 9.18947 41.2194 9.0772C41.4493 8.97334 41.6458 8.80753 41.6104 8.53223C41.5703 8.23404 41.3419 8.07601 41.0855 7.96866C40.8153 7.8555 40.5082 7.79427 40.2207 7.75101L40.2188 7.75074C39.0388 7.57046 37.7963 7.00707 37.7287 5.71369C37.6763 4.71518 38.3371 3.9783 39.259 3.64373C39.3591 3.60747 39.4613 3.5764 39.5651 3.55069ZM40.3403 30.2203L34.6829 32.4573V36.7841C34.6829 39.7771 37.0444 42.3633 40.239 42.8771L40.3403 42.8934L40.4416 42.8771C43.6362 42.3633 45.9977 39.7771 45.9977 36.7841V32.4573L40.3403 30.2203ZM36.576 37.2155C36.4306 37.0815 36.3489 36.8997 36.3487 36.7101C36.3485 36.5204 36.4299 36.3385 36.5751 36.2042C36.7204 36.0701 36.9175 35.9946 37.123 35.9945C37.3286 35.9943 37.5258 36.0694 37.6714 36.2033L39.0251 37.4501L43.0363 34.0951C43.1887 33.9678 43.3896 33.9015 43.5949 33.9108C43.8002 33.9201 43.9931 34.0041 44.1312 34.1446C44.2692 34.2851 44.3411 34.4704 44.3311 34.6598C44.321 34.8492 44.2299 35.0272 44.0776 35.1547L39.52 38.9665C39.3727 39.0898 39.1796 39.156 38.9808 39.1516C38.7819 39.1472 38.5925 39.0725 38.4518 38.9429L36.576 37.2155ZM26.3274 22.2454C28.3511 23.0578 29.8194 24.8262 30.0634 26.9321C30.0749 27.0318 30.0636 27.1327 30.0301 27.2281C29.9967 27.3236 29.9418 27.4115 29.8691 27.4861C29.7964 27.5607 29.7075 27.6203 29.6082 27.6612C29.5088 27.702 29.4013 27.7231 29.2926 27.7231H18.3605C18.2517 27.7231 18.1441 27.702 18.0448 27.6611C17.9454 27.6203 17.8565 27.5606 17.7838 27.4859C17.7111 27.4112 17.6562 27.3233 17.6228 27.2278C17.5894 27.1323 17.5781 27.0314 17.5897 26.9316C17.8349 24.8258 19.3036 23.0576 21.3268 22.2453C20.6766 21.6504 20.2729 20.8262 20.2729 19.918C20.2729 18.1121 21.8689 16.6385 23.8266 16.6385C25.786 16.6385 27.3817 18.1122 27.3817 19.918C27.3817 20.8263 26.978 21.6505 26.3274 22.2454ZM23.8266 23.1975C21.6942 23.1975 19.8916 24.5017 19.3051 26.293H28.3484C27.7629 24.5017 25.96 23.1975 23.8266 23.1975ZM23.8266 21.7674C24.9315 21.7674 25.8313 20.9363 25.8313 19.918C25.8313 18.8997 24.9315 18.0687 23.8266 18.0687C22.7227 18.0687 21.8232 18.8998 21.8232 19.918C21.8232 20.9362 22.7227 21.7674 23.8266 21.7674ZM7.65973 42.1666C11.0246 42.1666 13.769 39.6349 13.769 36.5308C13.769 33.4268 11.0246 30.8951 7.65973 30.8951C4.29473 30.8951 1.55034 33.4268 1.55034 36.5308C1.55034 39.6349 4.29473 42.1666 7.65973 42.1666ZM9.79629 32.592C10.0459 32.2715 10.5307 32.1982 10.8781 32.4285C11.2256 32.6587 11.3051 33.1059 11.0554 33.4264L5.57191 40.4673C5.4519 40.6213 5.27055 40.725 5.06769 40.7556C4.86483 40.7863 4.65708 40.7414 4.49007 40.6309C4.32321 40.5201 4.21082 40.3528 4.17759 40.1657C4.14436 39.9786 4.19301 39.787 4.31285 39.6329L9.79629 32.592ZM5.43597 32.1518C5.70973 32.1512 5.98091 32.2006 6.23385 32.2972C6.48678 32.3938 6.71645 32.5357 6.90956 32.7147C7.10329 32.893 7.25692 33.1049 7.36163 33.3382C7.46634 33.5715 7.52006 33.8215 7.51972 34.074C7.51972 35.1351 6.59039 35.9961 5.43597 35.9961C4.28562 35.9961 3.35231 35.139 3.35231 34.074C3.35231 33.0129 4.28562 32.1518 5.43597 32.1518ZM5.43597 33.582C5.29452 33.582 5.15889 33.6339 5.05888 33.7261C4.95887 33.8184 4.90268 33.9436 4.90265 34.074C4.90259 34.1387 4.91634 34.2027 4.94312 34.2624C4.9699 34.3221 5.00918 34.3763 5.05871 34.422C5.10825 34.4677 5.16707 34.504 5.2318 34.5287C5.29654 34.5534 5.36591 34.5661 5.43597 34.566C5.50603 34.5661 5.57541 34.5534 5.64015 34.5287C5.70489 34.504 5.76371 34.4677 5.81326 34.422C5.8628 34.3763 5.90209 34.3221 5.92888 34.2624C5.95567 34.2027 5.96943 34.1387 5.96938 34.074C5.96952 34.0094 5.95582 33.9453 5.92906 33.8856C5.90231 33.8258 5.86302 33.7715 5.81346 33.7258C5.7639 33.6801 5.70504 33.6438 5.64026 33.6192C5.57548 33.5945 5.50606 33.5818 5.43597 33.582ZM9.8834 37.0655C10.1572 37.0649 10.4283 37.1143 10.6813 37.2108C10.9342 37.3074 11.1639 37.4493 11.357 37.6283C11.551 37.8064 11.7048 38.0183 11.8096 38.2516C11.9143 38.485 11.9679 38.7351 11.9672 38.9876C11.9672 40.0488 11.0338 40.9098 9.8834 40.9098C8.73305 40.9098 7.79975 40.0488 7.79975 38.9876C7.79975 37.9266 8.73305 37.0655 9.8834 37.0655ZM9.8834 38.4957C9.7441 38.4987 9.6116 38.5518 9.51423 38.6438C9.41686 38.7357 9.36234 38.8591 9.36234 38.9877C9.36234 39.1162 9.41686 39.2397 9.51423 39.3316C9.6116 39.4235 9.7441 39.4767 9.8834 39.4797C10.0249 39.4797 10.1605 39.4278 10.2605 39.3355C10.3605 39.2433 10.4168 39.1181 10.4168 38.9876C10.417 38.923 10.4034 38.8589 10.3766 38.7992C10.3498 38.7395 10.3105 38.6852 10.2608 38.6396C10.2113 38.5938 10.1525 38.5575 10.0877 38.5328C10.0229 38.5081 9.9535 38.4955 9.8834 38.4957Z" fill="white"/>
</svg>
