<svg width="40" height="40" viewBox="0 0 40 40" fill="none" xmlns="http://www.w3.org/2000/svg">
<circle cx="20" cy="20" r="20" fill="#22A8FF"/>
<path d="M14.62 18.0883C16.06 21.39 18.38 24.085 21.21 25.7767L23.41 23.21C23.68 22.895 24.08 22.79 24.43 22.93C25.55 23.3617 26.76 23.595 28 23.595C28.55 23.595 29 24.12 29 24.7617V28.8333C29 29.475 28.55 30 28 30C18.61 30 11 21.1217 11 10.1667C11 9.525 11.45 9 12 9H15.5C16.05 9 16.5 9.525 16.5 10.1667C16.5 11.625 16.7 13.025 17.07 14.3317C17.18 14.74 17.1 15.195 16.82 15.5217L14.62 18.0883Z" fill="white"/>
</svg>
