<svg width="46" height="49" viewBox="0 0 46 49" fill="none" xmlns="http://www.w3.org/2000/svg">
<path d="M28.613 33.6838H26.9737C26.8097 33.6838 26.6524 33.6237 26.5365 33.5168C26.4206 33.4098 26.3554 33.2648 26.3554 33.1135V30.4108C26.3554 30.2595 26.4206 30.1144 26.5365 30.0075C26.6524 29.9005 26.8097 29.8405 26.9737 29.8405H42.8932M28.613 33.6838V36.9568C28.613 37.1081 28.6781 37.2531 28.7941 37.3601C28.91 37.467 29.0673 37.5271 29.2312 37.5271H44.5325C44.6965 37.5271 44.8537 37.467 44.9697 37.3601C45.0856 37.2532 45.1508 37.1081 45.1508 36.9568V34.2541C45.1508 34.1028 45.0857 33.9578 44.9697 33.8508C44.8538 33.7439 44.6966 33.6838 44.5326 33.6838H28.613ZM42.8932 29.8405V33.5887M42.8932 29.8405H44.5326C44.6966 29.8405 44.8538 29.7804 44.9697 29.6734C45.0857 29.5665 45.1508 29.4214 45.1508 29.2702V26.5674C45.1508 26.4162 45.0857 26.2711 44.9697 26.1642C44.8538 26.0572 44.6966 25.9971 44.5326 25.9971H29.2312C29.0673 25.9971 28.91 26.0572 28.7941 26.1642C28.6781 26.2711 28.613 26.4162 28.613 26.5674V29.7454M30.1292 22.7728C31.6263 24.7233 34.0931 25.9969 36.8823 25.9969C41.449 25.9969 45.1511 22.5818 45.1511 18.3692C45.1511 14.1566 41.449 10.7415 36.8823 10.7415C32.3146 10.7415 28.6125 14.1566 28.6125 18.3692C28.6125 18.814 28.6537 19.2503 28.733 19.6752" stroke="white" stroke-width="1.68625" stroke-miterlimit="10" stroke-linecap="round" stroke-linejoin="round"/>
<path d="M38.172 15.7845C38.0828 15.6976 37.4024 15.0791 36.3416 15.3739C35.2951 15.6647 34.9713 16.8257 35.7077 17.6083C36.0894 18.0138 36.7305 18.1466 37.5585 18.4166C39.4117 19.0209 38.7266 21.4317 36.8415 21.4433C36.1059 21.4479 35.7619 21.4047 35.1157 21.0147M36.8829 21.5469V22.5455M36.8829 14.1938V15.1924M13.4754 18.7934L15.7723 13.2301C15.786 13.197 15.8102 13.1685 15.8419 13.1483C15.8735 13.1282 15.911 13.1175 15.9494 13.1174C16.0284 13.1174 16.0989 13.1625 16.1268 13.2306L18.4026 18.7934M14.2062 17.3799H17.6836M21.4066 13.1174L25.7352 18.7934M25.4306 13.1174L21.096 18.7934M8.3684 13.1176H11.7662M10.0604 13.2989V18.7932M4.94599 22.9946H22.9671M4.94599 35.8589H22.9671M13.8294 31.5709H22.9671M13.8294 27.2827H22.9671M9.56859 27.3067L4.94599 31.5709M25.1566 44.2867H28.7207C28.9484 44.2867 29.1328 44.1166 29.1328 43.9065V40.8326C29.1328 40.6226 28.9484 40.4524 28.7207 40.4524H13.6503C13.4226 40.4524 13.2382 40.6226 13.2382 40.8326V43.9065C13.2382 44.1166 13.4226 44.2867 13.6503 44.2867H21.5503M3.91561 8.11108V5.78778C3.91563 5.67941 3.96231 5.57549 4.04538 5.49887C4.12844 5.42224 4.2411 5.37918 4.35857 5.37916H9.25813M36.3208 37.6501V44.8513C36.3208 44.9597 36.2741 45.0636 36.191 45.1402C36.1079 45.2168 35.9953 45.2599 35.8778 45.2599H33.3756M24.8535 5.37916H35.8779C35.9954 5.37918 36.1081 5.42224 36.1911 5.49887C36.2742 5.57549 36.3209 5.67941 36.3209 5.78778V10.6069M19.3378 3.58548V2.95777C19.3378 1.79312 18.3144 0.848899 17.0517 0.848899C15.7892 0.848899 14.7656 1.79303 14.7656 2.95777V3.57321M0.848884 24.3263V8.61646C0.848884 8.39119 1.04775 8.20774 1.29195 8.20774H9.25782" stroke="white" stroke-width="1.68625" stroke-miterlimit="10" stroke-linecap="round" stroke-linejoin="round"/>
<path d="M33.2544 37.6525V47.6822C33.2544 47.9084 33.0565 48.0909 32.8113 48.0909H9.97085C9.42372 48.0909 8.89925 47.8903 8.51286 47.533L1.45166 41.0116C1.06591 40.6548 0.849167 40.1715 0.848884 39.6676V27.6552M25.013 8.21012H32.8114C32.9289 8.21015 33.0415 8.25321 33.1246 8.32983C33.2077 8.40646 33.2543 8.51038 33.2544 8.61874V11.3634" stroke="white" stroke-width="1.68625" stroke-miterlimit="10" stroke-linecap="round" stroke-linejoin="round"/>
<path d="M9.12041 47.7733V40.4534H1.18544M18.8588 9.7941H24.2158C24.4435 9.7941 24.628 9.62396 24.628 9.4139V5.0996C24.628 4.31259 23.9366 3.67385 23.0824 3.67385H11.029C10.1748 3.67385 9.48341 4.31259 9.48341 5.0996V9.4139C9.48341 9.62396 9.66785 9.7941 9.89556 9.7941H15.2525" stroke="white" stroke-width="1.68625" stroke-miterlimit="10" stroke-linecap="round" stroke-linejoin="round"/>
</svg>
