<svg width="48" height="45" viewBox="0 0 48 45" fill="none" xmlns="http://www.w3.org/2000/svg">
<path d="M47.2258 38.5651H46.4516V9.28403C46.4516 9.09462 46.37 8.91296 46.2249 8.77903C46.0797 8.6451 45.8827 8.56986 45.6774 8.56986H44.9032V6.42734C44.9032 6.23793 44.8217 6.05628 44.6765 5.92235C44.5313 5.78841 44.3344 5.71317 44.129 5.71317H43.3548V2.14231C43.3548 1.96827 43.2858 1.80024 43.161 1.66979C43.0361 1.53933 42.8639 1.45544 42.6766 1.43385L30.2895 0.00551188C30.1806 -0.0070426 30.0701 0.00190752 29.9652 0.0317685C29.8603 0.0616296 29.7635 0.111719 29.6813 0.178714C29.599 0.24571 29.5331 0.32808 29.4879 0.420361C29.4428 0.512641 29.4194 0.612724 29.4194 0.71397V5.71317H28.6452C28.4398 5.71317 28.2429 5.78841 28.0977 5.92235C27.9525 6.05628 27.871 6.23793 27.871 6.42734V8.56986H27.0968C26.8914 8.56986 26.6945 8.6451 26.5493 8.77903C26.4041 8.91296 26.3226 9.09462 26.3226 9.28403V18.5683H14.7097C14.5043 18.5683 14.3074 18.6435 14.1622 18.7774C14.017 18.9114 13.9355 19.093 13.9355 19.2824V27.1383H0.774194C0.568865 27.1383 0.371945 27.2136 0.226756 27.3475C0.0815665 27.4814 0 27.6631 0 27.8525V43.5643C0 43.7537 0.0815665 43.9353 0.226756 44.0693C0.371945 44.2032 0.568865 44.2784 0.774194 44.2784H47.2258C47.4311 44.2784 47.6281 44.2032 47.7732 44.0693C47.9184 43.9353 48 43.7537 48 43.5643V39.2792C48 39.0898 47.9184 38.9082 47.7732 38.7742C47.6281 38.6403 47.4311 38.5651 47.2258 38.5651ZM30.9677 1.52313L41.8064 2.77293V5.71317H30.9677V1.52313ZM29.4194 7.14151H43.3548V8.56986H29.4194V7.14151ZM15.4839 19.9966H26.3226V27.1383H15.4839V19.9966ZM38.7097 42.8501H1.54839V28.5667H38.7097V42.8501ZM27.871 27.1383V9.9982H44.9032V38.5651H40.2581V27.8525C40.2581 27.6631 40.1765 27.4814 40.0313 27.3475C39.8861 27.2136 39.6892 27.1383 39.4839 27.1383H27.871ZM46.4516 42.8501H40.2581V39.9934H46.4516V42.8501Z" fill="white"/>
<path d="M34.8415 11.4263H31.7448C31.5394 11.4263 31.3425 11.5016 31.1973 11.6355C31.0521 11.7694 30.9706 11.9511 30.9706 12.1405V14.9972C30.9706 15.1866 31.0521 15.3683 31.1973 15.5022C31.3425 15.6361 31.5394 15.7114 31.7448 15.7114H34.8415C35.0469 15.7114 35.2438 15.6361 35.389 15.5022C35.5342 15.3683 35.6157 15.1866 35.6157 14.9972V12.1405C35.6157 11.9511 35.5342 11.7694 35.389 11.6355C35.2438 11.5016 35.0469 11.4263 34.8415 11.4263ZM34.0674 14.283H32.519V12.8547H34.0674V14.283ZM37.9383 15.7114H41.0351C41.2404 15.7114 41.4373 15.6361 41.5825 15.5022C41.7277 15.3683 41.8093 15.1866 41.8093 14.9972V12.1405C41.8093 11.9511 41.7277 11.7694 41.5825 11.6355C41.4373 11.5016 41.2404 11.4263 41.0351 11.4263H37.9383C37.733 11.4263 37.5361 11.5016 37.3909 11.6355C37.2457 11.7694 37.1641 11.9511 37.1641 12.1405V14.9972C37.1641 15.1866 37.2457 15.3683 37.3909 15.5022C37.5361 15.6361 37.733 15.7114 37.9383 15.7114ZM38.7125 12.8547H40.2609V14.283H38.7125V12.8547ZM34.8415 17.1397H31.7448C31.5394 17.1397 31.3425 17.2149 31.1973 17.3489C31.0521 17.4828 30.9706 17.6645 30.9706 17.8539V20.7106C30.9706 20.9 31.0521 21.0816 31.1973 21.2156C31.3425 21.3495 31.5394 21.4247 31.7448 21.4247H34.8415C35.0469 21.4247 35.2438 21.3495 35.389 21.2156C35.5342 21.0816 35.6157 20.9 35.6157 20.7106V17.8539C35.6157 17.6645 35.5342 17.4828 35.389 17.3489C35.2438 17.2149 35.0469 17.1397 34.8415 17.1397ZM34.0674 19.9964H32.519V18.568H34.0674V19.9964ZM41.8093 20.7106V17.8539C41.8093 17.6645 41.7277 17.4828 41.5825 17.3489C41.4373 17.2149 41.2404 17.1397 41.0351 17.1397H37.9383C37.733 17.1397 37.5361 17.2149 37.3909 17.3489C37.2457 17.4828 37.1641 17.6645 37.1641 17.8539V20.7106C37.1641 20.9 37.2457 21.0816 37.3909 21.2156C37.5361 21.3495 37.733 21.4247 37.9383 21.4247H41.0351C41.2404 21.4247 41.4373 21.3495 41.5825 21.2156C41.7277 21.0816 41.8093 20.9 41.8093 20.7106ZM40.2609 19.9964H38.7125V18.568H40.2609V19.9964ZM17.0351 21.4247H24.777V22.8531H17.0351V21.4247ZM17.0351 24.2814H24.777V25.7098H17.0351V24.2814ZM20.1319 41.4215C21.3568 41.4215 22.5543 41.0864 23.5728 40.4587C24.5913 39.8309 25.3852 38.9386 25.854 37.8946C26.3227 36.8506 26.4454 35.7018 26.2064 34.5935C25.9674 33.4853 25.3776 32.4672 24.5114 31.6682C23.6452 30.8692 22.5416 30.325 21.3402 30.1046C20.1387 29.8841 18.8934 29.9973 17.7617 30.4297C16.63 30.8621 15.6627 31.5944 14.9821 32.534C14.3016 33.4735 13.9383 34.5782 13.9383 35.7082C13.9402 37.2229 14.5933 38.6751 15.7544 39.7462C16.9155 40.8173 18.4898 41.4198 20.1319 41.4215ZM20.1319 31.4231C21.0506 31.4231 21.9487 31.6744 22.7126 32.1453C23.4765 32.6161 24.0719 33.2854 24.4234 34.0684C24.775 34.8513 24.867 35.7129 24.6878 36.5441C24.5085 37.3753 24.0661 38.1389 23.4165 38.7381C22.7669 39.3374 21.9392 39.7455 21.0381 39.9109C20.137 40.0762 19.203 39.9913 18.3542 39.667C17.5054 39.3427 16.78 38.7935 16.2696 38.0888C15.7591 37.3841 15.4867 36.5557 15.4867 35.7082C15.4879 34.572 15.9777 33.4828 16.8486 32.6794C17.7195 31.8761 18.9003 31.4243 20.1319 31.4231ZM3.8738 41.4215H12.3899V39.9932H4.648V31.4231H12.3899V29.9948H3.8738C3.66847 29.9948 3.47156 30.07 3.32637 30.204C3.18118 30.3379 3.09961 30.5196 3.09961 30.709V40.7074C3.09961 40.8968 3.18118 41.0784 3.32637 41.2124C3.47156 41.3463 3.66847 41.4215 3.8738 41.4215Z" fill="white"/>
<path d="M7.74023 34.9947H12.3854V36.4231H7.74023V34.9947ZM37.1596 40.7081V30.7097C37.1596 30.5203 37.078 30.3387 36.9328 30.2047C36.7876 30.0708 36.5907 29.9955 36.3854 29.9955H27.8693V31.4239H35.6112V39.9939H27.8693V41.4223H36.3854C36.5907 41.4223 36.7876 41.347 36.9328 41.2131C37.078 41.0792 37.1596 40.8975 37.1596 40.7081Z" fill="white"/>
<path d="M27.871 34.9942H32.5161V36.4225H27.871V34.9942ZM0 12.8548C0 14.2673 0.454057 15.6481 1.30475 16.8226C2.15545 17.997 3.36457 18.9124 4.77922 19.4529C6.19388 19.9935 7.75052 20.1349 9.25231 19.8593C10.7541 19.5838 12.1336 18.9036 13.2163 17.9048C14.299 16.906 15.0364 15.6335 15.3351 14.2481C15.6338 12.8628 15.4805 11.4268 14.8946 10.1218C14.3086 8.81686 13.3163 7.70147 12.0431 6.91673C10.77 6.13199 9.27315 5.71313 7.74194 5.71313C5.68934 5.71521 3.72146 6.46831 2.27005 7.80719C0.818644 9.14607 0.00225414 10.9614 0 12.8548ZM7.74194 7.14148C8.9669 7.14148 10.1644 7.47656 11.1829 8.10435C12.2014 8.73215 12.9953 9.62445 13.464 10.6684C13.9328 11.7124 14.0555 12.8612 13.8165 13.9695C13.5775 15.0778 12.9876 16.0958 12.1214 16.8948C11.2553 17.6938 10.1517 18.238 8.95024 18.4584C7.74881 18.6789 6.50349 18.5657 5.37177 18.1333C4.24004 17.7009 3.27274 16.9686 2.59219 16.029C1.91163 15.0895 1.54839 13.9848 1.54839 12.8548C1.55023 11.3401 2.20336 9.88786 3.36447 8.81676C4.52559 7.74567 6.09987 7.14318 7.74194 7.14148Z" fill="white"/>
<path d="M7.7425 14.9972C7.53717 14.9972 7.34025 14.922 7.19507 14.7881C7.04988 14.6541 6.96831 14.4725 6.96831 14.2831H5.41992C5.42191 14.7246 5.57173 15.1548 5.84889 15.5148C6.12606 15.8748 6.51702 16.147 6.96831 16.2942V17.1398H8.5167V16.2942C9.03284 16.1265 9.46798 15.7957 9.74506 15.3604C10.0221 14.9251 10.1233 14.4134 10.0305 13.9159C9.93782 13.4184 9.65721 12.9672 9.23843 12.6423C8.81965 12.3173 8.28972 12.1396 7.7425 12.1406C7.58938 12.1406 7.4397 12.0987 7.31238 12.0202C7.18507 11.9417 7.08584 11.8302 7.02724 11.6997C6.96864 11.5692 6.95331 11.4256 6.98318 11.2871C7.01306 11.1485 7.08679 11.0213 7.19507 10.9214C7.30334 10.8215 7.44129 10.7535 7.59146 10.7259C7.74164 10.6984 7.89731 10.7125 8.03877 10.7666C8.18024 10.8206 8.30115 10.9122 8.38622 11.0296C8.47129 11.1471 8.5167 11.2851 8.5167 11.4264H10.0651C10.0631 10.9848 9.91328 10.5546 9.63611 10.1947C9.35895 9.83467 8.96798 9.56246 8.5167 9.41528V8.5697H6.96831V9.41528C6.45217 9.58298 6.01702 9.91378 5.73994 10.3491C5.46286 10.7844 5.36173 11.2961 5.45446 11.7936C5.54719 12.2911 5.82779 12.7423 6.24657 13.0672C6.66535 13.3921 7.19528 13.5699 7.7425 13.5689C7.94783 13.5689 8.14475 13.6441 8.28994 13.7781C8.43513 13.912 8.5167 14.0937 8.5167 14.2831C8.5167 14.4725 8.43513 14.6541 8.28994 14.7881C8.14475 14.922 7.94783 14.9972 7.7425 14.9972Z" fill="white"/>
</svg>
