<svg width="48" height="52" viewBox="0 0 48 52" fill="none" xmlns="http://www.w3.org/2000/svg">
<path d="M46.8974 27.9522C45.8389 26.5361 44.1428 25.7329 41.9907 25.6265C41.5824 25.6098 41.1735 25.6154 40.7658 25.6433C40.141 25.6905 39.1681 26.2281 38.9601 27.2794C38.8129 28.0266 38.5881 28.8923 38.3704 29.7299C38.1696 30.5012 37.9624 31.2988 37.8112 32.0212C37.5864 33.0901 38.0456 33.6606 38.5249 34.0774C38.5449 34.0942 38.5673 34.1118 38.5889 34.1278L39.6321 34.863C39.3169 36.2023 38.5465 37.4568 37.8144 38.5264C37.108 39.5593 36.1679 40.813 35.007 41.6442C35.007 41.6442 33.8782 40.9402 33.851 40.9274C33.0421 40.541 32.3909 40.5866 31.6764 41.0786C31.2116 41.3986 30.7164 41.7618 30.2115 42.1315C29.3499 42.7627 28.4594 43.4156 27.6682 43.8916C26.7225 44.4628 26.5937 45.5869 26.8025 46.1973C26.9505 46.643 27.089 46.9974 27.2346 47.3022C28.369 49.7823 30.3404 51.2032 32.6413 51.2032C33.991 51.2032 35.3839 50.7112 36.6727 49.7783C40.0242 47.3374 41.5218 45.5533 43.6084 42.4755C43.998 41.8995 44.3548 41.3722 44.6796 40.8538C46.1957 38.4504 47.0022 36.4983 47.7638 33.3909C48.2679 31.3044 47.9606 29.3739 46.8974 27.9522ZM46.2093 33.0117C45.3989 36.3183 44.538 38.0776 43.326 40.0001L43.3244 40.0025C43.0083 40.5066 42.6627 41.0194 42.2843 41.5778C40.2666 44.5532 38.9097 46.1693 35.7335 48.4839C34.7198 49.2159 33.6518 49.6031 32.6413 49.6031C30.9684 49.6031 29.5643 48.5503 28.6843 46.6269C28.5445 46.3251 28.4235 46.0149 28.3218 45.6981C28.321 45.6957 28.2786 45.3933 28.4938 45.2637C29.3459 44.75 30.2667 44.0764 31.1572 43.4236C31.6492 43.0627 32.1317 42.7083 32.5829 42.3979C32.7061 42.3131 32.9997 42.2971 33.1213 42.3531L34.5934 43.2723C34.8486 43.4324 35.1719 43.434 35.4303 43.2803C37.0424 42.3107 38.2568 40.713 39.1345 39.4297C40.0554 38.084 41.0338 36.4607 41.3058 34.6222C41.3276 34.4757 41.3082 34.326 41.2498 34.1898C41.1915 34.0536 41.0965 33.9363 40.9754 33.851L39.5457 32.8429C39.3225 32.6461 39.3225 32.6117 39.3777 32.3493C39.5417 31.6063 39.7226 30.8671 39.9201 30.1323C40.1442 29.2723 40.3754 28.3818 40.5322 27.5882C40.5762 27.3666 40.8346 27.2482 40.877 27.2386C41.2682 27.2154 41.6075 27.209 41.9171 27.2234C43.574 27.305 44.8541 27.8874 45.6181 28.9091C46.3885 29.9435 46.599 31.4004 46.2093 33.0117ZM24.2448 21.0262C24.2192 21.0502 23.6159 21.6014 22.4007 21.6014C21.1854 21.6014 20.5822 21.0502 20.5662 21.0358C20.4919 20.9615 20.4037 20.9026 20.3066 20.8624C20.2096 20.8222 20.1056 20.8015 20.0005 20.8015C19.8955 20.8015 19.7914 20.8222 19.6944 20.8624C19.5973 20.9026 19.5092 20.9615 19.4349 21.0358C19.3606 21.11 19.3017 21.1982 19.2615 21.2953C19.2213 21.3923 19.2006 21.4964 19.2006 21.6014C19.2006 21.7065 19.2213 21.8105 19.2615 21.9075C19.3017 22.0046 19.3606 22.0928 19.4349 22.167C19.5405 22.2734 20.5229 23.2015 22.4007 23.2015C24.2784 23.2015 25.2608 22.2734 25.3664 22.167C25.5141 22.019 25.5973 21.8187 25.5982 21.6096C25.5991 21.4005 25.5176 21.1995 25.3712 21.0502C25.224 20.8995 25.0235 20.8127 24.8129 20.8082C24.6023 20.8037 24.3983 20.882 24.2448 21.0262ZM22.4007 19.9613C22.6128 19.9613 22.8163 19.877 22.9664 19.727C23.1164 19.5769 23.2007 19.3734 23.2007 19.1613V16.8011C23.2007 16.5889 23.1164 16.3854 22.9664 16.2354C22.8163 16.0853 22.6128 16.0011 22.4007 16.0011C22.1885 16.0011 21.985 16.0853 21.8349 16.2354C21.6849 16.3854 21.6006 16.5889 21.6006 16.8011V19.1613C21.6006 19.3734 21.6849 19.5769 21.8349 19.727C21.985 19.877 22.1885 19.9613 22.4007 19.9613ZM44.002 44.8028C43.7898 44.8028 43.5863 44.8871 43.4363 45.0372C43.2862 45.1872 43.2019 45.3907 43.2019 45.6029V49.6031H40.0018C39.7896 49.6031 39.5861 49.6874 39.436 49.8375C39.286 49.9875 39.2017 50.191 39.2017 50.4032C39.2017 50.6154 39.286 50.8189 39.436 50.9689C39.5861 51.1189 39.7896 51.2032 40.0018 51.2032H44.002C44.2142 51.2032 44.4177 51.1189 44.5677 50.9689C44.7178 50.8189 44.802 50.6154 44.802 50.4032V45.6029C44.802 45.3907 44.7178 45.1872 44.5677 45.0372C44.4177 44.8871 44.2142 44.8028 44.002 44.8028Z" fill="#22A8FF"/>
<path d="M24.5871 41.1897C25.7424 41.7682 27.0785 41.7866 28.2514 41.2377C29.4242 40.6889 30.2675 39.6536 30.5651 38.3936L32.0972 31.8844L34.9374 32.8796C35.1353 32.9415 35.3496 32.9241 35.535 32.8311C35.7203 32.7381 35.8623 32.5767 35.931 32.381C35.9997 32.1853 35.9897 31.9706 35.9032 31.7821C35.8166 31.5936 35.6602 31.4461 35.467 31.3707L28.8018 29.0338V25.5568C28.8202 25.54 30.4419 24.3039 31.1147 22.4014C31.1147 22.4014 32.9324 22.3934 32.9957 22.3774C33.1517 22.339 36.8023 21.3645 36.8023 16.001C36.8023 10.6375 33.1517 9.663 32.9957 9.62459C32.9324 9.60859 32.662 9.60059 32.662 9.60059C32.226 6.62361 30.3579 0 22.4014 0C14.4457 0 12.5768 6.62281 12.1408 9.60059C12.1408 9.60059 11.8703 9.60859 11.8071 9.62459C11.6511 9.663 8.00051 10.6375 8.00051 16.001C8.00051 19.7724 9.80222 21.3693 10.9279 22.0014C10.6039 22.8206 10.2582 24.1415 10.6903 25.4248C11.0719 26.556 11.9504 27.4041 13.304 27.9449C13.5012 28.0236 13.7215 28.0208 13.9165 27.9371C14.1116 27.8534 14.2654 27.6956 14.3441 27.4985C14.4228 27.3014 14.42 27.0811 14.3363 26.886C14.2526 26.691 14.0948 26.5372 13.8977 26.4584C12.9904 26.096 12.4376 25.592 12.2088 24.9191C11.8935 23.9935 12.2512 22.951 12.4968 22.4014H13.6913C14.2373 23.5945 15.0236 24.6621 16.001 25.5376V29.0338L7.33007 32.0708C6.18923 32.4656 5.12384 33.0516 4.17947 33.8037L4.16267 33.8181L4.15787 33.8205L4.15467 33.8245C2.8574 34.846 1.80929 36.1491 1.08954 37.6351C0.369793 39.1212 -0.00276749 40.7514 1.54771e-05 42.4026V50.4031C1.54771e-05 50.6153 0.0843063 50.8188 0.234345 50.9688C0.384383 51.1189 0.587879 51.2032 0.800065 51.2032H25.6016C25.8138 51.2032 26.0173 51.1189 26.1673 50.9688C26.3174 50.8188 26.4016 50.6153 26.4016 50.4031C26.4016 50.1909 26.3174 49.9874 26.1673 49.8374C26.0173 49.6874 25.8138 49.6031 25.6016 49.6031H23.2014V40.4969L24.5871 41.1897ZM17.6011 26.7128C19.061 27.5548 20.7161 27.9992 22.4014 28.0017C24.0887 28.0017 25.7448 27.5505 27.2017 26.712V29.385L22.4014 37.6151L17.6011 29.385V26.7128ZM30.5779 31.3523L29.0074 38.0263C28.9181 38.4097 28.7425 38.7676 28.4941 39.0728C28.2456 39.3781 27.9309 39.6227 27.5737 39.7881C27.2177 39.9554 26.8284 40.0397 26.435 40.0346C26.0417 40.0294 25.6547 39.935 25.3032 39.7585L23.5231 38.868L28.361 30.5747L30.5779 31.3523ZM35.1638 15.2009H34.4021C34.19 15.2009 33.9865 15.2852 33.8364 15.4353C33.6864 15.5853 33.6021 15.7888 33.6021 16.001C33.6021 16.2132 33.6864 16.4167 33.8364 16.5667C33.9865 16.7167 34.19 16.801 34.4021 16.801H35.1638C34.8894 19.8532 33.0813 20.6605 32.6828 20.8013H31.7012C31.826 20.3213 31.9172 19.8284 31.966 19.3236L32.27 16.4114L32.2708 16.4106L32.7988 11.2823L32.8004 11.2471C33.3605 11.4847 34.911 12.392 35.1638 15.2009ZM22.4014 1.6001C29.5402 1.6001 30.9035 7.80768 31.1579 10.4758C31.1915 10.8335 31.1995 11.0759 31.2011 11.1647L30.8699 14.3633C30.2203 13.3968 29.6018 12.0511 29.6018 10.4006C29.6018 10.1885 29.5176 9.98496 29.3675 9.83492C29.2175 9.68488 29.014 9.60059 28.8018 9.60059C28.7522 9.60059 23.8503 9.56219 23.1854 6.24359C23.1487 6.06273 23.0506 5.90013 22.9077 5.78334C22.7648 5.66654 22.5859 5.60274 22.4014 5.60274C22.2169 5.60274 22.038 5.66654 21.8951 5.78334C21.7522 5.90013 21.6541 6.06273 21.6173 6.24359C20.9557 9.54699 16.0498 9.60059 15.9994 9.60059C15.7876 9.60123 15.5846 9.68577 15.4349 9.83572C15.2853 9.98567 15.2012 10.1888 15.201 10.4006C15.201 12.0511 14.5825 13.3968 13.9321 14.3633L13.6017 11.1647C13.6033 11.0759 13.6113 10.8335 13.6449 10.4766C13.8993 7.80768 15.2626 1.6001 22.4014 1.6001ZM9.63901 16.801H10.4007C10.6128 16.801 10.8163 16.7167 10.9664 16.5667C11.1164 16.4167 11.2007 16.2132 11.2007 16.001C11.2007 15.7888 11.1164 15.5853 10.9664 15.4353C10.8163 15.2852 10.6128 15.2009 10.4007 15.2009H9.63901C9.89263 12.384 11.4503 11.4791 12.0032 11.2471L12.0048 11.2831L12.8368 19.3188C12.8863 19.8194 12.9752 20.3154 13.1024 20.8021H12.1224C11.7095 20.6549 9.91343 19.842 9.63901 16.801ZM14.9433 21.3029C14.6702 20.6162 14.4967 19.8939 14.4281 19.158L14.1657 16.6202C15.0513 15.697 16.521 13.7985 16.7658 11.1575C18.1291 11.0279 20.9517 10.5078 22.4014 8.42612C23.8511 10.5086 26.6737 11.0279 28.0369 11.1575C28.2818 13.7985 29.7515 15.697 30.6371 16.6202L30.3739 19.1636C30.3011 19.9156 30.0827 20.6189 29.8563 21.3125C29.2002 23.3158 27.5801 24.5023 27.4945 24.5759C26.06 25.7528 24.2519 26.4016 22.4014 26.4016C20.5509 26.4016 18.7428 25.7528 17.3107 24.5767C16.2529 23.7074 15.4375 22.5798 14.9433 21.3029ZM16.4426 30.5755L21.2805 38.8688L19.5004 39.7593C19.149 39.9362 18.762 40.0308 18.3686 40.0359C17.9752 40.041 17.5858 39.9566 17.2299 39.7889C16.8728 39.6234 16.5581 39.3788 16.3097 39.0735C16.0612 38.7682 15.8856 38.4104 15.7962 38.0271L14.2249 31.3523L16.4426 30.5755ZM1.60011 42.4026C1.60011 40.4529 2.19615 38.5832 3.32502 36.9919C3.68504 36.483 4.11387 36.0278 4.5723 35.6006C5.86998 37.3423 7.20046 39.9249 7.20046 43.2027V49.6031H1.60011V42.4026ZM16.001 49.6031H8.80056V47.2029H16.001V49.6031ZM17.6011 49.6031V46.4029C17.6011 46.1907 17.5168 45.9872 17.3668 45.8371C17.2167 45.6871 17.0132 45.6028 16.8011 45.6028H8.80056V43.2027C8.80056 39.4608 7.28046 36.5431 5.81477 34.5925C6.4508 34.1709 7.13729 33.8309 7.8581 33.5805L12.7064 31.8836L14.2385 38.3936C14.3831 39.0121 14.6666 39.5896 15.0675 40.0824C15.4683 40.5752 15.9761 40.9703 16.5522 41.2377C17.1102 41.5001 17.719 41.6364 18.3355 41.637C18.9796 41.637 19.6212 41.4874 20.2173 41.1897L21.6013 40.4969V49.6031H17.6011Z" fill="#22A8FF"/>
<path d="M19.6008 15.2008C20.2636 15.2008 20.8009 14.6635 20.8009 14.0007C20.8009 13.338 20.2636 12.8007 19.6008 12.8007C18.9381 12.8007 18.4008 13.338 18.4008 14.0007C18.4008 14.6635 18.9381 15.2008 19.6008 15.2008Z" fill="#22A8FF"/>
<path d="M25.2006 15.2008C25.8633 15.2008 26.4006 14.6635 26.4006 14.0007C26.4006 13.338 25.8633 12.8007 25.2006 12.8007C24.5378 12.8007 24.0005 13.338 24.0005 14.0007C24.0005 14.6635 24.5378 15.2008 25.2006 15.2008Z" fill="#22A8FF"/>
</svg>
