<svg width="28" height="28" viewBox="0 0 28 28" fill="none" xmlns="http://www.w3.org/2000/svg">
<path d="M27.9984 20.8756V26.376C27.9986 26.7698 27.8494 27.1491 27.5809 27.4372C27.3125 27.7253 26.9447 27.9009 26.5519 27.9284C25.8726 27.9761 25.3179 28 24.8875 28C11.1418 28 0 16.8576 0 3.11111C0 2.68178 0.0238505 2.12696 0.0715516 1.44667C0.0991182 1.0538 0.274667 0.686017 0.562774 0.417525C0.850882 0.149033 1.2301 -0.000178007 1.62391 3.99124e-07H7.12405C7.31699 -0.000194965 7.50311 0.0713363 7.64626 0.200699C7.78942 0.330061 7.87938 0.508018 7.89867 0.700001C7.93393 1.05674 7.96711 1.34296 7.99822 1.55867C8.30732 3.71611 8.94082 5.81441 9.87723 7.78245C10.025 8.09356 9.92856 8.46533 9.64857 8.66444L6.29187 11.0631C8.34464 15.8453 12.1556 19.6564 16.9375 21.7093L19.3329 18.3587C19.4304 18.2213 19.5733 18.1227 19.7363 18.0803C19.8994 18.0379 20.0721 18.0544 20.2242 18.1269C22.1919 19.0616 24.2895 19.6935 26.4461 20.0013C26.6618 20.0324 26.9469 20.0656 27.3016 20.1009C27.4933 20.1205 27.6709 20.2107 27.7999 20.3538C27.9289 20.4969 27.9987 20.6828 27.9984 20.8756Z" fill="#32B5FD"/>
</svg>
