<svg width="1200" height="481" viewBox="0 0 1200 481" fill="none" xmlns="http://www.w3.org/2000/svg">
<rect width="1200" height="480.072" rx="20" fill="#3DBBAD"/>
<path d="M242.5 0H104L242.5 261.397L345.5 184.946L242.5 0Z" fill="#4BC8B8"/>
<path d="M177.5 140.536L3.00005 267.019L0.500052 268.705L0.500052 456.462C2.59826 472.966 6.49516 478.803 21.0001 480.072H1182C1193 477.261 1196.79 470.957 1199.5 461.521V258.587L1045 327.168L925 184.946L801.5 269.83L727.5 184.946L434.5 327.168L345.5 184.946L242.5 261.959L177.5 140.536Z" fill="#3ECAB0" stroke="#3ECAB0"/>
<path d="M962.673 4.2946L1005.77 62.2278L842.081 179.096L711.558 4.29462L962.673 4.2946Z" stroke="#44C0B8" stroke-width="6"/>
<path d="M750.149 7.87163L930.292 7.8716L962.348 50.962L844.925 134.797L750.149 7.87163Z" fill="#44C0B8"/>
</svg>
