<svg width="59" height="54" viewBox="0 0 59 54" fill="none" xmlns="http://www.w3.org/2000/svg">
<path d="M38.0216 17.4952C39.0032 12.9798 43.0228 9.59807 47.8323 9.59807C53.3771 9.59807 57.8722 14.093 57.8722 19.638C57.8722 25.1829 53.3772 29.6779 47.8323 29.6779C47.1067 29.6784 46.3832 29.6004 45.6743 29.4454" stroke="#22A8FF" stroke-width="1.72032" stroke-miterlimit="10" stroke-linecap="round" stroke-linejoin="round"/>
<path d="M49.8199 13.0696C52.6407 13.9208 54.694 16.5396 54.694 19.638C54.694 23.4269 51.6232 26.4978 47.8343 26.4978C46.7732 26.4978 45.7695 26.258 44.8736 25.8279M40.9734 19.638C40.9734 16.5557 43.0072 13.9472 45.805 13.0822" stroke="#22A8FF" stroke-width="1.72032" stroke-miterlimit="10" stroke-linecap="round" stroke-linejoin="round"/>
<path d="M48.9675 17.0775C48.9675 17.0775 48.1747 16.5567 47.3437 16.8517C46.5465 17.1345 46.2032 18.1367 46.8316 18.8345C47.1945 19.2374 47.6879 19.2719 48.4238 19.5883C49.9511 20.2452 49.4288 22.4003 47.807 22.4112C47.1741 22.4154 46.7816 22.2756 46.3223 22.0115M47.807 22.458V23.4897M47.807 15.7V16.7318M26.6525 15.9126C27.8182 15.636 29.0123 15.4967 30.2104 15.4975C38.6734 15.4975 45.534 22.3581 45.534 30.821C45.534 34.685 44.1039 38.2149 41.744 40.9104M15.1779 33.8084C14.9839 32.8244 14.8864 31.8239 14.8869 30.821C14.8869 27.1444 16.1818 23.7703 18.3403 21.1296M25.9078 34.7457L28.8379 27.0522C28.8553 27.0064 28.8863 26.9669 28.9266 26.9391C28.967 26.9113 29.0149 26.8964 29.0639 26.8964C29.1645 26.8964 29.2546 26.9587 29.2901 27.0529L32.1933 34.7457M26.8402 32.7907H31.2761M35.2889 26.8964L40.8107 34.7457M40.4221 26.8964L34.8925 34.7457M19.6103 26.8966H23.9448M21.7687 27.1473V34.7458" stroke="#22A8FF" stroke-width="1.72032" stroke-miterlimit="10" stroke-linecap="round" stroke-linejoin="round"/>
<path d="M33.184 45.5244L36.4109 44.8969L41.7484 40.9118V40.9107L43.8774 39.3219C44.3078 38.9997 44.8311 38.8259 45.3687 38.8263C46.0856 38.8263 46.7969 39.1349 47.289 39.7268C48.2055 40.8292 48.0656 42.4627 46.9747 43.393L45.3056 44.8154M0.860531 48.3394L8.05984 46.2746C8.91388 46.0297 9.81041 45.9704 10.6893 46.1006C11.5681 46.2307 12.409 46.5474 13.1553 47.0294L21.137 52.1822C22.4361 53.0208 24.0091 53.3246 25.527 53.03L37.5041 50.7002C38.2632 50.553 38.9713 50.2119 39.5597 49.7102L42.2485 47.4194M8.16308 35.2875L0.860531 36.6721" stroke="#22A8FF" stroke-width="1.72032" stroke-miterlimit="10" stroke-linecap="round" stroke-linejoin="round"/>
<path d="M12.1076 34.5385L16.3359 33.7367C17.5234 33.5058 18.7503 33.5833 19.8992 33.9619C21.0482 34.3405 22.0809 35.0074 22.8985 35.899L23.6212 36.6859C24.6215 37.778 25.7778 38.7152 27.0534 39.4688C28.4781 40.312 30.4259 41.4648 31.9378 42.3573C33.2192 43.1132 33.6447 44.7651 32.8819 46.059L32.8475 46.1164C32.1271 47.3403 30.5613 47.7659 29.3201 47.0742L22.9949 43.5526C22.0205 43.0101 20.9025 42.7814 19.7933 42.8976M27.1085 7.17402C27.5696 8.32573 27.8231 9.58412 27.8231 10.901C27.8231 16.445 23.3276 20.9406 17.7824 20.9406C12.2384 20.9406 7.74282 16.445 7.74282 10.901C7.74282 5.35584 12.2384 0.860286 17.7824 0.860286C20.5619 0.860286 23.0775 1.9902 24.8957 3.81526" stroke="#22A8FF" stroke-width="1.72032" stroke-miterlimit="10" stroke-linecap="round" stroke-linejoin="round"/>
<path d="M17.7818 17.7604C21.5708 17.7604 24.6424 14.6888 24.6424 10.8999C24.6424 7.11087 21.5708 4.03929 17.7818 4.03929C13.9928 4.03929 10.9212 7.11087 10.9212 10.8999C10.9212 14.6888 13.9928 17.7604 17.7818 17.7604Z" stroke="#22A8FF" stroke-width="1.72032" stroke-miterlimit="10" stroke-linecap="round" stroke-linejoin="round"/>
<path d="M18.9201 8.33801C18.9201 8.33801 18.1273 7.81722 17.2963 8.11215C16.4991 8.39502 16.1558 9.39715 16.7842 10.0949C17.1471 10.4979 17.6405 10.5323 18.3764 10.8488C19.9037 11.5057 19.3814 13.6608 17.7596 13.6717C17.1267 13.6759 16.7342 13.5361 16.2749 13.272M17.7596 13.7185V14.7503M17.7596 6.96055V7.99227" stroke="#22A8FF" stroke-width="1.72032" stroke-miterlimit="10" stroke-linecap="round" stroke-linejoin="round"/>
</svg>
