<svg width="51" height="47" viewBox="0 0 51 47" fill="none" xmlns="http://www.w3.org/2000/svg">
<path d="M16.1148 18.8017C16.5671 18.8017 17.0008 18.6366 17.3205 18.3428C17.6403 18.049 17.8199 17.6505 17.8199 17.235V15.6684C17.8199 15.2528 17.6403 14.8544 17.3205 14.5606C17.0008 14.2667 16.5671 14.1017 16.1148 14.1017H5.88429C5.43207 14.1017 4.99838 14.2667 4.67861 14.5606C4.35884 14.8544 4.1792 15.2528 4.1792 15.6684V17.235C4.1792 17.6505 4.35884 18.049 4.67861 18.3428C4.99838 18.6366 5.43207 18.8017 5.88429 18.8017H16.1148ZM5.88429 15.6684H16.1148V17.235H5.88429V15.6684ZM7.58938 20.3684C6.91106 20.3684 6.26051 20.6159 5.78086 21.0567C5.30121 21.4974 5.03175 22.0951 5.03175 22.7184C5.03175 23.3416 5.30121 23.9393 5.78086 24.3801C6.26051 24.8208 6.91106 25.0684 7.58938 25.0684C8.26771 25.0684 8.91826 24.8208 9.39791 24.3801C9.87756 23.9393 10.147 23.3416 10.147 22.7184C10.147 22.0951 9.87756 21.4974 9.39791 21.0567C8.91826 20.6159 8.26771 20.3684 7.58938 20.3684ZM7.58938 23.5017C7.36327 23.5017 7.14643 23.4192 6.98654 23.2723C6.82666 23.1253 6.73684 22.9261 6.73684 22.7184C6.73684 22.5106 6.82666 22.3114 6.98654 22.1645C7.14643 22.0175 7.36327 21.935 7.58938 21.935C7.81549 21.935 8.03234 22.0175 8.19222 22.1645C8.35211 22.3114 8.44193 22.5106 8.44193 22.7184C8.44193 22.9261 8.35211 23.1253 8.19222 23.2723C8.03234 23.4192 7.81549 23.5017 7.58938 23.5017ZM7.58938 25.8517C6.91106 25.8517 6.26051 26.0993 5.78086 26.54C5.30121 26.9807 5.03175 27.5784 5.03175 28.2017C5.03175 28.8249 5.30121 29.4227 5.78086 29.8634C6.26051 30.3041 6.91106 30.5517 7.58938 30.5517C8.26771 30.5517 8.91826 30.3041 9.39791 29.8634C9.87756 29.4227 10.147 28.8249 10.147 28.2017C10.147 27.5784 9.87756 26.9807 9.39791 26.54C8.91826 26.0993 8.26771 25.8517 7.58938 25.8517ZM7.58938 28.985C7.36327 28.985 7.14643 28.9025 6.98654 28.7556C6.82666 28.6087 6.73684 28.4094 6.73684 28.2017C6.73684 27.9939 6.82666 27.7947 6.98654 27.6478C7.14643 27.5009 7.36327 27.4184 7.58938 27.4184C7.81549 27.4184 8.03234 27.5009 8.19222 27.6478C8.35211 27.7947 8.44193 27.9939 8.44193 28.2017C8.44193 28.4094 8.35211 28.6087 8.19222 28.7556C8.03234 28.9025 7.81549 28.985 7.58938 28.985ZM7.58938 31.335C6.91106 31.335 6.26051 31.5826 5.78086 32.0233C5.30121 32.464 5.03175 33.0618 5.03175 33.685C5.03175 34.3083 5.30121 34.906 5.78086 35.3467C6.26051 35.7874 6.91106 36.035 7.58938 36.035C8.26771 36.035 8.91826 35.7874 9.39791 35.3467C9.87756 34.906 10.147 34.3083 10.147 33.685C10.147 33.0618 9.87756 32.464 9.39791 32.0233C8.91826 31.5826 8.26771 31.335 7.58938 31.335ZM7.58938 34.4684C7.36327 34.4684 7.14643 34.3858 6.98654 34.2389C6.82666 34.092 6.73684 33.8928 6.73684 33.685C6.73684 33.4773 6.82666 33.278 6.98654 33.1311C7.14643 32.9842 7.36327 32.9017 7.58938 32.9017C7.81549 32.9017 8.03234 32.9842 8.19222 33.1311C8.35211 33.278 8.44193 33.4773 8.44193 33.685C8.44193 33.8928 8.35211 34.092 8.19222 34.2389C8.03234 34.3858 7.81549 34.4684 7.58938 34.4684ZM14.4098 20.3684C13.7314 20.3684 13.0809 20.6159 12.6012 21.0567C12.1216 21.4974 11.8521 22.0951 11.8521 22.7184C11.8521 23.3416 12.1216 23.9393 12.6012 24.3801C13.0809 24.8208 13.7314 25.0684 14.4098 25.0684C15.0881 25.0684 15.7386 24.8208 16.2183 24.3801C16.6979 23.9393 16.9674 23.3416 16.9674 22.7184C16.9674 22.0951 16.6979 21.4974 16.2183 21.0567C15.7386 20.6159 15.0881 20.3684 14.4098 20.3684ZM14.4098 23.5017C14.1836 23.5017 13.9668 23.4192 13.8069 23.2723C13.647 23.1253 13.5572 22.9261 13.5572 22.7184C13.5572 22.5106 13.647 22.3114 13.8069 22.1645C13.9668 22.0175 14.1836 21.935 14.4098 21.935C14.6359 21.935 14.8527 22.0175 15.0126 22.1645C15.1725 22.3114 15.2623 22.5106 15.2623 22.7184C15.2623 22.9261 15.1725 23.1253 15.0126 23.2723C14.8527 23.4192 14.6359 23.5017 14.4098 23.5017ZM14.4098 25.8517C13.7314 25.8517 13.0809 26.0993 12.6012 26.54C12.1216 26.9807 11.8521 27.5784 11.8521 28.2017C11.8521 28.8249 12.1216 29.4227 12.6012 29.8634C13.0809 30.3041 13.7314 30.5517 14.4098 30.5517C15.0881 30.5517 15.7386 30.3041 16.2183 29.8634C16.6979 29.4227 16.9674 28.8249 16.9674 28.2017C16.9674 27.5784 16.6979 26.9807 16.2183 26.54C15.7386 26.0993 15.0881 25.8517 14.4098 25.8517ZM14.4098 28.985C14.1836 28.985 13.9668 28.9025 13.8069 28.7556C13.647 28.6087 13.5572 28.4094 13.5572 28.2017C13.5572 27.9939 13.647 27.7947 13.8069 27.6478C13.9668 27.5009 14.1836 27.4184 14.4098 27.4184C14.6359 27.4184 14.8527 27.5009 15.0126 27.6478C15.1725 27.7947 15.2623 27.9939 15.2623 28.2017C15.2623 28.4094 15.1725 28.6087 15.0126 28.7556C14.8527 28.9025 14.6359 28.985 14.4098 28.985ZM14.4098 31.335C13.7314 31.335 13.0809 31.5826 12.6012 32.0233C12.1216 32.464 11.8521 33.0618 11.8521 33.685C11.8521 34.3083 12.1216 34.906 12.6012 35.3467C13.0809 35.7874 13.7314 36.035 14.4098 36.035C15.0881 36.035 15.7386 35.7874 16.2183 35.3467C16.6979 34.906 16.9674 34.3083 16.9674 33.685C16.9674 33.0618 16.6979 32.464 16.2183 32.0233C15.7386 31.5826 15.0881 31.335 14.4098 31.335ZM14.4098 34.4684C14.1836 34.4684 13.9668 34.3858 13.8069 34.2389C13.647 34.092 13.5572 33.8928 13.5572 33.685C13.5572 33.4773 13.647 33.278 13.8069 33.1311C13.9668 32.9842 14.1836 32.9017 14.4098 32.9017C14.6359 32.9017 14.8527 32.9842 15.0126 33.1311C15.1725 33.278 15.2623 33.4773 15.2623 33.685C15.2623 33.8928 15.1725 34.092 15.0126 34.2389C14.8527 34.3858 14.6359 34.4684 14.4098 34.4684ZM40.7705 31.335C40.7705 31.5428 40.8603 31.742 41.0202 31.8889C41.1801 32.0358 41.3969 32.1184 41.623 32.1184C41.8491 32.1184 42.066 32.0358 42.2259 31.8889C42.3857 31.742 42.4756 31.5428 42.4756 31.335C42.4756 29.3986 40.6281 27.7897 38.2128 27.4771V26.635C38.2128 26.4273 38.123 26.228 37.9631 26.0811C37.8032 25.9342 37.5864 25.8517 37.3603 25.8517C37.1342 25.8517 36.9173 25.9342 36.7574 26.0811C36.5976 26.228 36.5077 26.4273 36.5077 26.635V27.4771C34.0925 27.7904 32.245 29.3986 32.245 31.335C32.245 33.2714 34.0925 34.8804 36.5077 35.1929V39.8679C35.0414 39.6055 33.9501 38.6929 33.9501 37.6017C33.9501 37.3939 33.8603 37.1947 33.7004 37.0478C33.5405 36.9009 33.3237 36.8184 33.0976 36.8184C32.8714 36.8184 32.6546 36.9009 32.4947 37.0478C32.3348 37.1947 32.245 37.3939 32.245 37.6017C32.245 39.5381 34.0925 41.1471 36.5077 41.4596V42.3017C36.5077 42.5094 36.5976 42.7087 36.7574 42.8556C36.9173 43.0025 37.1342 43.085 37.3603 43.085C37.5864 43.085 37.8032 43.0025 37.9631 42.8556C38.123 42.7087 38.2128 42.5094 38.2128 42.3017V41.4596C40.6281 41.1463 42.4756 39.5381 42.4756 37.6017C42.4756 35.6653 40.6281 34.0563 38.2128 33.7438V29.0688C39.6792 29.3313 40.7705 30.2431 40.7705 31.335ZM33.9501 31.335C33.9501 30.2431 35.0414 29.3313 36.5077 29.0688V33.6012C35.0414 33.3388 33.9501 32.427 33.9501 31.335ZM40.7705 37.6017C40.7705 38.6937 39.6792 39.6055 38.2128 39.8679V35.3355C39.6792 35.5979 40.7705 36.5097 40.7705 37.6017Z" fill="white"/>
<path d="M32.2453 22.8561V16.45L43.7299 21.1688C44.9685 21.6778 46.3763 21.7139 47.6438 21.2691C48.9113 20.8244 49.9345 19.9352 50.4885 18.7973C51.0425 17.6593 51.0817 16.3657 50.5977 15.2012C50.1137 14.0366 49.1459 13.0964 47.9074 12.5874L32.2453 6.15152V5.48333C32.2466 4.44495 32.6962 3.44945 33.4953 2.71521C34.2944 1.98096 35.3779 1.56791 36.508 1.56667C36.7341 1.56667 36.951 1.48414 37.1109 1.33723C37.2707 1.19033 37.3606 0.991086 37.3606 0.783333C37.3606 0.57558 37.2707 0.376337 37.1109 0.229433C36.951 0.0825295 36.7341 0 36.508 0L16.1151 0C14.5329 0.0016586 13.016 0.579898 11.8972 1.60786C10.7784 2.63583 10.1491 4.02957 10.1473 5.48333V10.9667H3.32693C2.64861 10.9667 1.99806 11.2143 1.51841 11.655C1.03876 12.0957 0.769296 12.6934 0.769296 13.3167V36.8167C0.769296 37.4399 1.03876 38.0377 1.51841 38.4784C1.99806 38.9191 2.64861 39.1667 3.32693 39.1667H10.1473V40.7333H1.7071C1.45792 40.7321 1.21151 40.7813 0.985353 40.8775C0.759192 40.9736 0.558821 41.1142 0.398454 41.2895C0.238087 41.4647 0.121652 41.6702 0.0574105 41.8914C-0.00683119 42.1126 -0.0173061 42.3441 0.026729 42.5695C0.294288 43.8167 1.02442 44.9401 2.09263 45.748C3.16085 46.556 4.501 46.9984 5.88457 47H26.2775C27.078 46.9985 27.87 46.8485 28.6059 46.5591C29.3419 46.2697 30.0067 45.8469 30.5607 45.3158C32.5643 46.3769 34.8288 46.9521 37.1411 46.9874C39.4533 47.0228 41.7374 46.5171 43.7783 45.5178C45.8193 44.5186 47.55 43.0588 48.8077 41.2756C50.0654 39.4925 50.8087 37.4447 50.9677 35.3249C51.1267 33.205 50.6962 31.0829 49.7166 29.1581C48.737 27.2333 47.2406 25.5691 45.3682 24.322C43.4957 23.075 41.3088 22.2862 39.0131 22.0297C36.7174 21.7733 34.3884 22.0577 32.2453 22.8561ZM25.4795 10.6964L27.2451 7.08368L29.1147 7.0641L26.7182 11.985L25.4795 10.6964ZM22.0224 7.09308H25.3729L24.2416 9.40862L22.0224 7.09308ZM29.1267 10.8805C34.2061 12.9673 33.889 12.867 34.1439 12.867C34.3392 12.8672 34.5287 12.8058 34.6806 12.693C34.8325 12.5802 34.9377 12.423 34.9785 12.2475C35.0193 12.072 34.9934 11.8889 34.9049 11.729C34.8165 11.569 34.6709 11.4417 34.4926 11.3685L29.8232 9.447L30.8676 7.30145L42.5406 12.0986L41.4971 14.2434L37.6052 12.6446C37.503 12.6026 37.3928 12.5795 37.2809 12.5767C37.169 12.5739 37.0576 12.5913 36.953 12.628C36.8484 12.6648 36.7527 12.7201 36.6714 12.7908C36.5901 12.8615 36.5247 12.9462 36.479 13.0401C36.4334 13.1341 36.4083 13.2353 36.4052 13.3382C36.4021 13.441 36.4211 13.5434 36.4611 13.6395C36.501 13.7356 36.5612 13.8235 36.6382 13.8982C36.7151 13.9729 36.8074 14.033 36.9096 14.0749L40.8006 15.6737L39.7562 17.8193L28.0832 13.0221L29.1267 10.8805ZM45.6533 13.3809L42.8697 19.0992L41.313 18.46L44.0974 12.7417L45.6533 13.3809ZM49.008 15.7568C49.246 16.336 49.2924 16.967 49.1413 17.5705C48.9903 18.1739 48.6485 18.7228 48.1591 19.1484C47.6696 19.574 47.0541 19.8572 46.3901 19.9624C45.726 20.0677 45.0428 19.9903 44.4265 19.74L47.2109 14.0217C48.0357 14.3578 48.682 14.9806 49.008 15.7536V15.7568ZM2.47439 36.8167V13.3167C2.47439 13.1089 2.56421 12.9097 2.72409 12.7628C2.88398 12.6159 3.10082 12.5333 3.32693 12.5333H18.6728C18.8989 12.5333 19.1157 12.6159 19.2756 12.7628C19.4355 12.9097 19.5253 13.1089 19.5253 13.3167V36.8167C19.5253 37.0244 19.4355 37.2237 19.2756 37.3706C19.1157 37.5175 18.8989 37.6 18.6728 37.6H3.32693C3.10082 37.6 2.88398 37.5175 2.72409 37.3706C2.56421 37.2237 2.47439 37.0244 2.47439 36.8167ZM1.7071 42.3047H20.3779C20.5654 43.4948 21.1756 44.5947 22.1136 45.4333H5.88457C4.90234 45.4353 3.94967 45.1247 3.18844 44.5544C2.42721 43.984 1.90438 43.1891 1.7088 42.3047H1.7071ZM22.0642 42.0869C22.0094 41.7118 21.8082 41.3678 21.498 41.1188C21.1878 40.8698 20.7897 40.7328 20.3779 40.7333H11.8524V39.1667H18.6728C19.3511 39.1667 20.0016 38.9191 20.4813 38.4784C20.9609 38.0377 21.2304 37.4399 21.2304 36.8167V13.3167C21.2304 12.6934 20.9609 12.0957 20.4813 11.655C20.0016 11.2143 19.3511 10.9667 18.6728 10.9667H11.8524V5.48333C11.8537 4.44495 12.3033 3.44945 13.1024 2.71521C13.9015 1.98096 14.985 1.56791 16.1151 1.56667H32.3305C31.7606 2.07879 31.3084 2.69091 31.0009 3.36668C30.6933 4.04245 30.5367 4.7681 30.5402 5.50057C30.5079 5.49329 30.4751 5.48754 30.4422 5.48333L30.4268 5.49978H20.1391C19.9746 5.50407 19.8148 5.55099 19.6781 5.63514C19.5413 5.71929 19.4333 5.83723 19.3663 5.97537C19.2994 6.11351 19.2763 6.26622 19.2998 6.41589C19.3232 6.56555 19.3923 6.70608 19.4989 6.82127C27.3917 15.0463 26.2894 13.9183 26.6117 14.1298L30.5402 15.7489V23.6293C28.5937 24.6588 26.9549 26.1151 25.7701 27.8682C24.5853 29.6213 23.8913 31.6166 23.75 33.6762C23.6088 35.7357 24.0247 37.7953 24.9606 39.6712C25.8966 41.5471 27.3235 43.1809 29.1139 44.4268C28.5414 44.8979 27.8408 45.2177 27.0864 45.3523C26.3319 45.487 25.5519 45.4313 24.8291 45.1914C24.1064 44.9514 23.4678 44.5361 22.9813 43.9895C22.4948 43.4429 22.1784 42.7854 22.0659 42.0869H22.0642ZM37.3606 45.4333C34.9999 45.4333 32.6923 44.7902 30.7295 43.5851C28.7667 42.3801 27.2369 40.6673 26.3335 38.6634C25.4301 36.6595 25.1937 34.4545 25.6543 32.3272C26.1148 30.1999 27.2516 28.2458 28.9208 26.7121C30.59 25.1783 32.7168 24.1339 35.032 23.7107C37.3473 23.2876 39.7472 23.5047 41.9281 24.3348C44.1091 25.1648 45.9732 26.5705 47.2847 28.3739C48.5962 30.1774 49.2962 32.2977 49.2962 34.4667C49.2894 40.5211 43.9499 45.4271 37.3606 45.4333Z" fill="white"/>
<path d="M29.6978 29.3857C29.5024 29.2812 29.2699 29.2524 29.0514 29.3054C28.8328 29.3584 28.6462 29.489 28.5324 29.6685C27.6968 30.9951 27.2196 32.4864 27.1408 34.0175C27.062 35.5485 27.384 37.0746 28.0797 38.4677C28.1238 38.5647 28.1888 38.6526 28.2707 38.7261C28.3526 38.7995 28.4498 38.8571 28.5564 38.8953C28.6631 38.9336 28.777 38.9517 28.8914 38.9486C29.0059 38.9455 29.1184 38.9212 29.2224 38.8773C29.3264 38.8333 29.4197 38.7706 29.4968 38.6928C29.5738 38.615 29.6331 38.5238 29.6709 38.4245C29.7087 38.3252 29.7244 38.22 29.717 38.115C29.7097 38.0101 29.6793 37.9075 29.6279 37.8136C29.0472 36.6486 28.7785 35.3727 28.8443 34.0928C28.9102 32.8128 29.3087 31.566 30.0064 30.4565C30.12 30.2769 30.1513 30.0632 30.0935 29.8624C30.0356 29.6616 29.8933 29.4901 29.6978 29.3857ZM45.0232 29.3857C44.8277 29.4901 44.6854 29.6616 44.6275 29.8624C44.5696 30.0632 44.6009 30.2769 44.7146 30.4565C45.4123 31.566 45.8108 32.8128 45.8766 34.0928C45.9425 35.3727 45.6738 36.6486 45.0931 37.8136C45.0416 37.9075 45.0113 38.0101 45.0039 38.115C44.9965 38.22 45.0122 38.3252 45.0501 38.4245C45.0879 38.5238 45.1471 38.615 45.2242 38.6928C45.3012 38.7706 45.3945 38.8333 45.4985 38.8773C45.6026 38.9212 45.7151 38.9455 45.8295 38.9486C45.944 38.9517 46.0579 38.9336 46.1646 38.8953C46.2712 38.8571 46.3684 38.7995 46.4503 38.7261C46.5322 38.6526 46.5972 38.5647 46.6413 38.4677C47.337 37.0746 47.659 35.5485 47.5802 34.0175C47.5014 32.4864 47.0242 30.9951 46.1886 29.6685C46.0748 29.489 45.8881 29.3584 45.6696 29.3054C45.4511 29.2524 45.2185 29.2812 45.0232 29.3857Z" fill="white"/>
</svg>
