<svg width="42" height="42" viewBox="0 0 42 42" fill="none" xmlns="http://www.w3.org/2000/svg">
<circle cx="21" cy="21" r="21" fill="#32B5FD"/>
<path fill-rule="evenodd" clip-rule="evenodd" d="M22.803 14.333C22.803 12.493 24.303 11 26.151 11C26.5898 10.9988 27.0245 11.0841 27.4303 11.251C27.8361 11.4179 28.2051 11.6631 28.5161 11.9726C28.8271 12.2821 29.0741 12.6499 29.2429 13.0549C29.4117 13.4599 29.4991 13.8942 29.5 14.333C29.5 16.174 28 17.667 26.151 17.667C25.7076 17.6673 25.2686 17.5796 24.8593 17.409C24.4501 17.2384 24.0788 16.9882 23.767 16.673L19.132 19.829C19.2608 20.472 19.1975 21.1387 18.95 21.746L24.032 25.086C24.6307 24.5981 25.3797 24.3321 26.152 24.333C26.5908 24.332 27.0255 24.4174 27.4312 24.5844C27.837 24.7514 28.2059 24.9967 28.5168 25.3063C28.8277 25.6159 29.0746 25.9838 29.2433 26.3888C29.412 26.7939 29.4992 27.2282 29.5 27.667C29.5 29.507 28 31 26.151 31C25.7123 31.0011 25.2777 30.9157 24.872 30.7487C24.4663 30.5818 24.0975 30.3366 23.7866 30.0271C23.4757 29.7175 23.2288 29.3498 23.06 28.9449C22.8913 28.5399 22.8039 28.1057 22.803 27.667C22.8022 27.1996 22.9007 26.7374 23.092 26.311L18.05 23C17.4392 23.5306 16.6571 23.8222 15.848 23.821C15.4092 23.8221 14.9745 23.7366 14.5688 23.5696C14.163 23.4026 13.7941 23.1573 13.4832 22.8477C13.1723 22.5381 12.9254 22.1702 12.7567 21.7652C12.588 21.3601 12.5008 20.9258 12.5 20.487C12.5009 20.0483 12.5883 19.6141 12.757 19.2092C12.9258 18.8042 13.1727 18.4365 13.4836 18.127C13.7945 17.8175 14.1633 17.5722 14.569 17.4053C14.9747 17.2383 15.4093 17.153 15.848 17.154C16.912 17.154 17.858 17.647 18.471 18.415L22.964 15.356C22.8568 15.0256 22.8025 14.6804 22.803 14.333Z" fill="white"/>
</svg>
