<svg width="50" height="46" viewBox="0 0 50 46" fill="none" xmlns="http://www.w3.org/2000/svg">
<path d="M10.4439 8.70104L10.4065 16.368C10.4058 16.5104 10.3622 16.6498 10.2804 16.7706C10.1986 16.8914 10.082 16.9888 9.94356 17.0519C9.80515 17.115 9.65042 17.1413 9.49672 17.1278C9.34303 17.1143 9.19644 17.0616 9.07339 16.9756L8.28881 16.4271C7.08419 19.0306 6.61559 21.8736 6.9269 24.6897C7.23822 27.5059 8.31925 30.2031 10.0688 32.5287L8.70396 33.4039C6.6868 30.7232 5.48541 27.5928 5.22486 24.3384C4.96431 21.0841 5.65411 17.8248 7.22247 14.8998C7.2768 14.7987 7.35465 14.7099 7.45048 14.6398C7.5463 14.5696 7.65773 14.5199 7.77682 14.494C7.8959 14.4682 8.0197 14.4669 8.13938 14.4903C8.25906 14.5137 8.37167 14.5611 8.46916 14.6293L8.75185 14.8268L8.77679 9.71643L3.45195 11.1252L4.29139 11.7112C4.45037 11.8222 4.5608 11.9822 4.60255 12.162C4.6443 12.3418 4.61458 12.5295 4.51881 12.6908C3.9646 13.6251 3.48683 14.5962 3.08948 15.5961L1.52872 15.069C1.87201 14.2051 2.27136 13.3611 2.72461 12.5415L1.12303 11.4232C0.999942 11.3373 0.905232 11.2214 0.849507 11.0886C0.793782 10.9558 0.779245 10.8113 0.807526 10.6714C0.835806 10.5314 0.905786 10.4014 1.00962 10.2961C1.11346 10.1907 1.24705 10.1141 1.39543 10.0749L9.38361 7.96061C9.50765 7.92779 9.63826 7.92205 9.76511 7.94387C9.89196 7.96568 10.0116 8.01444 10.1144 8.08628C10.2173 8.15813 10.3007 8.25108 10.3579 8.35779C10.415 8.46449 10.4445 8.58201 10.4439 8.70104ZM2.6496 33.3106L4.13524 32.6219C2.00627 28.7232 1.22485 24.316 1.89639 19.9947C2.03031 19.1212 2.22165 18.256 2.46935 17.404L0.863922 17.0062C0.598833 17.9186 0.394137 18.845 0.250964 19.7802C-0.468796 24.4105 0.368402 29.133 2.6496 33.3106ZM20.9531 16.1762C20.4242 16.4135 19.9213 16.6973 19.4513 17.0235L20.4507 18.2488C20.8354 17.9818 21.247 17.7495 21.6798 17.5553L20.9531 16.1762ZM15.7954 24.5327H17.4576V23.766C17.457 22.0564 18.1463 20.4078 19.3912 19.1414L18.1588 18.1127C16.637 19.6608 15.7945 21.6761 15.7954 23.766V24.5327ZM47.3782 45.2334V38.3331H45.716V44.4667H37.4047V35.2664H38.2358V33.733H36.7867C34.9009 32.7784 32.7851 32.2768 30.634 32.2744C28.4829 32.2719 26.3658 32.7688 24.4774 33.7191L24.4495 33.733H18.2887C17.7781 33.7335 17.2744 33.8424 16.8166 34.0513C16.3589 34.2601 15.9594 34.5634 15.649 34.9375C15.3387 35.3116 15.1258 35.7465 15.0269 36.2087C14.9279 36.6709 14.9456 37.1478 15.0785 37.6027L11.8416 36.2343C11.9082 36.1265 11.9901 36.0273 12.0851 35.9394L13.8897 34.2747C14.0454 34.131 14.133 33.9362 14.1331 33.733V23.766C14.1374 21.5882 14.9127 19.4713 16.3411 17.7373C17.7695 16.0034 19.7728 14.7473 22.0462 14.1602C22.1691 14.1287 22.2826 14.0716 22.3778 13.9932C22.4729 13.9148 22.5473 13.8173 22.595 13.7081C22.6427 13.599 22.6626 13.4811 22.653 13.3638C22.6434 13.2464 22.6047 13.1327 22.5398 13.0313L20.5763 9.96551H29.2992L27.3357 13.0313C27.2708 13.1327 27.232 13.2464 27.2225 13.3638C27.2129 13.4811 27.2327 13.599 27.2804 13.7081C27.3282 13.8173 27.4025 13.9148 27.4977 13.9932C27.5928 14.0716 27.7063 14.1287 27.8293 14.1602C30.1027 14.7473 32.106 16.0034 33.5344 17.7373C34.9628 19.4713 35.7382 21.5882 35.7424 23.766V32.1996H37.4047V23.766C37.3996 21.4222 36.6208 19.1354 35.1719 17.21C33.723 15.2846 31.6729 13.8119 29.2942 12.988L31.4713 9.58878C31.5458 9.47234 31.5857 9.33979 31.5868 9.20456C31.5879 9.06933 31.5502 8.93624 31.4775 8.81879C31.4049 8.70134 31.2998 8.60371 31.173 8.5358C31.0463 8.46789 30.9023 8.43212 30.7557 8.43213H19.1199C18.9733 8.43212 18.8293 8.46789 18.7025 8.5358C18.5757 8.60371 18.4707 8.70134 18.398 8.81879C18.3253 8.93624 18.2877 9.06933 18.2888 9.20456C18.2898 9.33979 18.3297 9.47234 18.4043 9.58878L20.5813 12.988C18.2027 13.8119 16.1525 15.2846 14.7036 17.21C13.2548 19.1354 12.4759 21.4222 12.4708 23.766V33.4155L10.9097 34.8555C10.6746 35.0722 10.4778 35.3215 10.3266 35.5945L7.52157 34.4094C6.70132 34.0724 5.7739 34.0315 4.92253 34.2947C4.07116 34.5579 3.35776 35.1061 2.92325 35.8309C1.96745 37.4719 2.64659 39.642 4.45793 40.479L14.1491 44.9488C15.6501 45.6385 17.3038 45.9983 18.9807 46.0001H30.7557V44.4667H18.9807C17.5617 44.4651 16.1625 44.1605 14.8924 43.5768L5.20168 39.1072C4.24526 38.6664 3.88518 37.4154 4.38676 36.5579C4.61745 36.1726 4.99658 35.8813 5.44907 35.7416C5.90157 35.6019 6.39443 35.624 6.83007 35.8036L16.2803 39.7968C16.3889 39.8427 16.507 39.8665 16.6265 39.8665H25.7689V38.3331H18.2887C17.8479 38.3331 17.4251 38.1716 17.1133 37.884C16.8016 37.5964 16.6265 37.2064 16.6265 36.7997C16.6265 36.3931 16.8016 36.003 17.1133 35.7155C17.4251 35.4279 17.8479 35.2664 18.2887 35.2664H24.6604C24.7986 35.2664 24.9347 35.2345 25.0563 35.1738L25.2714 35.0663C26.8739 34.2597 28.6664 33.8277 30.4919 33.8084C32.3174 33.7891 34.1202 34.1829 35.7424 34.9555V44.4667H32.4179V46.0001H46.5471C46.7675 46.0001 46.9789 45.9193 47.1348 45.7755C47.2907 45.6317 47.3782 45.4367 47.3782 45.2334ZM42.3915 41.3999C42.3915 41.0966 42.294 40.8002 42.1113 40.548C41.9287 40.2958 41.6691 40.0993 41.3653 39.9832C41.0616 39.8672 40.7274 39.8368 40.4049 39.896C40.0825 39.9551 39.7863 40.1012 39.5538 40.3156C39.3213 40.5301 39.163 40.8033 39.0989 41.1007C39.0348 41.3982 39.0677 41.7065 39.1935 41.9867C39.3193 42.2669 39.5324 42.5064 39.8057 42.6749C40.0791 42.8434 40.4004 42.9333 40.7292 42.9333C41.1699 42.9328 41.5924 42.7711 41.904 42.4836C42.2156 42.1962 42.3909 41.8064 42.3915 41.3999ZM25.7689 20.6992V23.766C26.6506 23.766 27.4962 24.0891 28.1197 24.6642C28.7431 25.2393 29.0934 26.0194 29.0934 26.8327C29.0934 27.6461 28.7431 28.4261 28.1197 29.0013C27.4962 29.5764 26.6506 29.8995 25.7689 29.8995V31.4329H24.1066V29.8995C23.2252 29.8986 22.3802 29.5752 21.7569 29.0003C21.1337 28.4253 20.7831 27.6458 20.7821 26.8327H22.4444C22.4449 27.2393 22.6202 27.629 22.9318 27.9165C23.2434 28.2039 23.6659 28.3656 24.1066 28.3661V25.2994C23.2249 25.2994 22.3793 24.9763 21.7559 24.4011C21.1324 23.826 20.7821 23.0459 20.7821 22.2326C20.7821 21.4192 21.1324 20.6392 21.7559 20.0641C22.3793 19.4889 23.2249 19.1658 24.1066 19.1658V17.6324H25.7689V19.1658C26.6503 19.1667 27.4953 19.4901 28.1186 20.0651C28.7418 20.64 29.0924 21.4195 29.0934 22.2326H27.4312C27.4306 21.8261 27.2553 21.4363 26.9437 21.1489C26.6321 20.8614 26.2096 20.6997 25.7689 20.6992ZM24.1066 20.6992C23.6658 20.6992 23.243 20.8608 22.9312 21.1483C22.6195 21.4359 22.4444 21.8259 22.4444 22.2326C22.4444 22.6393 22.6195 23.0293 22.9312 23.3169C23.243 23.6044 23.6658 23.766 24.1066 23.766V20.6992ZM25.7689 25.2994V28.3661C26.2098 28.3661 26.6326 28.2046 26.9443 27.917C27.256 27.6294 27.4312 27.2394 27.4312 26.8327C27.4312 26.4261 27.256 26.036 26.9443 25.7485C26.6326 25.4609 26.2098 25.2994 25.7689 25.2994ZM28.1928 1.74427C33.0611 2.37902 37.5865 4.4193 41.1204 7.57265C44.6542 10.726 47.0151 14.8305 47.8646 19.2978L49.502 19.0339C48.7798 15.2324 47.0325 11.6597 44.4209 8.64455C41.8094 5.62944 38.4174 3.26889 34.5575 1.78024C30.6975 0.291586 26.4936 -0.277316 22.3327 0.125912C18.1719 0.52914 14.1879 1.89154 10.7476 4.08766C10.571 4.20048 10.4487 4.37196 10.4062 4.56617C10.3636 4.76038 10.4043 4.96223 10.5196 5.12941L13.294 9.15339C13.3544 9.24106 13.4335 9.31649 13.5265 9.37509C13.6195 9.43369 13.7245 9.47424 13.835 9.49428C13.9455 9.51432 14.0593 9.51343 14.1694 9.49167C14.2795 9.46991 14.3837 9.42772 14.4756 9.36768C18.2435 6.89854 22.8953 5.85823 27.4706 6.46153C37.3555 7.74996 44.2615 16.2168 42.8644 25.3354C42.6418 26.7966 42.2104 28.2242 41.5816 29.581L40.7768 29.0189C40.6537 28.9329 40.5072 28.8803 40.3535 28.8669C40.1999 28.8535 40.0452 28.8798 39.9069 28.9429C39.7685 29.006 39.6519 29.1034 39.5702 29.2242C39.4885 29.3449 39.4448 29.4843 39.4441 29.6267L39.4069 37.2929C39.4063 37.412 39.4358 37.5295 39.493 37.6362C39.5502 37.7429 39.6335 37.8358 39.7364 37.9077C39.8393 37.9795 39.9589 38.0282 40.0858 38.05C40.2127 38.0718 40.3433 38.0661 40.4673 38.0333L48.4557 35.9196C48.604 35.8803 48.7376 35.8037 48.8414 35.6984C48.9452 35.593 49.0152 35.4631 49.0435 35.3231C49.0718 35.1831 49.0572 35.0387 49.0015 34.9059C48.9458 34.7731 48.8511 34.6573 48.7281 34.5713L47.1443 33.4654C49.1961 29.7439 50.1187 25.5798 49.8143 21.414L48.1559 21.5182C48.2652 23.0145 48.2054 24.5172 47.9775 26.0021C47.5888 28.5662 46.6985 31.0438 45.3502 33.3145C45.2544 33.4757 45.2246 33.6634 45.2663 33.8433C45.308 34.0232 45.4184 34.1832 45.5774 34.2942L46.3995 34.8683L41.0741 36.2771L41.099 31.1667L41.4016 31.3775C41.4991 31.4456 41.6116 31.4929 41.7313 31.5163C41.8509 31.5396 41.9746 31.5383 42.0936 31.5124C42.2126 31.4866 42.324 31.4368 42.4197 31.3667C42.5155 31.2966 42.5933 31.2079 42.6477 31.1069C43.5873 29.3583 44.2161 27.4818 44.5102 25.5492C46.0351 15.5941 38.4956 6.34998 27.7031 4.94367C23.0058 4.32375 18.2238 5.29034 14.2379 7.66543L12.3583 4.93917C17.0482 2.15213 22.6699 1.01784 28.1928 1.74427Z" fill="white"/>
</svg>
