<svg width="62" height="62" viewBox="0 0 62 62" fill="none" xmlns="http://www.w3.org/2000/svg">
<g clip-path="url(#clip0_1_372)">
<path d="M50.3158 54L48.0008 47.054C47.6038 45.8636 46.8942 44.8017 45.9461 43.9796C44.998 43.1575 43.8464 42.6054 42.6118 42.381L35.9288 41.165V40.647C37.0918 39.972 38.1038 39.069 38.9098 38H40.9288C42.5828 38 43.9288 36.654 43.9288 35V23C43.9288 15.832 38.0968 10 30.9288 10C23.7608 10 17.9288 15.832 17.9288 23V30C17.9288 31.928 19.2998 33.541 21.1178 33.917C21.6788 36.791 23.4748 39.223 25.9288 40.647V41.165L19.2448 42.381C18.0102 42.6054 16.8587 43.1576 15.9108 43.9797C14.9629 44.8018 14.2535 45.8636 13.8568 47.054L13.4568 48.255L10.0508 44.849C9.66075 44.459 9.66075 43.824 10.0508 43.434L14.0008 39.485L6.58675 32.071L2.12275 36.535C0.800754 37.857 0.0727539 39.615 0.0727539 41.485C0.0727539 43.355 0.800754 45.112 2.12275 46.434L15.6378 59.949C16.9598 61.271 18.7178 62 20.5878 62C22.4578 62 24.2148 61.271 25.5058 59.979L30.3768 55.516L28.8578 54H50.3158ZM41.9288 35C41.9288 35.552 41.4798 36 40.9288 36H40.0878C40.381 35.3317 40.5996 34.6332 40.7397 33.917C41.1678 33.828 41.5618 33.658 41.9288 33.444V35ZM40.9288 31.722V28.278C41.5238 28.625 41.9288 29.263 41.9288 30C41.9288 30.737 41.5238 31.375 40.9288 31.722ZM20.9288 31.722C20.3338 31.375 19.9288 30.737 19.9288 30C19.9288 29.263 20.3338 28.625 20.9288 28.278V31.722ZM20.9288 25V26.142C20.5781 26.2337 20.2416 26.373 19.9288 26.556V23C19.9288 16.935 24.8638 12 30.9288 12C36.9938 12 41.9288 16.935 41.9288 23V26.556C41.6161 26.3725 41.2796 26.2332 40.9288 26.142V25H39.9288C36.9718 25 34.1918 23.848 32.0998 21.757L30.9288 20.586L29.7578 21.757C27.6658 23.848 24.8858 25 21.9288 25H20.9288ZM22.9288 32V26.962C25.9318 26.736 28.7318 25.497 30.9288 23.408C33.1258 25.497 35.9258 26.737 38.9288 26.962V32C38.9288 33.458 38.5308 34.822 37.8468 36H30.9288V38H36.2028C34.7928 39.241 32.9497 40 30.9288 40C26.5178 40 22.9288 36.411 22.9288 32ZM33.9288 41.539V41.586L30.9288 44.586L27.9288 41.586V41.539C28.8768 41.837 29.8838 42 30.9288 42C31.9738 42 32.9808 41.837 33.9288 41.539ZM15.7528 47.686C16.0362 46.8356 16.5431 46.077 17.2202 45.4896C17.8973 44.9022 18.7199 44.5076 19.6018 44.347L26.5918 43.077L30.9288 47.414L35.2648 43.078L42.2538 44.348C43.1357 44.5084 43.9584 44.903 44.6355 45.4904C45.3127 46.0778 45.8194 46.8365 46.1028 47.687L47.5418 52H26.8578L22.9628 48.105L18.6348 52.02C18.2578 52.399 17.5988 52.399 17.2208 52.02L15.0368 49.836L15.7528 47.686ZM6.58575 34.899L11.1718 39.485L10.0858 40.571L5.49975 35.985L6.58575 34.899ZM24.1208 58.537C23.1768 59.479 21.9208 60 20.5858 60C19.2508 60 17.9948 59.479 17.0498 58.535L3.53475 45.021C2.59075 44.077 2.07075 42.821 2.07075 41.486C2.07075 40.15 2.59075 38.894 3.53475 37.95L4.08475 37.4L8.67075 41.986L8.63475 42.022C7.46575 43.192 7.46575 45.095 8.63475 46.265L15.8058 53.436C16.3728 54.002 17.1258 54.315 17.9278 54.315C18.7298 54.315 19.4828 54.003 20.0128 53.471L20.0878 53.404L24.6948 58.011L24.1208 58.537ZM26.1708 56.657L21.5738 52.06L22.8948 50.866L27.4838 55.455L26.1708 56.657ZM58.9288 0H44.9288C43.2748 0 41.9288 1.346 41.9288 3V11C41.9288 12.654 43.2748 14 44.9288 14H47.5998L46.5658 20.031L56.2158 14H58.9288C60.5828 14 61.9288 12.654 61.9288 11V3C61.9288 1.346 60.5828 0 58.9288 0ZM59.9288 11C59.9288 11.551 59.4798 12 58.9288 12H55.6418L49.2908 15.969L49.9718 12H44.9288C44.3778 12 43.9288 11.551 43.9288 11V3C43.9288 2.449 44.3778 2 44.9288 2H58.9288C59.4798 2 59.9288 2.449 59.9288 3V11Z" fill="white"/>
<path d="M45.9285 4H57.9285V6H45.9285V4ZM45.9285 8H53.9285V10H45.9285V8ZM55.9285 8H57.9285V10H55.9285V8ZM30.9285 3C17.8625 3 6.60753 12.038 3.68153 24.645L1.78653 21.486L0.0715332 22.515L3.58653 28.372L9.44353 24.857L8.41453 23.142L5.70453 24.768C8.53853 13.235 18.9095 5 30.9285 5C33.5555 5 36.1475 5.39 38.6325 6.16L39.2245 4.25C36.5475 3.42 33.7565 3 30.9285 3ZM61.4425 22.142L55.5855 18.627L52.0715 24.485L53.7865 25.514L55.5365 22.597C56.4575 25.292 56.9285 28.111 56.9285 31C56.9285 36.947 54.8685 42.761 51.1295 47.37L52.6825 48.63C56.7105 43.666 58.9285 37.404 58.9285 31C58.9285 27.941 58.4355 24.954 57.4745 22.094L60.4135 23.857L61.4425 22.142Z" fill="white"/>
</g>
<defs>
<clipPath id="clip0_1_372">
<rect width="62" height="62" fill="white"/>
</clipPath>
</defs>
</svg>
