<svg width="55" height="54" viewBox="0 0 55 54" fill="none" xmlns="http://www.w3.org/2000/svg">
<path d="M39.7022 33.853H31.4937C30.7513 33.853 30.5095 33.6036 30.4306 33.5221C29.9411 33.018 29.9077 31.7681 29.9445 30.4925L30.0954 25.245C30.1126 24.7186 30.023 24.1941 29.832 23.7032C29.6411 23.2123 29.3527 22.7651 28.9844 22.3886C28.6187 22.0095 28.1801 21.7083 27.6949 21.5032C27.2097 21.2981 26.6881 21.1934 26.1613 21.1952H23.6264V22.0525C23.6264 26.8593 21.628 29.9772 20.4373 31.4081C20.197 31.6941 19.8965 31.9236 19.5573 32.08C19.2181 32.2365 18.8485 32.3162 18.4749 32.3134H16.6369C16.5956 31.6632 16.3087 31.0531 15.8343 30.6066C15.36 30.1601 14.7336 29.9106 14.0822 29.9087H10.5425V28.6493H1.7793V53.3537H10.5425V52.0961H14.0831C14.7345 52.0941 15.3608 51.8446 15.8352 51.3981C16.3095 50.9516 16.5964 50.3415 16.6378 49.6914H19.1033C19.2851 49.6914 19.4565 49.7625 19.5851 49.8911L20.5984 50.9044C20.9631 51.2712 21.3969 51.5619 21.8747 51.7598C22.3525 51.9578 22.8648 52.0589 23.382 52.0575H35.084C36.6314 52.0575 37.9585 50.9062 38.1059 49.4368C38.1659 48.8367 38.039 48.2391 37.7527 47.7222C38.7729 47.3244 39.5359 46.4071 39.6447 45.3149C39.7043 44.721 39.5817 44.123 39.2932 43.6004C40.3126 43.2017 41.0747 42.2844 41.1844 41.1914C41.2429 40.6073 41.1249 40.019 40.8458 39.5025C41.277 39.3405 41.6688 39.0773 41.9843 38.7293C42.2579 38.4256 42.4649 38.0681 42.5922 37.6796C42.7195 37.2912 42.7641 36.8805 42.7232 36.4738C42.5766 35.0035 41.2496 33.853 39.7022 33.853ZM14.9395 49.5242C14.9395 49.9966 14.5546 50.3815 14.0822 50.3815H10.5425V48.3849H8.8279V51.64H3.49387V30.3639H5.3036V37.4588H7.01817V30.3639H8.8279V46.1302H10.5425V31.6241H14.0831C14.5546 31.6241 14.9403 32.009 14.9403 32.4814L14.9395 49.5242ZM40.7129 37.5788C40.4814 37.8343 40.1642 37.9749 39.8205 37.9749H33.1559V39.6894H38.2808C38.6246 39.6894 38.9426 39.8309 39.1741 40.0864C39.4055 40.3418 39.5127 40.6736 39.4784 41.0208C39.4184 41.6252 38.8397 42.0984 38.1625 42.0984H33.1559V43.813H36.7411C37.0857 43.813 37.4029 43.9536 37.6344 44.209C37.8659 44.4645 37.9739 44.7963 37.9387 45.1435C37.8787 45.747 37.3009 46.2202 36.6237 46.2202H32.3861V47.9348H35.2023C35.5469 47.9348 35.8632 48.0754 36.0947 48.3317C36.3262 48.5863 36.4342 48.919 36.399 49.2662C36.339 49.8697 35.7612 50.3429 35.0848 50.3429H23.382C22.7879 50.3429 22.2298 50.1115 21.8106 49.6922L20.7973 48.6781C20.5753 48.4551 20.3113 48.2783 20.0205 48.1579C19.7297 48.0375 19.418 47.976 19.1033 47.9768H16.6532V34.0279H18.4741C19.099 34.031 19.7169 33.8961 20.2837 33.6329C20.8505 33.3697 21.3523 32.9847 21.7532 32.5054C23.0203 30.9837 25.0983 27.7749 25.3204 22.9098H26.1605C26.4579 22.9087 26.7524 22.9679 27.0263 23.0837C27.3001 23.1995 27.5478 23.3696 27.7542 23.5836C27.9619 23.7961 28.1246 24.0484 28.2323 24.3254C28.3399 24.6024 28.3905 24.8983 28.3809 25.1953L28.2291 30.4436C28.1828 32.0527 28.2205 33.7082 29.1996 34.7163C29.7482 35.2804 30.5198 35.5667 31.4928 35.5667H39.7013C40.3786 35.5667 40.9564 36.04 41.0164 36.6444C41.0507 36.9916 40.9444 37.3233 40.7129 37.5788Z" fill="#22A8FF"/>
<path d="M5.30574 38.475H7.02031V40.0052H5.30574V38.475ZM21.6302 18.0639L27.5 13.7989L33.3698 18.0639L31.1272 11.1644L36.997 6.89943H29.7418L27.5 0L25.2582 6.89943H18.003L23.8728 11.1644L21.6302 18.0639ZM23.2804 8.614H26.5038L27.5 5.54835L28.4962 8.614H31.7196L29.1117 10.5086L30.1079 13.5751L27.5 11.6805L24.8921 13.5751L25.8883 10.5095L23.2804 8.614ZM55 13.1319H47.7448L45.503 6.23332L43.2612 13.1319H36.006L41.8758 17.3969L39.6332 24.2963L45.503 20.033L51.3728 24.2972L49.1302 17.3977L55 13.1319ZM45.503 17.913L42.8951 19.8076L43.8913 16.7419L41.2834 14.8473H44.5068L45.503 11.78L46.4991 14.8456H49.7225L47.1147 16.7402L48.1108 19.8067L45.503 17.913ZM3.62717 24.2963L9.49701 20.033L15.3668 24.2972L13.1242 17.3977L18.994 13.1328H11.7388L9.49701 6.23332L7.25521 13.1319H0L5.86983 17.3969L3.62717 24.2963ZM5.27745 14.8465H8.50084L9.49701 11.7808L10.4932 14.8465H13.7166L11.1087 16.7411L12.1049 19.8076L9.49701 17.913L6.88914 19.8076L7.88531 16.7419L5.27745 14.8465Z" fill="#22A8FF"/>
</svg>
