<svg width="292" height="199" viewBox="0 0 292 199" fill="none" xmlns="http://www.w3.org/2000/svg">
<g opacity="0.3">
<path d="M0.451854 196.249C22.5508 149.986 115.3 160.075 78.0844 95.832C59.3595 60.0199 63.0018 49.1999 77.4631 35.2327C95.2621 11.5177 128.097 -10.8543 193.457 16.5174C223.892 39.4757 188.733 37.2874 236.541 67.1546C355.262 165.112 243.006 157.251 253.912 198.182" stroke="#818181"/>
<path d="M30.5004 196.251C48.3337 149.982 88.0313 166.12 58.038 101.887C42.9479 66.0805 88.4386 39.7424 100.104 25.7713C130.092 7.02558 159.69 -15.2919 186.189 16.4672C210.726 39.4172 182.375 37.2385 220.919 67.0927C325.941 148.436 260.571 155.323 269.355 196.251" stroke="#818181"/>
</g>
</svg>
