<svg width="47" height="43" viewBox="0 0 47 43" fill="none" xmlns="http://www.w3.org/2000/svg">
<path d="M14.7438 17.2015C15.1575 17.2015 15.5543 17.0505 15.8469 16.7817C16.1394 16.5129 16.3038 16.1483 16.3038 15.7682V14.3348C16.3038 13.9547 16.1394 13.5901 15.8469 13.3213C15.5543 13.0525 15.1575 12.9015 14.7438 12.9015H5.38395C4.97022 12.9015 4.57343 13.0525 4.28088 13.3213C3.98833 13.5901 3.82397 13.9547 3.82397 14.3348V15.7682C3.82397 16.1483 3.98833 16.5129 4.28088 16.7817C4.57343 17.0505 4.97022 17.2015 5.38395 17.2015H14.7438ZM5.38395 14.3348H14.7438V15.7682H5.38395V14.3348ZM6.94393 18.6348C6.32333 18.6348 5.72815 18.8613 5.28932 19.2645C4.85049 19.6677 4.60396 20.2146 4.60396 20.7848C4.60396 21.355 4.85049 21.9019 5.28932 22.3051C5.72815 22.7083 6.32333 22.9348 6.94393 22.9348C7.56453 22.9348 8.15971 22.7083 8.59854 22.3051C9.03737 21.9019 9.2839 21.355 9.2839 20.7848C9.2839 20.2146 9.03737 19.6677 8.59854 19.2645C8.15971 18.8613 7.56453 18.6348 6.94393 18.6348ZM6.94393 21.5015C6.73706 21.5015 6.53867 21.426 6.39239 21.2916C6.24612 21.1572 6.16394 20.9749 6.16394 20.7848C6.16394 20.5948 6.24612 20.4125 6.39239 20.2781C6.53867 20.1437 6.73706 20.0682 6.94393 20.0682C7.1508 20.0682 7.34919 20.1437 7.49547 20.2781C7.64174 20.4125 7.72392 20.5948 7.72392 20.7848C7.72392 20.9749 7.64174 21.1572 7.49547 21.2916C7.34919 21.426 7.1508 21.5015 6.94393 21.5015ZM6.94393 23.6515C6.32333 23.6515 5.72815 23.878 5.28932 24.2812C4.85049 24.6844 4.60396 25.2313 4.60396 25.8015C4.60396 26.3717 4.85049 26.9186 5.28932 27.3218C5.72815 27.725 6.32333 27.9515 6.94393 27.9515C7.56453 27.9515 8.15971 27.725 8.59854 27.3218C9.03737 26.9186 9.2839 26.3717 9.2839 25.8015C9.2839 25.2313 9.03737 24.6844 8.59854 24.2812C8.15971 23.878 7.56453 23.6515 6.94393 23.6515ZM6.94393 26.5182C6.73706 26.5182 6.53867 26.4426 6.39239 26.3082C6.24612 26.1738 6.16394 25.9916 6.16394 25.8015C6.16394 25.6114 6.24612 25.4291 6.39239 25.2947C6.53867 25.1603 6.73706 25.0848 6.94393 25.0848C7.1508 25.0848 7.34919 25.1603 7.49547 25.2947C7.64174 25.4291 7.72392 25.6114 7.72392 25.8015C7.72392 25.9916 7.64174 26.1738 7.49547 26.3082C7.34919 26.4426 7.1508 26.5182 6.94393 26.5182ZM6.94393 28.6682C6.32333 28.6682 5.72815 28.8947 5.28932 29.2979C4.85049 29.7011 4.60396 30.2479 4.60396 30.8182C4.60396 31.3884 4.85049 31.9352 5.28932 32.3384C5.72815 32.7416 6.32333 32.9682 6.94393 32.9682C7.56453 32.9682 8.15971 32.7416 8.59854 32.3384C9.03737 31.9352 9.2839 31.3884 9.2839 30.8182C9.2839 30.2479 9.03737 29.7011 8.59854 29.2979C8.15971 28.8947 7.56453 28.6682 6.94393 28.6682ZM6.94393 31.5348C6.73706 31.5348 6.53867 31.4593 6.39239 31.3249C6.24612 31.1905 6.16394 31.0082 6.16394 30.8182C6.16394 30.6281 6.24612 30.4458 6.39239 30.3114C6.53867 30.177 6.73706 30.1015 6.94393 30.1015C7.1508 30.1015 7.34919 30.177 7.49547 30.3114C7.64174 30.4458 7.72392 30.6281 7.72392 30.8182C7.72392 31.0082 7.64174 31.1905 7.49547 31.3249C7.34919 31.4593 7.1508 31.5348 6.94393 31.5348ZM13.1838 18.6348C12.5632 18.6348 11.9681 18.8613 11.5292 19.2645C11.0904 19.6677 10.8439 20.2146 10.8439 20.7848C10.8439 21.355 11.0904 21.9019 11.5292 22.3051C11.9681 22.7083 12.5632 22.9348 13.1838 22.9348C13.8044 22.9348 14.3996 22.7083 14.8384 22.3051C15.2773 21.9019 15.5238 21.355 15.5238 20.7848C15.5238 20.2146 15.2773 19.6677 14.8384 19.2645C14.3996 18.8613 13.8044 18.6348 13.1838 18.6348ZM13.1838 21.5015C12.977 21.5015 12.7786 21.426 12.6323 21.2916C12.486 21.1572 12.4039 20.9749 12.4039 20.7848C12.4039 20.5948 12.486 20.4125 12.6323 20.2781C12.7786 20.1437 12.977 20.0682 13.1838 20.0682C13.3907 20.0682 13.5891 20.1437 13.7354 20.2781C13.8817 20.4125 13.9638 20.5948 13.9638 20.7848C13.9638 20.9749 13.8817 21.1572 13.7354 21.2916C13.5891 21.426 13.3907 21.5015 13.1838 21.5015ZM13.1838 23.6515C12.5632 23.6515 11.9681 23.878 11.5292 24.2812C11.0904 24.6844 10.8439 25.2313 10.8439 25.8015C10.8439 26.3717 11.0904 26.9186 11.5292 27.3218C11.9681 27.725 12.5632 27.9515 13.1838 27.9515C13.8044 27.9515 14.3996 27.725 14.8384 27.3218C15.2773 26.9186 15.5238 26.3717 15.5238 25.8015C15.5238 25.2313 15.2773 24.6844 14.8384 24.2812C14.3996 23.878 13.8044 23.6515 13.1838 23.6515ZM13.1838 26.5182C12.977 26.5182 12.7786 26.4426 12.6323 26.3082C12.486 26.1738 12.4039 25.9916 12.4039 25.8015C12.4039 25.6114 12.486 25.4291 12.6323 25.2947C12.7786 25.1603 12.977 25.0848 13.1838 25.0848C13.3907 25.0848 13.5891 25.1603 13.7354 25.2947C13.8817 25.4291 13.9638 25.6114 13.9638 25.8015C13.9638 25.9916 13.8817 26.1738 13.7354 26.3082C13.5891 26.4426 13.3907 26.5182 13.1838 26.5182ZM13.1838 28.6682C12.5632 28.6682 11.9681 28.8947 11.5292 29.2979C11.0904 29.7011 10.8439 30.2479 10.8439 30.8182C10.8439 31.3884 11.0904 31.9352 11.5292 32.3384C11.9681 32.7416 12.5632 32.9682 13.1838 32.9682C13.8044 32.9682 14.3996 32.7416 14.8384 32.3384C15.2773 31.9352 15.5238 31.3884 15.5238 30.8182C15.5238 30.2479 15.2773 29.7011 14.8384 29.2979C14.3996 28.8947 13.8044 28.6682 13.1838 28.6682ZM13.1838 31.5348C12.977 31.5348 12.7786 31.4593 12.6323 31.3249C12.486 31.1905 12.4039 31.0082 12.4039 30.8182C12.4039 30.6281 12.486 30.4458 12.6323 30.3114C12.7786 30.177 12.977 30.1015 13.1838 30.1015C13.3907 30.1015 13.5891 30.177 13.7354 30.3114C13.8817 30.4458 13.9638 30.6281 13.9638 30.8182C13.9638 31.0082 13.8817 31.1905 13.7354 31.3249C13.5891 31.4593 13.3907 31.5348 13.1838 31.5348ZM37.3011 28.6682C37.3011 28.8582 37.3833 29.0405 37.5295 29.1749C37.6758 29.3093 37.8742 29.3848 38.0811 29.3848C38.2879 29.3848 38.4863 29.3093 38.6326 29.1749C38.7789 29.0405 38.8611 28.8582 38.8611 28.6682C38.8611 26.8966 37.1708 25.4245 34.9611 25.1386V24.3682C34.9611 24.1781 34.879 23.9958 34.7327 23.8614C34.5864 23.727 34.388 23.6515 34.1811 23.6515C33.9743 23.6515 33.7759 23.727 33.6296 23.8614C33.4833 23.9958 33.4011 24.1781 33.4011 24.3682V25.1386C31.1914 25.4252 29.5012 26.8966 29.5012 28.6682C29.5012 30.4398 31.1914 31.9118 33.4011 32.1977V36.4748C32.0596 36.2347 31.0612 35.3998 31.0612 34.4015C31.0612 34.2114 30.979 34.0291 30.8327 33.8947C30.6865 33.7603 30.4881 33.6848 30.2812 33.6848C30.0743 33.6848 29.8759 33.7603 29.7297 33.8947C29.5834 34.0291 29.5012 34.2114 29.5012 34.4015C29.5012 36.1731 31.1914 37.6451 33.4011 37.9311V38.7015C33.4011 38.8916 33.4833 39.0738 33.6296 39.2082C33.7759 39.3426 33.9743 39.4182 34.1811 39.4182C34.388 39.4182 34.5864 39.3426 34.7327 39.2082C34.879 39.0738 34.9611 38.8916 34.9611 38.7015V37.9311C37.1708 37.6444 38.8611 36.1731 38.8611 34.4015C38.8611 32.6299 37.1708 31.1579 34.9611 30.8719V26.5948C36.3027 26.8349 37.3011 27.6691 37.3011 28.6682ZM31.0612 28.6682C31.0612 27.6691 32.0596 26.8349 33.4011 26.5948V30.7415C32.0596 30.5014 31.0612 29.6672 31.0612 28.6682ZM37.3011 34.4015C37.3011 35.4005 36.3027 36.2347 34.9611 36.4748V32.3282C36.3027 32.5683 37.3011 33.4025 37.3011 34.4015Z" fill="white"/>
<path d="M29.501 20.9109V15.05L40.0082 19.3672C41.1413 19.8329 42.4294 19.8659 43.589 19.459C44.7486 19.0521 45.6848 18.2386 46.1916 17.1975C46.6984 16.1564 46.7344 14.9729 46.2915 13.9074C45.8487 12.842 44.9633 11.9818 43.8302 11.5161L29.501 5.62798V5.01667C29.5023 4.06666 29.9135 3.15588 30.6446 2.48412C31.3758 1.81237 32.367 1.43447 33.401 1.43333C33.6078 1.43333 33.8062 1.35783 33.9525 1.22343C34.0988 1.08903 34.1809 0.906738 34.1809 0.716667C34.1809 0.526595 34.0988 0.344308 33.9525 0.209907C33.8062 0.0755057 33.6078 0 33.401 0L14.7436 0C13.2961 0.00151744 11.9083 0.530545 10.8847 1.47102C9.86112 2.4115 9.28535 3.68663 9.2837 5.01667V10.0333H3.04379C2.42319 10.0333 1.82801 10.2598 1.38918 10.6631C0.950356 11.0663 0.703824 11.6131 0.703824 12.1833V33.6833C0.703824 34.2535 0.950356 34.8004 1.38918 35.2036C1.82801 35.6068 2.42319 35.8333 3.04379 35.8333H9.2837V37.2667H1.56181C1.33384 37.2656 1.10841 37.3106 0.901493 37.3985C0.69458 37.4865 0.511262 37.6151 0.364543 37.7755C0.217824 37.9358 0.111299 38.1238 0.0525245 38.3262C-0.00624981 38.5286 -0.0158332 38.7404 0.0244542 38.9465C0.269242 40.0876 0.937236 41.1154 1.91454 41.8546C2.89184 42.5938 4.11793 42.9986 5.38376 43H24.0411C24.7735 42.9986 25.4981 42.8614 26.1714 42.5966C26.8447 42.3319 27.453 41.945 27.9598 41.4592C29.7929 42.4299 31.8646 42.9562 33.9801 42.9885C36.0956 43.0208 38.1853 42.5582 40.0525 41.644C41.9198 40.7298 43.5032 39.3942 44.6539 37.7628C45.8045 36.1314 46.4846 34.2579 46.6301 32.3185C46.7755 30.3791 46.3816 28.4375 45.4854 26.6765C44.5892 24.9155 43.2201 23.393 41.507 22.2521C39.7939 21.1112 37.7931 20.3895 35.6928 20.1549C33.5925 19.9202 31.4617 20.1804 29.501 20.9109ZM23.311 9.78608L24.9264 6.48082L26.6369 6.4629L24.4443 10.965L23.311 9.78608ZM20.1482 6.48942H23.2135L22.1785 8.60788L20.1482 6.48942ZM26.6478 9.9545C31.295 11.8637 31.0048 11.772 31.238 11.772C31.4167 11.7721 31.5901 11.7159 31.729 11.6128C31.868 11.5096 31.9643 11.3657 32.0016 11.2051C32.039 11.0446 32.0152 10.8771 31.9343 10.7307C31.8534 10.5844 31.7202 10.468 31.5571 10.401L27.2851 8.643L28.2406 6.68005L38.9202 11.0689L37.9655 13.0311L34.4048 11.5684C34.3113 11.53 34.2104 11.5089 34.1081 11.5063C34.0057 11.5037 33.9037 11.5197 33.808 11.5533C33.7124 11.5869 33.6248 11.6375 33.5504 11.7022C33.476 11.7669 33.4162 11.8444 33.3744 11.9303C33.3326 12.0163 33.3097 12.1089 33.3069 12.203C33.304 12.2971 33.3214 12.3908 33.358 12.4787C33.3946 12.5666 33.4496 12.647 33.52 12.7154C33.5904 12.7837 33.6748 12.8387 33.7683 12.8771L37.3282 14.3398L36.3727 16.3027L25.6931 11.9139L26.6478 9.9545ZM41.7679 12.2421L39.2212 17.4738L37.797 16.889L40.3444 11.6573L41.7679 12.2421ZM44.8372 14.4157C45.0549 14.9457 45.0973 15.523 44.9591 16.0751C44.8209 16.6272 44.5082 17.1294 44.0604 17.5188C43.6126 17.9081 43.0495 18.1672 42.442 18.2635C41.8344 18.3598 41.2094 18.289 40.6455 18.06L43.1929 12.8283C43.9476 13.1358 44.5388 13.7056 44.8372 14.4129V14.4157ZM2.2638 33.6833V12.1833C2.2638 11.9933 2.34598 11.811 2.49226 11.6766C2.63853 11.5422 2.83693 11.4667 3.04379 11.4667H17.0836C17.2905 11.4667 17.4888 11.5422 17.6351 11.6766C17.7814 11.811 17.8636 11.9933 17.8636 12.1833V33.6833C17.8636 33.8734 17.7814 34.0557 17.6351 34.1901C17.4888 34.3245 17.2905 34.4 17.0836 34.4H3.04379C2.83693 34.4 2.63853 34.3245 2.49226 34.1901C2.34598 34.0557 2.2638 33.8734 2.2638 33.6833ZM1.56181 38.7043H18.6436C18.8152 39.7931 19.3735 40.7994 20.2316 41.5667H5.38376C4.48512 41.5685 3.61352 41.2843 2.91708 40.7625C2.22063 40.2407 1.7423 39.5135 1.56337 38.7043H1.56181ZM20.1864 38.5051C20.1363 38.1619 19.9522 37.8471 19.6684 37.6193C19.3846 37.3915 19.0204 37.2662 18.6436 37.2667H10.8437V35.8333H17.0836C17.7042 35.8333 18.2994 35.6068 18.7382 35.2036C19.177 34.8004 19.4236 34.2535 19.4236 33.6833V12.1833C19.4236 11.6131 19.177 11.0663 18.7382 10.6631C18.2994 10.2598 17.7042 10.0333 17.0836 10.0333H10.8437V5.01667C10.8449 4.06666 11.2562 3.15588 11.9873 2.48412C12.7184 1.81237 13.7097 1.43447 14.7436 1.43333H29.579C29.0576 1.90187 28.6439 2.46189 28.3625 3.08015C28.0811 3.69841 27.9378 4.3623 27.941 5.03243C27.9114 5.02577 27.8815 5.02051 27.8513 5.01667L27.8373 5.03172H18.4252C18.2747 5.03564 18.1284 5.07857 18.0033 5.15556C17.8782 5.23254 17.7794 5.34045 17.7181 5.46683C17.6569 5.59321 17.6358 5.73293 17.6573 5.86985C17.6787 6.00678 17.7419 6.13535 17.8394 6.24073C25.0605 13.7657 24.052 12.7337 24.3468 12.9272L27.941 14.4086V21.6182C26.1602 22.5602 24.6609 23.8925 23.5769 25.4964C22.4929 27.1003 21.858 28.9259 21.7288 30.8101C21.5995 32.6943 21.98 34.5787 22.8363 36.2949C23.6926 38.0112 24.9981 39.5059 26.6361 40.6457C26.1124 41.0768 25.4713 41.3694 24.7811 41.4925C24.0909 41.6157 23.3773 41.5648 22.716 41.3453C22.0548 41.1258 21.4706 40.7458 21.0254 40.2457C20.5803 39.7456 20.2909 39.1441 20.1879 38.5051H20.1864ZM34.1809 41.5667C32.0212 41.5667 29.91 40.9782 28.1142 39.8757C26.3184 38.7733 24.9188 37.2063 24.0923 35.3729C23.2658 33.5396 23.0496 31.5222 23.4709 29.5759C23.8923 27.6296 24.9323 25.8419 26.4595 24.4387C27.9866 23.0355 29.9323 22.0799 32.0506 21.6928C34.1688 21.3056 36.3644 21.5043 38.3598 22.2637C40.3551 23.0231 42.0606 24.3091 43.2605 25.9591C44.4604 27.6091 45.1008 29.5489 45.1008 31.5333C45.0946 37.0724 40.2095 41.5609 34.1809 41.5667Z" fill="white"/>
<path d="M27.1737 26.8864C26.9949 26.7909 26.7822 26.7644 26.5823 26.8129C26.3823 26.8615 26.2115 26.9809 26.1074 27.1451C25.3429 28.3588 24.9064 29.7232 24.8343 31.124C24.7622 32.5247 25.0568 33.9209 25.6933 35.1954C25.7337 35.2842 25.7931 35.3646 25.868 35.4319C25.943 35.4991 26.0319 35.5518 26.1294 35.5867C26.227 35.6217 26.3313 35.6383 26.4359 35.6354C26.5406 35.6326 26.6436 35.6104 26.7388 35.5702C26.8339 35.53 26.9193 35.4726 26.9898 35.4014C27.0603 35.3303 27.1144 35.2468 27.1491 35.156C27.1837 35.0651 27.198 34.9688 27.1913 34.8728C27.1845 34.7768 27.1568 34.683 27.1097 34.597C26.5784 33.5312 26.3326 32.3639 26.3929 31.1929C26.4531 30.0219 26.8177 28.8811 27.456 27.8661C27.56 27.7018 27.5886 27.5062 27.5357 27.3225C27.4827 27.1388 27.3525 26.9819 27.1737 26.8864ZM41.1948 26.8864C41.0159 26.9819 40.8857 27.1388 40.8328 27.3225C40.7798 27.5062 40.8085 27.7018 40.9124 27.8661C41.5508 28.8811 41.9153 30.0219 41.9756 31.1929C42.0358 32.3639 41.79 33.5312 41.2587 34.597C41.2117 34.683 41.1839 34.7768 41.1772 34.8728C41.1704 34.9688 41.1848 35.0651 41.2194 35.156C41.254 35.2468 41.3082 35.3303 41.3787 35.4014C41.4492 35.4726 41.5345 35.53 41.6297 35.5702C41.7248 35.6104 41.8278 35.6326 41.9325 35.6354C42.0372 35.6383 42.1414 35.6217 42.239 35.5867C42.3366 35.5518 42.4255 35.4991 42.5004 35.4319C42.5754 35.3646 42.6348 35.2842 42.6752 35.1954C43.3117 33.9209 43.6062 32.5247 43.5342 31.124C43.4621 29.7232 43.0255 28.3588 42.261 27.1451C42.1569 26.9809 41.9861 26.8615 41.7862 26.8129C41.5862 26.7644 41.3735 26.7909 41.1948 26.8864Z" fill="white"/>
</svg>
