<svg width="24" height="24" viewBox="0 0 24 24" fill="none" xmlns="http://www.w3.org/2000/svg">
<path d="M4 19.0002C3.732 19.0002 3.49833 18.9005 3.299 18.7012C3.09967 18.5019 3 18.2682 3 18.0002V13.6922H7.5V14.6922H8.5V13.6922H15.5V14.6922H16.5V13.6922H21V18.0002C21 18.2682 20.9003 18.5019 20.701 18.7012C20.5017 18.9005 20.268 19.0002 20 19.0002H4ZM3.175 12.6922L5.423 7.58419C5.49633 7.39752 5.613 7.25352 5.773 7.15219C5.933 7.05086 6.10867 7.00019 6.3 7.00019H8.192V5.84619C8.192 5.57819 8.292 5.34486 8.492 5.14619C8.69133 4.94619 8.92467 4.84619 9.192 4.84619H14.808C15.076 4.84619 15.3093 4.94619 15.508 5.14619C15.708 5.34486 15.808 5.57819 15.808 5.84619V7.00019H17.7C17.8913 7.00019 18.067 7.05086 18.227 7.15219C18.387 7.25352 18.5037 7.39786 18.577 7.58519L20.825 12.6922H16.5V11.6922H15.5V12.6922H8.5V11.6922H7.5V12.6922H3.175ZM9.192 7.00019H14.808V5.84619H9.192V7.00019Z" fill="#32B5FD"/>
</svg>
