<svg width="49" height="46" viewBox="0 0 49 46" fill="none" xmlns="http://www.w3.org/2000/svg">
<path d="M47.7307 37.1269C47.0482 36.0242 46.1172 35.0694 45.0006 34.3269C43.884 33.5844 42.6078 33.0714 41.258 32.8226L37.7909 32.1832L37.3238 30.4604C38.6976 29.6687 39.6905 28.4217 40.0986 26.9756H40.3065C42.0499 26.9756 43.4677 25.6677 43.4677 24.0594C43.4677 23.401 43.2212 22.8003 42.8213 22.3118C43.0852 21.5354 43.4677 20.2253 43.4677 19.1252C43.4669 18.4183 43.1882 17.7358 42.6833 17.2041C42.1784 16.6724 41.4816 16.3276 40.7222 16.2338L40.3207 15.7409C39.7563 15.0524 39.0412 14.4813 38.2217 14.0646C37.4023 13.648 36.4969 13.3952 35.5645 13.3227V7.71699L27.1982 0H0V45.2011H49V41.5347C49 39.9906 48.5614 38.4661 47.7307 37.1269ZM37.8312 33.677L37.3309 36.7252L35.2587 35.5784L37.4052 33.5983L37.8312 33.677ZM30.5626 33.599L32.7091 35.5791L30.6369 36.7259L30.1366 33.6777L30.5626 33.599ZM36.2695 32.5842L33.9839 34.6926L31.6983 32.5842L32.1053 31.0823C32.7134 31.258 33.3467 31.3479 33.9839 31.3492C34.6383 31.3492 35.2697 31.2566 35.8641 31.086L36.2695 32.5842ZM38.7258 25.5168C38.7258 27.9292 36.599 29.8911 33.9862 29.8911C32.7275 29.8859 31.5221 29.4215 30.6333 28.5993C29.7444 27.7772 29.2442 26.664 29.2419 25.5029V22.4927C32.2373 21.9984 33.5531 21.0688 34.5324 20.3784C35.2136 19.8972 35.5392 19.6844 36.117 19.6844C36.633 19.6844 37.1333 19.8243 37.564 20.089C37.9214 20.3079 38.2146 20.605 38.4173 20.9538C38.62 21.3026 38.726 21.6923 38.7258 22.088V25.5168ZM40.3065 25.5168V22.6006C41.1782 22.6006 41.8871 23.2545 41.8871 24.0587C41.8871 24.8628 41.1782 25.5168 40.3065 25.5168ZM39.0562 16.6165L39.9113 17.6678H40.3065C41.1782 17.6678 41.8871 18.3218 41.8871 19.1259C41.8871 19.7609 41.7022 20.5957 41.4753 21.3553C41.1042 21.2156 40.7073 21.1433 40.3065 21.1425H40.1792C39.9247 20.214 39.305 19.4061 38.4405 18.8758C37.7529 18.4517 36.9441 18.2255 36.117 18.2263C34.9797 18.2263 34.2961 18.7089 33.5721 19.2199C32.615 19.8958 31.4216 20.7349 28.3868 21.1425H27.6613C27.2749 21.1446 26.8923 21.2126 26.5327 21.3429L26.1715 20.1014C25.9909 19.4268 26.0865 18.7144 26.4401 18.1008C26.7936 17.4872 27.3801 17.0155 28.0873 16.7762L33.2868 15.0323C33.8402 14.8462 34.4247 14.7512 35.0137 14.7516C35.7979 14.753 36.5711 14.9221 37.2726 15.2457C37.974 15.5692 38.5845 16.0385 39.0562 16.6165ZM32.7462 13.6617L30.8226 14.3069V8.7486H33.9839V13.3708C33.5621 13.4307 33.1476 13.5281 32.7462 13.6617ZM27.6613 7.2905V2.48898L32.8664 7.2905H27.6613ZM29.2419 8.7486V14.8369L27.5467 15.4056C26.4408 15.7792 25.5304 16.527 25.0003 17.4972H6.32258V7.2905H26.0806V8.7486H29.2419ZM27.6613 22.6006V25.5029L27.6621 25.5168C26.7904 25.5168 26.0806 24.8628 26.0806 24.0587C26.0806 23.2545 26.7896 22.6006 27.6613 22.6006ZM1.58065 1.4581H26.0806V5.8324H4.74194V18.9553H24.5395C24.5213 19.1091 24.5 19.2622 24.5 19.419C24.5 19.7675 24.5466 20.1152 24.6415 20.4674L25.1702 22.2849C24.7387 22.7907 24.5028 23.415 24.5 24.0587C24.5 25.6669 25.9178 26.9749 27.6613 26.9749H27.8731C28.2844 28.4172 29.2757 29.661 30.6455 30.4531L30.1769 32.1832L26.7097 32.8226C25.36 33.0712 24.0838 33.5841 22.9672 34.3265C21.8506 35.0689 20.9196 36.0236 20.237 37.1261C19.4057 38.4689 18.9682 39.9884 18.9677 41.5347V43.743H1.58065V1.4581ZM47.4194 43.743H42.6774V40.8268H41.0968V43.743H26.871V40.8268H25.2903V43.743H20.5484V41.5347C20.5475 39.8176 21.192 38.1534 22.3721 36.8255C23.5522 35.4976 25.1949 34.5882 27.0203 34.2522L28.5844 33.9635L29.4277 39.0953L33.9839 36.5735L38.5401 39.0953L39.3834 33.9635L40.9474 34.2522C42.7721 34.5896 44.4138 35.4994 45.5936 36.827C46.7735 38.1546 47.4186 39.818 47.4194 41.5347V43.743Z" fill="white"/>
<path d="M4.12793 41.1201L12.0351 31.638L13.2886 32.5275L5.38138 42.0095L4.12793 41.1201ZM11.8518 36.4519C10.5446 36.4519 9.48078 37.4333 9.48078 38.6391C9.48078 39.8449 10.5446 40.8262 11.8518 40.8262C13.1589 40.8262 14.2227 39.8449 14.2227 38.6391C14.2227 37.4333 13.1589 36.4519 11.8518 36.4519ZM11.8518 39.3681C11.4163 39.3681 11.0614 39.0408 11.0614 38.6391C11.0614 38.2374 11.4163 37.91 11.8518 37.91C12.2872 37.91 12.6421 38.2374 12.6421 38.6391C12.6421 39.0408 12.2872 39.3681 11.8518 39.3681ZM7.90014 34.9938C7.90014 33.788 6.83636 32.8067 5.52917 32.8067C4.22198 32.8067 3.1582 33.788 3.1582 34.9938C3.1582 36.1997 4.22198 37.181 5.52917 37.181C6.83636 37.181 7.90014 36.1997 7.90014 34.9938ZM4.73885 34.9938C4.73885 34.5921 5.0937 34.2648 5.52917 34.2648C5.96464 34.2648 6.31949 34.5921 6.31949 34.9938C6.31949 35.3956 5.96464 35.7229 5.52917 35.7229C5.0937 35.7229 4.73885 35.3956 4.73885 34.9938ZM6.31949 20.4128H21.3356V21.8709H6.31949V20.4128ZM6.31949 26.2452H21.3356V27.7033H6.31949V26.2452ZM6.31949 23.329H7.90014V24.7871H6.31949V23.329ZM9.48078 23.329H21.3356V24.7871H9.48078V23.329ZM6.31949 29.1614H18.1743V30.6195H6.31949V29.1614ZM19.755 29.1614H21.3356V30.6195H19.755V29.1614ZM8.69046 10.2061H10.2711V16.0385H11.8518V10.2061H13.4324V8.74805H8.69046V10.2061ZM17.384 8.74805C16.0768 8.74805 15.013 9.72935 15.013 10.9352V16.0385H16.5937V14.5804H18.1743V16.0385H19.755V10.9352C19.755 9.72935 18.6912 8.74805 17.384 8.74805ZM16.5937 13.1223V10.9352C16.5937 10.5335 16.9485 10.2061 17.384 10.2061C17.8195 10.2061 18.1743 10.5335 18.1743 10.9352V13.1223H16.5937ZM24.4969 9.98524L23.7066 11.0788L22.9163 9.98524V8.74805H21.3356V10.427L22.7566 12.3933L21.3356 14.3595V16.0385H22.9163V14.8013L23.7066 13.7078L24.4969 14.8013V16.0385H26.0776V14.3595L24.6566 12.3933L26.0776 10.427V8.74805H24.4969V9.98524Z" fill="white"/>
</svg>
