<svg width="58" height="58" viewBox="0 0 58 58" fill="none" xmlns="http://www.w3.org/2000/svg">
<g clip-path="url(#clip0_1_281)">
<path d="M5.08854 51.5446C4.84346 52.2821 4.77704 53.0673 4.89475 53.8355C5.01246 54.6037 5.31092 55.333 5.76558 55.9633C6.22024 56.5936 6.81809 57.107 7.50993 57.4611C8.20176 57.8151 8.9678 57.9999 9.74498 58H48.255C49.0321 57.9998 49.798 57.8151 50.4898 57.4611C51.1815 57.107 51.7793 56.5938 52.2339 55.9636C52.6885 55.3334 52.987 54.6043 53.1048 53.8362C53.2226 53.0681 53.1564 52.283 52.9115 51.5456L49.2865 40.6677C49.0317 39.9243 48.7215 39.2012 48.3585 38.5043L48.6224 37.5009C48.7361 37.0683 48.749 36.6153 48.6602 36.1769C48.5714 35.7385 48.3832 35.3263 48.1101 34.9721C47.837 34.6178 47.4863 34.331 47.0849 34.1336C46.6835 33.9361 46.2422 33.8334 45.7949 33.8333H44.719C41.871 31.3423 38.2163 29.9685 34.4327 29.9667H33.8333V29.2668C35.5765 28.3536 37.0555 27.0074 38.1282 25.3576C38.6822 24.1473 39.0345 22.8546 39.1713 21.5306C39.8603 21.3355 40.4669 20.921 40.8992 20.3501C41.3315 19.7791 41.5658 19.0828 41.5667 18.3667V12.5667C41.5667 9.23378 40.2427 6.0374 37.886 3.68069C35.5293 1.32398 32.3329 0 29 0C25.6671 0 22.4707 1.32398 20.114 3.68069C17.7573 6.0374 16.4333 9.23378 16.4333 12.5667V18.3667C16.4342 19.0828 16.6685 19.7791 17.1008 20.3501C17.5331 20.921 18.1397 21.3355 18.8287 21.5306C18.9654 22.8547 19.3181 24.1475 19.8727 25.3576C20.945 27.0074 22.4237 28.3536 24.1667 29.2668V29.9667H23.5673C19.7837 29.9685 16.129 31.3423 13.281 33.8333H12.2051C11.7578 33.8333 11.3163 33.9359 10.9148 34.1332C10.5133 34.3306 10.1625 34.6174 9.88924 34.9717C9.61602 35.326 9.42773 35.7382 9.33887 36.1767C9.25001 36.6152 9.26294 37.0682 9.37668 37.5009L9.64154 38.5052C9.27776 39.2027 8.96691 39.9265 8.71161 40.6706L5.08854 51.5446ZM13.5333 56.0667V54.1333H44.4667V56.0667H13.5333ZM51.0787 52.1584C51.2262 52.6053 51.2657 53.0808 51.1938 53.5459C51.1219 54.0109 50.9407 54.4523 50.6651 54.8337C50.3895 55.2152 50.0274 55.5258 49.6084 55.7402C49.1894 55.9545 48.7256 56.0664 48.255 56.0667H46.4V54.1333C46.3982 53.6703 46.2302 53.2233 45.9267 52.8737C45.6231 52.524 45.2042 52.2949 44.746 52.228L47.5494 41.5715L51.0787 52.1584ZM41.442 33.8333H32.8386C33.2781 33.2642 33.5837 32.6034 33.7328 31.9H34.4298C36.8987 31.901 39.3214 32.569 41.442 33.8333ZM29 1.93333C31.8191 1.93666 34.5218 3.05802 36.5152 5.05144C38.5087 7.04485 39.63 9.74755 39.6333 12.5667V15.37C39.4816 15.2997 39.3245 15.2416 39.1635 15.196C38.9901 14.291 38.5297 13.4659 37.8507 12.843C37.1717 12.22 36.3101 11.8323 35.3935 11.7373C33.4698 11.4811 31.64 10.7502 30.0691 9.6106C29.7556 9.395 29.3839 9.27958 29.0034 9.27958C28.6228 9.27958 28.2512 9.395 27.9376 9.6106C26.3822 10.7591 24.5591 11.4911 22.6413 11.7373C21.7169 11.822 20.8454 12.2058 20.1588 12.8305C19.4722 13.4551 19.0079 14.2866 18.8365 15.1989C18.6765 15.2441 18.5204 15.302 18.3696 15.3719V12.5667C18.3729 9.74805 19.4939 7.04579 21.4867 5.05246C23.4794 3.05913 26.1814 1.93743 29 1.93333ZM21.5973 24.4837C21.0743 23.2636 20.7659 21.9624 20.6857 20.6374C20.6731 20.3896 20.5657 20.1562 20.3857 19.9855C20.2058 19.8147 19.9671 19.7197 19.719 19.72C19.3601 19.72 19.0159 19.5774 18.7621 19.3236C18.5083 19.0698 18.3657 18.7256 18.3657 18.3667C18.3657 18.0077 18.5083 17.6635 18.7621 17.4097C19.0159 17.1559 19.3601 17.0133 19.719 17.0133C19.9754 17.0133 20.2213 16.9115 20.4026 16.7302C20.5839 16.5489 20.6857 16.303 20.6857 16.0467C20.6836 15.4573 20.8997 14.8879 21.2924 14.4483C21.685 14.0087 22.2265 13.73 22.8124 13.6658C25.0399 13.388 27.1581 12.5403 28.9623 11.2046C30.8054 12.5412 32.9572 13.3889 35.2166 13.6687C35.7988 13.7343 36.3359 14.0141 36.7233 14.4535C37.1108 14.893 37.3211 15.4608 37.3133 16.0467C37.3133 16.303 37.4152 16.5489 37.5965 16.7302C37.7778 16.9115 38.0236 17.0133 38.28 17.0133C38.6389 17.0133 38.9832 17.1559 39.237 17.4097C39.4908 17.6635 39.6333 18.0077 39.6333 18.3667C39.6333 18.7256 39.4908 19.0698 39.237 19.3236C38.9832 19.5774 38.6389 19.72 38.28 19.72C38.0319 19.7197 37.7933 19.8147 37.6133 19.9855C37.4334 20.1562 37.326 20.3896 37.3133 20.6374C37.2331 21.9623 36.9251 23.2635 36.4027 24.4837C35.4622 26.3407 31.1025 29 29 29C26.8975 29 22.5378 26.3407 21.5973 24.4837ZM29 30.9333C30.002 30.8812 30.9855 30.6426 31.9 30.2296V30.9333C31.9 31.7025 31.5945 32.4401 31.0506 32.9839C30.5068 33.5278 29.7691 33.8333 29 33.8333C28.2309 33.8333 27.4933 33.5278 26.9494 32.9839C26.4055 32.4401 26.1 31.7025 26.1 30.9333V30.2296C27.0145 30.6426 27.998 30.8812 29 30.9333ZM23.5673 31.9H24.2633C24.4125 32.6034 24.7181 33.2642 25.1575 33.8333H16.5542C18.675 32.5688 21.0981 31.9008 23.5673 31.9ZM11.4202 36.1533C11.5125 36.0329 11.6313 35.9353 11.7675 35.8683C11.9036 35.8012 12.0534 35.7664 12.2051 35.7667H45.7949C45.9463 35.7666 46.0958 35.8013 46.2317 35.868C46.3677 35.9348 46.4865 36.0318 46.579 36.1517C46.6716 36.2716 46.7354 36.4112 46.7655 36.5596C46.7956 36.708 46.7913 36.8614 46.7528 37.0079L42.7547 52.2H15.2453L11.2472 37.0079C11.2084 36.8617 11.2039 36.7086 11.2339 36.5604C11.2639 36.4122 11.3277 36.2729 11.4202 36.1533ZM13.2569 52.229C12.7984 52.2952 12.3789 52.5239 12.0748 52.8735C11.7707 53.223 11.6022 53.6701 11.6 54.1333V56.0667H9.74498C9.27427 56.0664 8.81034 55.9545 8.39129 55.7402C7.97224 55.5258 7.61002 55.215 7.33441 54.8335C7.0588 54.4519 6.87765 54.0104 6.80584 53.5452C6.73403 53.08 6.77362 52.6044 6.92134 52.1575L10.4487 41.5715L13.2569 52.229Z" fill="white"/>
<path d="M29 49.3C31.6651 49.3 33.8334 47.5658 33.8334 45.4333C33.8334 43.3009 31.6651 41.5667 29 41.5667C26.3349 41.5667 24.1667 43.3009 24.1667 45.4333C24.1667 47.5658 26.3349 49.3 29 49.3ZM29 43.5C30.5718 43.5 31.9 44.3855 31.9 45.4333C31.9 46.4812 30.5718 47.3667 29 47.3667C27.4282 47.3667 26.1 46.4812 26.1 45.4333C26.1 44.3855 27.4282 43.5 29 43.5Z" fill="white"/>
</g>
<defs>
<clipPath id="clip0_1_281">
<rect width="58" height="58" fill="white"/>
</clipPath>
</defs>
</svg>
