<svg width="33" height="33" viewBox="0 0 33 33" fill="none" xmlns="http://www.w3.org/2000/svg">
<path d="M16.5001 2.06241C13.4926 2.06595 10.6094 3.26223 8.4828 5.38881C6.35622 7.51539 5.15995 10.3986 5.1564 13.4061C5.15363 15.8636 5.95634 18.2544 7.44163 20.2123C7.44163 20.2123 7.75101 20.6196 7.80154 20.6784L16.5001 30.9372L25.2027 20.6733C25.2481 20.6186 25.5585 20.2123 25.5585 20.2123L25.5595 20.2092C27.0438 18.252 27.8461 15.8625 27.8437 13.4061C27.8402 10.3986 26.6439 7.51539 24.5173 5.38881C22.3908 3.26223 19.5075 2.06595 16.5001 2.06241ZM16.5001 17.5311C15.6842 17.5311 14.8867 17.2891 14.2084 16.8359C13.53 16.3826 13.0013 15.7384 12.6891 14.9846C12.3769 14.2309 12.2952 13.4015 12.4544 12.6013C12.6135 11.8012 13.0064 11.0662 13.5833 10.4893C14.1602 9.9124 14.8952 9.51953 15.6953 9.36037C16.4955 9.2012 17.3249 9.28289 18.0786 9.5951C18.8324 9.90731 19.4766 10.436 19.9299 11.1144C20.3831 11.7927 20.625 12.5902 20.625 13.4061C20.6237 14.4997 20.1886 15.5481 19.4154 16.3214C18.6421 17.0947 17.5937 17.5297 16.5001 17.5311Z" fill="#32B5FD"/>
</svg>
