<svg width="52" height="52" viewBox="0 0 52 52" fill="none" xmlns="http://www.w3.org/2000/svg">
<g clip-path="url(#clip0_1_1029)">
<path d="M47.6667 0H4.33333C3.18448 0.00137614 2.08308 0.458364 1.27072 1.27072C0.458364 2.08308 0.00137614 3.18448 0 4.33333L0 40.7333C0.00137614 41.8822 0.458364 42.9836 1.27072 43.7959C2.08308 44.6083 3.18448 45.0653 4.33333 45.0667H7.8V48.5333C7.8 49.4528 8.16524 50.3345 8.81536 50.9846C9.46549 51.6348 10.3472 52 11.2667 52H40.7333C41.6528 52 42.5345 51.6348 43.1846 50.9846C43.8348 50.3345 44.2 49.4528 44.2 48.5333V45.0667H47.6667C48.8155 45.0653 49.9169 44.6083 50.7293 43.7959C51.5416 42.9836 51.9986 41.8822 52 40.7333V4.33333C51.9986 3.18448 51.5416 2.08308 50.7293 1.27072C49.9169 0.458364 48.8155 0.00137614 47.6667 0ZM4.33333 1.73333H47.6667C48.3562 1.73333 49.0175 2.00726 49.5051 2.49486C49.9927 2.98245 50.2667 3.64377 50.2667 4.33333V6.93333H1.73333V4.33333C1.73333 3.64377 2.00726 2.98245 2.49486 2.49486C2.98245 2.00726 3.64377 1.73333 4.33333 1.73333ZM42.4667 48.5333C42.4667 48.993 42.284 49.4339 41.959 49.759C41.6339 50.084 41.193 50.2667 40.7333 50.2667H11.2667C10.807 50.2667 10.3661 50.084 10.041 49.759C9.71595 49.4339 9.53333 48.993 9.53333 48.5333V14.7333C9.53333 14.2736 9.71595 13.8327 10.041 13.5077C10.3661 13.1826 10.807 13 11.2667 13H40.7333C41.193 13 41.6339 13.1826 41.959 13.5077C42.284 13.8327 42.4667 14.2736 42.4667 14.7333V48.5333ZM47.6667 43.3333H44.2V14.7333C44.2 13.8139 43.8348 12.9322 43.1846 12.282C42.5345 11.6319 41.6528 11.2667 40.7333 11.2667H11.2667C10.3472 11.2667 9.46549 11.6319 8.81536 12.282C8.16524 12.9322 7.8 13.8139 7.8 14.7333V43.3333H4.33333C3.64377 43.3333 2.98245 43.0594 2.49486 42.5718C2.00726 42.0842 1.73333 41.4229 1.73333 40.7333V8.66667H50.2667V40.7333C50.2667 41.4229 49.9927 42.0842 49.5051 42.5718C49.0175 43.0594 48.3562 43.3333 47.6667 43.3333Z" fill="white"/>
<path d="M4.33346 5.19549C4.81211 5.19549 5.20013 4.80747 5.20013 4.32882C5.20013 3.85018 4.81211 3.46216 4.33346 3.46216C3.85482 3.46216 3.4668 3.85018 3.4668 4.32882C3.4668 4.80747 3.85482 5.19549 4.33346 5.19549Z" fill="white"/>
<path d="M7.79098 5.19549C8.26963 5.19549 8.65765 4.80747 8.65765 4.32882C8.65765 3.85018 8.26963 3.46216 7.79098 3.46216C7.31234 3.46216 6.92432 3.85018 6.92432 4.32882C6.92432 4.80747 7.31234 5.19549 7.79098 5.19549Z" fill="white"/>
<path d="M11.2666 5.19549C11.7452 5.19549 12.1332 4.80747 12.1332 4.32882C12.1332 3.85018 11.7452 3.46216 11.2666 3.46216C10.7879 3.46216 10.3999 3.85018 10.3999 4.32882C10.3999 4.80747 10.7879 5.19549 11.2666 5.19549Z" fill="white"/>
<path d="M21.6666 5.19549H30.3333C30.5631 5.19549 30.7836 5.10418 30.9461 4.94165C31.1086 4.77912 31.1999 4.55868 31.1999 4.32882C31.1999 4.09897 31.1086 3.87853 30.9461 3.716C30.7836 3.55347 30.5631 3.46216 30.3333 3.46216H21.6666C21.4367 3.46216 21.2163 3.55347 21.0538 3.716C20.8912 3.87853 20.7999 4.09897 20.7999 4.32882C20.7999 4.55868 20.8912 4.77912 21.0538 4.94165C21.2163 5.10418 21.4367 5.19549 21.6666 5.19549ZM22.4258 24.2552C22.6535 24.2818 22.8825 24.2178 23.0634 24.0771C23.2443 23.9364 23.3627 23.7302 23.393 23.503L23.6235 21.6622H26.643L26.8735 23.503C26.902 23.7311 27.02 23.9386 27.2015 24.0797C27.3829 24.2209 27.613 24.2842 27.8412 24.2557C28.0693 24.2272 28.2768 24.1092 28.4179 23.9277C28.5591 23.7463 28.6224 23.5162 28.5939 23.288L27.9413 18.0742C27.8561 17.3895 27.5236 16.7596 27.0065 16.3028C26.4894 15.8461 25.8232 15.594 25.1333 15.594C24.4433 15.594 23.7771 15.8461 23.26 16.3028C22.7429 16.7596 22.4105 17.3895 22.3253 18.0742L21.6735 23.288C21.6451 23.516 21.7084 23.746 21.8494 23.9274C21.9905 24.1087 22.1978 24.2267 22.4258 24.2552ZM25.1333 17.3288C25.6862 17.3288 26.1525 17.7405 26.2218 18.2891L26.4263 19.9288H23.8402L24.0447 18.2891C24.0784 18.0241 24.2075 17.7804 24.4079 17.6037C24.6082 17.4269 24.8661 17.3292 25.1333 17.3288ZM30.6799 24.0888C30.771 24.1571 30.8746 24.2068 30.9848 24.235C31.0951 24.2633 31.2098 24.2695 31.3225 24.2534C31.4352 24.2374 31.5436 24.1992 31.6415 24.1412C31.7394 24.0832 31.825 24.0065 31.8933 23.9155L33.7999 21.3727L35.7066 23.9155C35.7749 24.0065 35.8604 24.0832 35.9584 24.1412C36.0563 24.1992 36.1647 24.2374 36.2774 24.2534C36.39 24.2695 36.5048 24.2633 36.615 24.235C36.7253 24.2068 36.8289 24.1571 36.9199 24.0888C37.011 24.0205 37.0877 23.935 37.1457 23.8371C37.2037 23.7391 37.2418 23.6307 37.2579 23.5181C37.274 23.4054 37.2677 23.2907 37.2395 23.1804C37.2112 23.0702 37.1616 22.9665 37.0933 22.8755L34.8833 19.9288L37.0933 16.9822C37.2312 16.7983 37.2904 16.5671 37.2579 16.3396C37.2254 16.112 37.1038 15.9067 36.9199 15.7688C36.7361 15.6309 36.5049 15.5717 36.2774 15.6042C36.0498 15.6367 35.8445 15.7583 35.7066 15.9422L33.7999 18.485L31.8933 15.9422C31.825 15.8511 31.7394 15.7744 31.6415 15.7164C31.5436 15.6584 31.4352 15.6203 31.3225 15.6042C31.2098 15.5881 31.0951 15.5944 30.9848 15.6226C30.8746 15.6509 30.771 15.7005 30.6799 15.7688C30.5889 15.8371 30.5122 15.9227 30.4542 16.0206C30.3962 16.1185 30.3581 16.2269 30.342 16.3396C30.3259 16.4523 30.3321 16.567 30.3604 16.6772C30.3886 16.7875 30.4383 16.8911 30.5066 16.9822L32.7166 19.9288L30.5066 22.8755C30.3687 23.0594 30.3095 23.2905 30.342 23.5181C30.3745 23.7456 30.4961 23.9509 30.6799 24.0888ZM19.9333 17.3288C20.1631 17.3288 20.3836 17.2375 20.5461 17.075C20.7086 16.9125 20.7999 16.692 20.7999 16.4622C20.7999 16.2323 20.7086 16.0119 20.5461 15.8493C20.3836 15.6868 20.1631 15.5955 19.9333 15.5955H14.7333C14.5034 15.5955 14.283 15.6868 14.1204 15.8493C13.9579 16.0119 13.8666 16.2323 13.8666 16.4622C13.8666 16.692 13.9579 16.9125 14.1204 17.075C14.283 17.2375 14.5034 17.3288 14.7333 17.3288H16.4666V23.3955C16.4666 23.6253 16.5579 23.8458 16.7204 24.0083C16.883 24.1708 17.1034 24.2622 17.3333 24.2622C17.5631 24.2622 17.7836 24.1708 17.9461 24.0083C18.1086 23.8458 18.1999 23.6253 18.1999 23.3955V17.3288H19.9333ZM13.8666 26.8622C13.177 26.8622 12.5157 27.1361 12.0281 27.6237C11.5405 28.1113 11.2666 28.7726 11.2666 29.4622C11.2666 30.1517 11.5405 30.813 12.0281 31.3006C12.5157 31.7882 13.177 32.0622 13.8666 32.0622C14.5562 32.0622 15.2175 31.7882 15.7051 31.3006C16.1927 30.813 16.4666 30.1517 16.4666 29.4622C16.4666 28.7726 16.1927 28.1113 15.7051 27.6237C15.2175 27.1361 14.5562 26.8622 13.8666 26.8622ZM13.8666 30.3288C13.6367 30.3288 13.4163 30.2375 13.2538 30.075C13.0912 29.9125 12.9999 29.692 12.9999 29.4622C12.9999 29.2323 13.0912 29.0119 13.2538 28.8493C13.4163 28.6868 13.6367 28.5955 13.8666 28.5955C14.0965 28.5955 14.3169 28.6868 14.4794 28.8493C14.642 29.0119 14.7333 29.2323 14.7333 29.4622C14.7333 29.692 14.642 29.9125 14.4794 30.075C14.3169 30.2375 14.0965 30.3288 13.8666 30.3288ZM38.9999 28.5955H19.9333C19.7034 28.5955 19.483 28.6868 19.3204 28.8493C19.1579 29.0119 19.0666 29.2323 19.0666 29.4622C19.0666 29.692 19.1579 29.9125 19.3204 30.075C19.483 30.2375 19.7034 30.3288 19.9333 30.3288H38.9999C39.2298 30.3288 39.4502 30.2375 39.6128 30.075C39.7753 29.9125 39.8666 29.692 39.8666 29.4622C39.8666 29.2323 39.7753 29.0119 39.6128 28.8493C39.4502 28.6868 39.2298 28.5955 38.9999 28.5955ZM13.8666 34.6622C13.177 34.6622 12.5157 34.9361 12.0281 35.4237C11.5405 35.9113 11.2666 36.5726 11.2666 37.2622C11.2666 37.9517 11.5405 38.613 12.0281 39.1006C12.5157 39.5882 13.177 39.8622 13.8666 39.8622C14.5562 39.8622 15.2175 39.5882 15.7051 39.1006C16.1927 38.613 16.4666 37.9517 16.4666 37.2622C16.4666 36.5726 16.1927 35.9113 15.7051 35.4237C15.2175 34.9361 14.5562 34.6622 13.8666 34.6622ZM13.8666 38.1288C13.6367 38.1288 13.4163 38.0375 13.2538 37.875C13.0912 37.7125 12.9999 37.492 12.9999 37.2622C12.9999 37.0323 13.0912 36.8119 13.2538 36.6493C13.4163 36.4868 13.6367 36.3955 13.8666 36.3955C14.0965 36.3955 14.3169 36.4868 14.4794 36.6493C14.642 36.8119 14.7333 37.0323 14.7333 37.2622C14.7333 37.492 14.642 37.7125 14.4794 37.875C14.3169 38.0375 14.0965 38.1288 13.8666 38.1288ZM38.9999 36.3955H19.9333C19.7034 36.3955 19.483 36.4868 19.3204 36.6493C19.1579 36.8119 19.0666 37.0323 19.0666 37.2622C19.0666 37.492 19.1579 37.7125 19.3204 37.875C19.483 38.0375 19.7034 38.1288 19.9333 38.1288H38.9999C39.2298 38.1288 39.4502 38.0375 39.6128 37.875C39.7753 37.7125 39.8666 37.492 39.8666 37.2622C39.8666 37.0323 39.7753 36.8119 39.6128 36.6493C39.4502 36.4868 39.2298 36.3955 38.9999 36.3955ZM13.8666 42.4622C13.177 42.4622 12.5157 42.7361 12.0281 43.2237C11.5405 43.7113 11.2666 44.3726 11.2666 45.0622C11.2666 45.7517 11.5405 46.413 12.0281 46.9006C12.5157 47.3882 13.177 47.6622 13.8666 47.6622C14.5562 47.6622 15.2175 47.3882 15.7051 46.9006C16.1927 46.413 16.4666 45.7517 16.4666 45.0622C16.4666 44.3726 16.1927 43.7113 15.7051 43.2237C15.2175 42.7361 14.5562 42.4622 13.8666 42.4622ZM13.8666 45.9288C13.6367 45.9288 13.4163 45.8375 13.2538 45.675C13.0912 45.5125 12.9999 45.292 12.9999 45.0622C12.9999 44.8323 13.0912 44.6119 13.2538 44.4493C13.4163 44.2868 13.6367 44.1955 13.8666 44.1955C14.0965 44.1955 14.3169 44.2868 14.4794 44.4493C14.642 44.6119 14.7333 44.8323 14.7333 45.0622C14.7333 45.292 14.642 45.5125 14.4794 45.675C14.3169 45.8375 14.0965 45.9288 13.8666 45.9288ZM38.9999 44.1955H19.9333C19.7034 44.1955 19.483 44.2868 19.3204 44.4493C19.1579 44.6119 19.0666 44.8323 19.0666 45.0622C19.0666 45.292 19.1579 45.5125 19.3204 45.675C19.483 45.8375 19.7034 45.9288 19.9333 45.9288H38.9999C39.2298 45.9288 39.4502 45.8375 39.6128 45.675C39.7753 45.5125 39.8666 45.292 39.8666 45.0622C39.8666 44.8323 39.7753 44.6119 39.6128 44.4493C39.4502 44.2868 39.2298 44.1955 38.9999 44.1955Z" fill="white"/>
</g>
<defs>
<clipPath id="clip0_1_1029">
<rect width="52" height="52" fill="white"/>
</clipPath>
</defs>
</svg>
