<svg width="55" height="51" viewBox="0 0 55 51" fill="none" xmlns="http://www.w3.org/2000/svg">
<path d="M12.4145 9.82089H14.1887C14.6774 9.82089 15.0758 10.1875 15.0758 10.6392H16.8499C16.8499 9.28571 15.6559 8.18425 14.1887 8.18425V6.54761H12.4145V8.18425C10.9472 8.18425 9.75317 9.28571 9.75317 10.6392C9.75317 11.9927 10.9472 13.0942 12.4145 13.0942H14.1887C14.4171 13.1036 14.6327 13.1939 14.7908 13.3464C14.9488 13.4988 15.037 13.7016 15.037 13.9125C15.037 14.1234 14.9488 14.3262 14.7908 14.4786C14.6327 14.6311 14.4171 14.7214 14.1887 14.7308H12.4145C11.9257 14.7308 11.5274 14.3642 11.5274 13.9125H9.75317C9.75317 15.266 10.9472 16.3675 12.4145 16.3675V18.0041H14.1887V16.3675C15.6559 16.3675 16.8499 15.266 16.8499 13.9125C16.8499 12.559 15.6559 11.4575 14.1887 11.4575H12.4145C12.1861 11.4481 11.9704 11.3578 11.8124 11.2053C11.6544 11.0529 11.5662 10.8501 11.5662 10.6392C11.5662 10.4283 11.6544 10.2255 11.8124 10.0731C11.9704 9.92065 12.1861 9.83032 12.4145 9.82089Z" fill="white"/>
<path d="M13.3091 3.27191C7.92885 3.27191 3.55103 7.31033 3.55103 12.2734C3.55103 17.2366 7.92885 21.275 13.3091 21.275C18.6893 21.275 23.0672 17.2366 23.0672 12.2734C23.0672 7.31033 18.6893 3.27191 13.3091 3.27191ZM13.3091 19.6383C8.90732 19.6383 5.32522 16.3348 5.32522 12.2734C5.32522 8.21212 8.90732 4.90855 13.3091 4.90855C17.7109 4.90855 21.293 8.21212 21.293 12.2734C21.293 16.3348 17.7109 19.6383 13.3091 19.6383Z" fill="white"/>
<path d="M53.7164 10.3583L45.4513 6.54657H25.0658C22.8312 2.65791 18.401 0 13.3065 0C5.96927 0 0 5.50648 0 12.2748C0 19.0432 5.96927 24.5496 13.3065 24.5496C14.2938 24.5496 15.2536 24.4424 16.1806 24.2534C17.0034 25.2194 18.0456 26.0074 19.234 26.5619L20.2844 27.0463C20.5874 27.1849 20.8423 27.399 21.0201 27.6645C21.1979 27.9299 21.2915 28.236 21.2903 28.548C21.2903 29.2444 20.8157 29.8753 20.1096 30.1191C16.571 31.3433 14.1935 34.5086 14.1935 37.9947V45.826C12.2366 45.826 10.6452 47.2941 10.6452 49.0993V50.7359H44.3548V49.0993C44.3548 47.2941 42.7634 45.826 40.8064 45.826V37.9947C40.8064 34.5086 38.429 31.3433 34.8904 30.1191C34.5443 29.9983 34.2461 29.7834 34.0352 29.5029C33.8244 29.2223 33.7109 28.8893 33.7097 28.548C33.7097 27.908 34.0956 27.3328 34.7148 27.0463L35.766 26.5619C37.2843 25.8678 38.5614 24.7951 39.4523 23.4654C40.3433 22.1357 40.8124 20.6022 40.8064 19.0391V18.0031H45.4513L53.7164 14.1913C54.5077 13.8255 55 13.0915 55 12.2748C55 11.4581 54.5077 10.7241 53.7164 10.3583ZM26.5677 13.0931H44.3548V16.3664H25.8367C26.2425 15.3116 26.4885 14.2101 26.5677 13.0931ZM44.3548 8.18321V11.4565H26.5677C26.488 10.3396 26.2421 9.23818 25.8367 8.18321H44.3548ZM1.77419 12.2748C1.77419 6.40909 6.94774 1.63664 13.3065 1.63664C19.6652 1.63664 24.8387 6.40909 24.8387 12.2748C24.8387 18.1406 19.6652 22.913 13.3065 22.913C6.94774 22.913 1.77419 18.1406 1.77419 12.2748ZM42.5806 49.0993H12.4194C12.4194 48.1967 13.2151 47.4626 14.1935 47.4626H40.8064C41.7849 47.4626 42.5806 48.1967 42.5806 49.0993ZM39.0323 19.0391C39.0371 20.298 38.6593 21.533 37.9418 22.604C37.2243 23.6749 36.1957 24.5389 34.9729 25.0979L33.9208 25.5824C33.3228 25.8564 32.8199 26.2795 32.469 26.8036C32.1181 27.3277 31.9333 27.932 31.9355 28.548C31.9379 29.2223 32.1621 29.8801 32.5786 30.4343C32.995 30.9885 33.584 31.4131 34.2677 31.6519C35.6644 32.14 36.8677 33.0077 37.7185 34.1402C38.5692 35.2728 39.0273 36.6168 39.0323 37.9947V45.826H15.9677V37.9947C15.9727 36.6168 16.4308 35.2728 17.2815 34.1402C18.1323 33.0077 19.3356 32.14 20.7323 31.6519C21.4159 31.413 22.0049 30.9884 22.4213 30.4342C22.8377 29.88 23.062 29.2223 23.0645 28.548C23.0667 27.9318 22.8817 27.3273 22.5305 26.8031C22.1793 26.279 21.6759 25.8561 21.0774 25.5824L20.0271 25.0979C19.2844 24.7504 18.611 24.2892 18.0356 23.7338C21.0526 22.6698 23.5499 20.6341 25.0658 18.0031H39.0323V19.0391ZM52.9224 12.7274L46.129 15.8607V8.68894L52.9224 11.8223C53.0141 11.8638 53.0914 11.9282 53.1454 12.0082C53.1995 12.0882 53.2281 12.1806 53.2281 12.2748C53.2281 12.3691 53.1995 12.4614 53.1454 12.5414C53.0914 12.6214 53.0141 12.6858 52.9224 12.7274Z" fill="white"/>
<path d="M17.738 37.6416H19.5122V44.1882H21.2864V37.6416H23.0606V36.005H17.738V37.6416ZM24.8348 38.46V44.1882H26.609V41.7333H28.3832V44.1882H30.1573V38.46C30.1573 37.1065 28.9633 36.005 27.4961 36.005C26.0288 36.005 24.8348 37.1065 24.8348 38.46ZM27.4961 37.6416C27.9848 37.6416 28.3832 38.0083 28.3832 38.46V40.0966H26.609V38.46C26.609 38.0083 27.0073 37.6416 27.4961 37.6416ZM33.7057 43.563L34.5928 41.9264L35.4799 43.563V44.1882H37.2541V43.1768L35.5846 40.0966L37.2541 37.0164V36.005H35.4799V36.6302L34.5928 38.2668L33.7057 36.6302V36.005H31.9315V37.0164L33.6011 40.0966L31.9315 43.1768V44.1882H33.7057V43.563ZM48.7864 38.1212V25.3668H47.0122V38.1212L43.2039 34.6081L41.9495 35.7652L47.8993 41.2537L53.849 35.7652L52.5947 34.6081L48.7864 38.1212ZM47.0122 22.0935H48.7864V23.7302H47.0122V22.0935ZM47.0122 18.8203H48.7864V20.4569H47.0122V18.8203ZM11.7882 31.6736L13.0426 30.5165L7.09282 25.028L1.14307 30.5165L2.39742 31.6736L6.20573 28.1606V40.9149H7.97992V28.1606L11.7882 31.6736ZM6.20573 45.8249H7.97992V47.4615H6.20573V45.8249ZM6.20573 42.5516H7.97992V44.1882H6.20573V42.5516Z" fill="white"/>
</svg>
