<svg width="28" height="26" viewBox="0 0 28 26" fill="none" xmlns="http://www.w3.org/2000/svg">
<path d="M27.9999 19.2581V24.3324C28.0001 24.6957 27.8509 25.0456 27.5824 25.3114C27.3139 25.5772 26.9461 25.7391 26.5532 25.7645C25.874 25.8085 25.3192 25.8306 24.8888 25.8306C11.1424 25.8306 0 15.5514 0 2.87006C0 2.47399 0.0238518 1.96217 0.0715553 1.33458C0.0991234 0.972153 0.274681 0.632864 0.562804 0.385175C0.850926 0.137486 1.23016 -0.000164215 1.624 3.68199e-07H7.12442C7.31737 -0.000179859 7.5035 0.0658091 7.64666 0.185148C7.78982 0.304488 7.87979 0.468657 7.89909 0.645764C7.93435 0.974865 7.96753 1.23891 7.99864 1.4379C8.30776 3.42818 8.94129 5.36391 9.87775 7.17946C10.0255 7.46647 9.92908 7.80944 9.64908 7.99312L6.2922 10.2059C8.34508 14.6176 12.1562 18.1335 16.9384 20.0273L19.3339 16.9362C19.4315 16.8095 19.5743 16.7186 19.7374 16.6795C19.9004 16.6403 20.0732 16.6556 20.2253 16.7224C22.1931 17.5847 24.2908 18.1677 26.4475 18.4516C26.6632 18.4803 26.9484 18.5109 27.303 18.5435C27.4947 18.5616 27.6723 18.6447 27.8013 18.7768C27.9304 18.9088 28.0001 19.0803 27.9999 19.2581Z" fill="#32B5FD"/>
</svg>
