<svg width="99" height="85" viewBox="0 0 99 85" fill="none" xmlns="http://www.w3.org/2000/svg">
<path d="M18.5022 0.25046H0.469122C10.2912 14.9251 19.7534 20.5153 41.8522 28.5587C61.9274 35.31 69.1319 42.9393 79.6143 58.858C72.6358 44.7562 70.0026 36.6744 44.956 25.0817C30.9436 17.3399 25.5204 12.2814 18.5022 0.25046Z" fill="#42CBB5" stroke="#42CBB5" stroke-width="0.5"/>
<path d="M98.1483 63.8672V84.9058C84.6564 51.6725 75.3648 39.638 57.5739 27.801C74.434 35.7034 83.2933 40.2172 98.1483 63.8672Z" fill="#42CBB5" stroke="#42CBB5" stroke-width="0.5"/>
<path d="M63.0688 26.551C79.5739 33.2419 86.6594 39.8603 97.6474 53.8488V17.7826C97.6474 8.76608 88.6309 0.751379 80.1152 0.25046H29.5224C37.7741 14.2328 45.6016 19.3166 63.0688 26.551Z" fill="#33B5FF" stroke="#33B5FF" stroke-width="0.5"/>
</svg>
