<svg width="51" height="54" viewBox="0 0 51 54" fill="none" xmlns="http://www.w3.org/2000/svg">
<path d="M31.5828 37.1969H29.7684C29.5869 37.1969 29.4129 37.1304 29.2846 37.012C29.1563 36.8937 29.0842 36.7331 29.0842 36.5657V33.5743C29.0842 33.4069 29.1563 33.2464 29.2846 33.128C29.4129 33.0096 29.5869 32.9431 29.7684 32.9431H47.3882M31.5828 37.1969V40.8195C31.5828 40.9869 31.6549 41.1475 31.7833 41.2659C31.9116 41.3842 32.0856 41.4507 32.2671 41.4507H49.2025C49.384 41.4507 49.5581 41.3842 49.6864 41.2659C49.8148 41.1475 49.8869 40.9869 49.8869 40.8195V37.8281C49.8869 37.6607 49.8148 37.5002 49.6865 37.3818C49.5582 37.2634 49.3841 37.1969 49.2027 37.1969H31.5828ZM47.3882 32.9431V37.0917M47.3882 32.9431H49.2027C49.3841 32.9431 49.5582 32.8766 49.6865 32.7582C49.8148 32.6399 49.8869 32.4793 49.8869 32.3119V29.3205C49.8869 29.1531 49.8148 28.9926 49.6865 28.8742C49.5582 28.7558 49.3841 28.6893 49.2027 28.6893H32.2671C32.0856 28.6893 31.9116 28.7558 31.7833 28.8742C31.6549 28.9926 31.5828 29.1531 31.5828 29.3205V32.8379M33.261 25.1207C34.918 27.2794 37.6482 28.6891 40.7353 28.6891C45.7897 28.6891 49.8873 24.9092 49.8873 20.2467C49.8873 15.5842 45.7897 11.8043 40.7353 11.8043C35.6798 11.8043 31.5823 15.5842 31.5823 20.2467C31.5823 20.739 31.6279 21.2219 31.7157 21.6922" stroke="white" stroke-width="1.68625" stroke-miterlimit="10" stroke-linecap="round" stroke-linejoin="round"/>
<path d="M42.1647 17.3861C42.0661 17.2899 41.3129 16.6053 40.1388 16.9317C38.9806 17.2535 38.6222 18.5385 39.4373 19.4046C39.8597 19.8535 40.5692 20.0005 41.4857 20.2992C43.5369 20.9681 42.7786 23.6364 40.6922 23.6493C39.8779 23.6543 39.4972 23.6066 38.782 23.1749M40.7379 23.7639V24.8692M40.7379 15.6255V16.7307M14.8305 20.7164L17.3727 14.5588C17.3879 14.5222 17.4147 14.4906 17.4497 14.4684C17.4847 14.4461 17.5262 14.4342 17.5688 14.4342C17.6561 14.4342 17.7342 14.484 17.765 14.5594L20.2839 20.7164M15.6394 19.1518H19.4881M23.6088 14.4342L28.3996 20.7164M28.0625 14.4342L23.265 20.7164M9.17807 14.4344H12.9387M11.0508 14.635V20.7162M5.39014 25.3663H25.336M5.39014 39.6045H25.336M15.2223 34.8585H25.336M15.2223 30.1123H25.336M10.5064 30.1388L5.39014 34.8585M27.7593 48.9324H31.704C31.9561 48.9324 32.1602 48.7441 32.1602 48.5116V45.1094C32.1602 44.8769 31.9561 44.6886 31.704 44.6886H15.0241C14.7721 44.6886 14.568 44.8769 14.568 45.1094V48.5116C14.568 48.7441 14.7721 48.9324 15.0241 48.9324H23.7678M4.24971 8.89313V6.32169C4.24974 6.20176 4.30141 6.08674 4.39334 6.00193C4.48528 5.91712 4.60997 5.86946 4.73998 5.86943H10.1628M40.1158 41.5869V49.5573C40.1158 49.6772 40.0641 49.7922 39.9722 49.877C39.8802 49.9618 39.7556 50.0095 39.6255 50.0095H36.8561M27.4238 5.86943H39.6257C39.7557 5.86946 39.8804 5.91712 39.9723 6.00193C40.0642 6.08674 40.1159 6.20176 40.1159 6.32169V11.6555M21.3191 3.88418V3.18943C21.3191 1.9004 20.1863 0.855336 18.7888 0.855336C17.3914 0.855336 16.2585 1.9003 16.2585 3.18943V3.87061M0.85546 26.8401V9.45248C0.85546 9.20315 1.07556 9.00011 1.34584 9.00011H10.1625" stroke="white" stroke-width="1.68625" stroke-miterlimit="10" stroke-linecap="round" stroke-linejoin="round"/>
<path d="M36.7219 41.5915V52.6923C36.7219 52.9427 36.5029 53.1447 36.2315 53.1447H10.9517C10.3461 53.1447 9.76562 52.9227 9.33796 52.5272L1.52261 45.3093C1.09567 44.9144 0.855774 44.3795 0.85546 43.8218V30.5265M27.6003 9.00462H36.2316C36.3616 9.00465 36.4863 9.05231 36.5783 9.13712C36.6702 9.22193 36.7219 9.33695 36.7219 9.45688V12.4947" stroke="white" stroke-width="1.68625" stroke-miterlimit="10" stroke-linecap="round" stroke-linejoin="round"/>
<path d="M10.0064 52.7904V44.6888H1.224M20.7849 10.755H26.714C26.9661 10.755 27.1702 10.5667 27.1702 10.3342V5.5591C27.1702 4.68804 26.405 3.98109 25.4596 3.98109H12.1188C11.1734 3.98109 10.4082 4.68804 10.4082 5.5591V10.3342C10.4082 10.5667 10.6123 10.755 10.8644 10.755H16.7935" stroke="white" stroke-width="1.68625" stroke-miterlimit="10" stroke-linecap="round" stroke-linejoin="round"/>
</svg>
