<svg width="28" height="26" viewBox="0 0 28 26" fill="none" xmlns="http://www.w3.org/2000/svg">
<path d="M27.9984 19.3844V24.492C27.9986 24.8577 27.8494 25.2099 27.5809 25.4774C27.3125 25.7449 26.9447 25.908 26.5519 25.9336C25.8726 25.9779 25.3179 26 24.8875 26C11.1418 26 0 15.6534 0 2.88889C0 2.49022 0.0238505 1.97504 0.0715516 1.34333C0.0991182 0.97853 0.274667 0.637016 0.562774 0.387702C0.850882 0.138388 1.2301 -0.000165292 1.62391 3.70615e-07H7.12405C7.31699 -0.000181039 7.50311 0.0662408 7.64626 0.186363C7.78942 0.306485 7.87938 0.471731 7.89867 0.65C7.93393 0.98126 7.96711 1.24704 7.99822 1.44733C8.30732 3.45067 8.94082 5.3991 9.87723 7.22656C10.025 7.51545 9.92856 7.86067 9.64857 8.04556L6.29187 10.2729C8.34464 14.7135 12.1556 18.2524 16.9375 20.1587L19.3329 17.0473C19.4304 16.9198 19.5733 16.8282 19.7363 16.7889C19.8994 16.7495 20.0721 16.7648 20.2242 16.8321C22.1919 17.7 24.2895 18.2869 26.4461 18.5727C26.6618 18.6016 26.9469 18.6324 27.3016 18.6651C27.4933 18.6834 27.6709 18.767 27.7999 18.8999C27.9289 19.0328 27.9987 19.2055 27.9984 19.3844Z" fill="#32B5FD"/>
</svg>
