<svg width="49" height="62" viewBox="0 0 49 62" fill="none" xmlns="http://www.w3.org/2000/svg">
<path d="M24.5 0C18.0046 0.00761819 11.7773 2.57626 7.18436 7.14246C2.59138 11.7087 0.00767824 17.8996 1.53775e-05 24.3571C-0.00595669 29.634 1.72773 34.7674 4.93565 38.9714C4.93565 38.9714 5.60383 39.8461 5.71297 39.9723L24.5 62L43.2959 39.9612C43.3939 39.8439 44.0644 38.9714 44.0644 38.9714L44.0666 38.9648C47.2723 34.7623 49.0051 29.6315 49 24.3571C48.9923 17.8996 46.4086 11.7087 41.8156 7.14246C37.2227 2.57626 30.9955 0.00761819 24.5 0ZM24.5 33.2143C22.738 33.2143 21.0155 32.6948 19.5504 31.7216C18.0853 30.7484 16.9434 29.3651 16.2691 27.7466C15.5948 26.1282 15.4183 24.3473 15.7621 22.6292C16.1059 20.9111 16.9544 19.3329 18.2003 18.0942C19.4463 16.8555 21.0337 16.0119 22.7619 15.6702C24.4901 15.3284 26.2814 15.5038 27.9094 16.1742C29.5373 16.8446 30.9287 17.9798 31.9076 19.4364C32.8866 20.8929 33.4091 22.6054 33.4091 24.3571C33.4061 26.7053 32.4666 28.9564 30.7964 30.6168C29.1263 32.2773 26.8619 33.2114 24.5 33.2143Z" fill="#32B5FD"/>
</svg>
