<svg width="24" height="24" viewBox="0 0 24 24" fill="none" xmlns="http://www.w3.org/2000/svg">
<path d="M4 18.9999C3.732 18.9999 3.49833 18.9003 3.299 18.7009C3.09967 18.5016 3 18.2679 3 17.9999V13.6919H7.5V14.6919H8.5V13.6919H15.5V14.6919H16.5V13.6919H21V17.9999C21 18.2679 20.9003 18.5016 20.701 18.7009C20.5017 18.9003 20.268 18.9999 20 18.9999H4ZM3.175 12.6919L5.423 7.58395C5.49633 7.39728 5.613 7.25328 5.773 7.15195C5.933 7.05061 6.10867 6.99995 6.3 6.99995H8.192V5.84595C8.192 5.57795 8.292 5.34461 8.492 5.14595C8.69133 4.94595 8.92467 4.84595 9.192 4.84595H14.808C15.076 4.84595 15.3093 4.94595 15.508 5.14595C15.708 5.34461 15.808 5.57795 15.808 5.84595V6.99995H17.7C17.8913 6.99995 18.067 7.05061 18.227 7.15195C18.387 7.25328 18.5037 7.39761 18.577 7.58495L20.825 12.6919H16.5V11.6919H15.5V12.6919H8.5V11.6919H7.5V12.6919H3.175ZM9.192 6.99995H14.808V5.84595H9.192V6.99995Z" fill="#32B5FD"/>
</svg>
