<svg width="66" height="66" viewBox="0 0 66 66" fill="none" xmlns="http://www.w3.org/2000/svg">
<path d="M51.6037 51.0923C54.6095 47.5415 56.5372 43.2051 57.1595 38.5947C57.7817 33.9842 57.0726 29.292 55.1156 25.0714C53.1586 20.8508 50.0355 17.2778 46.1146 14.7739C42.1936 12.27 37.6384 10.9396 32.9862 10.9396C28.3339 10.9396 23.7787 12.27 19.8578 14.7739C15.9368 17.2778 12.8137 20.8508 10.8567 25.0714C8.89975 29.292 8.19058 33.9842 8.81283 38.5947C9.43508 43.2051 11.3628 47.5415 14.3687 51.0923L9.19865 56.2623C8.91057 56.5507 8.71443 56.918 8.635 57.3179C8.55557 57.7177 8.59641 58.1322 8.75236 58.5088C8.90832 58.8855 9.1724 59.2074 9.51124 59.4341C9.85008 59.6608 10.2485 59.7819 10.6562 59.7823C10.9281 59.7901 11.1985 59.7403 11.4497 59.636C11.701 59.5317 11.9272 59.3754 12.1137 59.1773L17.2837 54.0073C21.6656 57.7367 27.232 59.7847 32.9862 59.7847C38.7403 59.7847 44.3067 57.7367 48.6887 54.0073L53.8587 59.1773C54.0451 59.3754 54.2713 59.5317 54.5226 59.636C54.7738 59.7403 55.0443 59.7901 55.3162 59.7823C55.5871 59.7835 55.8557 59.7307 56.1059 59.6268C56.3562 59.5229 56.5832 59.3701 56.7737 59.1773C57.1599 58.7905 57.3768 58.2663 57.3768 57.7198C57.3768 57.1732 57.1599 56.649 56.7737 56.2623L51.6037 51.0923ZM41.2912 43.7223C40.7759 44.2345 40.0789 44.5219 39.3524 44.5219C38.6259 44.5219 37.9289 44.2345 37.4137 43.7223L30.2362 36.5448V22.6298C30.2362 21.9004 30.5259 21.2009 31.0416 20.6852C31.5573 20.1695 32.2568 19.8798 32.9862 19.8798C33.7155 19.8798 34.415 20.1695 34.9307 20.6852C35.4464 21.2009 35.7362 21.9004 35.7362 22.6298V34.2623L41.2362 39.7623C41.5059 40.0151 41.7219 40.3197 41.8713 40.6579C42.0206 40.9961 42.1002 41.3609 42.1053 41.7306C42.1105 42.1002 42.041 42.4671 41.9011 42.8094C41.7612 43.1516 41.5538 43.4621 41.2912 43.7223ZM56.8837 16.7723C56.3397 16.7578 55.8205 16.5422 55.4262 16.1673L49.0737 9.78727C48.8791 9.59767 48.7244 9.37102 48.6188 9.1207C48.5132 8.87038 48.4588 8.60145 48.4588 8.32977C48.4588 8.05809 48.5132 7.78916 48.6188 7.53883C48.7244 7.28851 48.8791 7.06187 49.0737 6.87227C49.4604 6.48603 49.9846 6.26908 50.5312 6.26908C51.0777 6.26908 51.6019 6.48603 51.9887 6.87227L58.4787 13.1423C58.8649 13.529 59.0818 14.0532 59.0818 14.5998C59.0818 15.1463 58.8649 15.6705 58.4787 16.0573C58.2758 16.2791 58.0295 16.457 57.7552 16.58C57.4809 16.7029 57.1843 16.7684 56.8837 16.7723ZM8.97865 16.7723C8.43472 16.7578 7.91545 16.5422 7.52115 16.1673C7.13491 15.7805 6.91797 15.2563 6.91797 14.7098C6.91797 14.1632 7.13491 13.639 7.52115 13.2523L13.9012 6.87227C14.09 6.66963 14.3177 6.5071 14.5707 6.39437C14.8237 6.28164 15.0968 6.22103 15.3737 6.21614C15.6507 6.21126 15.9257 6.2622 16.1825 6.36593C16.4394 6.46966 16.6727 6.62406 16.8685 6.81991C17.0644 7.01576 17.2188 7.24906 17.3225 7.50587C17.4262 7.76269 17.4772 8.03777 17.4723 8.31471C17.4674 8.59164 17.4068 8.86475 17.2941 9.11775C17.1813 9.37075 17.0188 9.59845 16.8162 9.78727L10.4362 16.1673C10.0497 16.5542 9.52548 16.7718 8.97865 16.7723Z" fill="#32B5FD"/>
</svg>
