<svg width="28" height="26" viewBox="0 0 28 26" fill="none" xmlns="http://www.w3.org/2000/svg">
<path d="M28.0004 19.2729V24.351C28.0006 24.7146 27.8514 25.0647 27.5829 25.3307C27.3144 25.5967 26.9466 25.7588 26.5537 25.7843C25.8744 25.8283 25.3196 25.8503 24.8892 25.8503C11.1426 25.8503 0 15.5633 0 2.87226C0 2.47589 0.0238522 1.96367 0.0715566 1.3356C0.0991251 0.972897 0.274686 0.633348 0.562813 0.38547C0.850941 0.137591 1.23019 -0.000164341 1.62402 3.68481e-07H7.12455C7.3175 -0.000179996 7.50363 0.0658595 7.6468 0.18529C7.78996 0.304721 7.87993 0.469015 7.89922 0.646258C7.93448 0.975611 7.96767 1.23986 7.99878 1.439C8.3079 3.43081 8.94144 5.36802 9.87792 7.18495C10.0257 7.47218 9.92925 7.81541 9.64925 7.99924L6.29231 10.2138C8.34523 14.6288 12.1564 18.1473 16.9387 20.0426L19.3343 16.9492C19.4318 16.8224 19.5747 16.7314 19.7377 16.6922C19.9008 16.6531 20.0735 16.6683 20.2256 16.7352C22.1935 17.5982 24.2912 18.1816 26.4479 18.4657C26.6636 18.4945 26.9488 18.5251 27.3035 18.5577C27.4952 18.5758 27.6728 18.659 27.8018 18.7911C27.9309 18.9233 28.0006 19.0949 28.0004 19.2729Z" fill="#32B5FD"/>
</svg>
