<svg width="28" height="26" viewBox="0 0 28 26" fill="none" xmlns="http://www.w3.org/2000/svg">
<path d="M27.9999 19.2725V24.3506C28.0001 24.7142 27.8509 25.0643 27.5824 25.3303C27.3139 25.5963 26.9461 25.7584 26.5532 25.7838C25.874 25.8279 25.3192 25.8499 24.8888 25.8499C11.1424 25.8499 0 15.5631 0 2.87221C0 2.47584 0.0238518 1.96363 0.0715553 1.33558C0.0991234 0.97288 0.274681 0.633337 0.562804 0.385463C0.850926 0.137589 1.23016 -0.000164338 1.624 3.68475e-07H7.12442C7.31737 -0.000179993 7.5035 0.0658583 7.64666 0.185287C7.78982 0.304715 7.87979 0.469007 7.89909 0.646247C7.93435 0.975594 7.96753 1.23984 7.99864 1.43898C8.30776 3.43075 8.94129 5.36792 9.87775 7.18483C10.0255 7.47205 9.92908 7.81528 9.64908 7.9991L6.2922 10.2136C8.34508 14.6286 12.1562 18.147 16.9384 20.0423L19.3339 16.9489C19.4315 16.8221 19.5743 16.7311 19.7374 16.6919C19.9004 16.6528 20.0732 16.668 20.2253 16.7349C22.1931 17.5978 24.2908 18.1813 26.4475 18.4654C26.6632 18.4941 26.9484 18.5248 27.303 18.5573C27.4947 18.5755 27.6723 18.6587 27.8013 18.7908C27.9304 18.923 28.0001 19.0946 27.9999 19.2725Z" fill="#32B5FD"/>
</svg>
